<svg width="24" height="24" viewBox="0 0 24 24" fill="none" xmlns="http://www.w3.org/2000/svg">
<path d="M18.717 18.3587C18.2542 18.3603 17.7956 18.2703 17.3678 18.0937C16.94 17.9171 16.5514 17.6575 16.2245 17.3299L12.6241 13.7272C12.4968 13.6054 12.3273 13.5375 12.1511 13.5375C11.9749 13.5375 11.8055 13.6054 11.6782 13.7272L8.06561 17.3398C7.7389 17.6679 7.35042 17.928 6.9226 18.1051C6.49478 18.2822 6.0361 18.3728 5.57307 18.3716H4.86819L9.43049 22.9338C10.1147 23.6166 11.0419 24.0001 12.0086 24.0001C12.9752 24.0001 13.9024 23.6166 14.5866 22.9338L19.1581 18.3617L18.717 18.3587Z" fill="#32BCAD"/>
<path d="M5.57383 5.6266C6.03687 5.62537 6.49555 5.71592 6.92338 5.89303C7.35121 6.07013 7.73969 6.33028 8.06637 6.65843L11.6789 10.2717C11.8045 10.3969 11.9746 10.4672 12.1519 10.4672C12.3292 10.4672 12.4993 10.3969 12.6249 10.2717L16.2245 6.67212C16.5509 6.34356 16.9393 6.08309 17.3672 5.90583C17.7951 5.72858 18.2539 5.63806 18.7171 5.63953H19.1505L14.579 1.06815C14.2405 0.729511 13.8386 0.460883 13.3963 0.277607C12.9539 0.0943318 12.4798 0 12.001 0C11.5221 0 11.048 0.0943318 10.6057 0.277607C10.1633 0.460883 9.7614 0.729511 9.42289 1.06815L4.86819 5.6266H5.57383Z" fill="#32BCAD"/>
<path d="M22.9318 9.42171L20.1694 6.65926C20.1071 6.68473 20.0405 6.69814 19.9732 6.6988H18.717C18.0634 6.70044 17.4368 6.96004 16.9735 7.42116L13.3738 11.0185C13.0496 11.3421 12.6103 11.5238 12.1523 11.5238C11.6942 11.5238 11.2549 11.3421 10.9307 11.0185L7.31738 7.40747C6.8542 6.94607 6.22759 6.68619 5.57382 6.68435H4.03176C3.96821 6.68292 3.90541 6.67031 3.84623 6.64709L1.06627 9.42171C0.38347 10.106 0 11.0331 0 11.9998C0 12.9664 0.38347 13.8936 1.06627 14.5778L3.84015 17.3517C3.8992 17.328 3.96208 17.3154 4.02568 17.3144H5.57382C6.22758 17.3125 6.85416 17.0526 7.31738 16.5913L10.93 12.9787C11.5831 12.3263 12.7214 12.3263 13.3738 12.9787L16.9735 16.5776C17.4368 17.0387 18.0634 17.2983 18.717 17.3H19.9732C20.0405 17.3004 20.1071 17.3139 20.1694 17.3395L22.9318 14.5771C23.2705 14.2386 23.5391 13.8366 23.7224 13.3943C23.9057 12.9519 24 12.4778 24 11.999C24 11.5202 23.9057 11.0461 23.7224 10.6037C23.5391 10.1614 23.2705 9.75946 22.9318 9.42095" fill="#32BCAD"/>
</svg>
