<svg width="36" height="24" viewBox="0 0 36 24" fill="none" xmlns="http://www.w3.org/2000/svg">
<g clip-path="url(#clip0_221_1079)">
<path fill-rule="evenodd" clip-rule="evenodd" d="M36 21C36 22.65 34.65 24 33 24H3C1.35 24 0 22.65 0 21V3C0 1.35 1.35 0 3 0H33C34.65 0 36 1.35 36 3V21Z" fill="#116BB6"/>
<path d="M12.978 11.0142L12.3078 12.684H13.2348L12.981 11.007L12.978 11.0142ZM9.42899 14.847L12.1776 9.18835H14.2554L15.4146 14.847H13.59L13.4562 14.0928H11.6862L11.2788 14.847H9.42899ZM16.2774 14.847L17.0736 9.18835H18.912L18.1158 14.847H16.2774ZM28.5036 11.007L27.831 12.684H28.758L28.5036 11.007ZM24.951 14.847L27.6996 9.18835H29.7768L30.936 14.847H29.1114L28.9776 14.0928H27.2076L26.8002 14.847H24.951ZM20.8872 12.201H23.1906L24.7692 14.8152H22.4658L20.8872 12.201Z" fill="white"/>
<path d="M21.1266 11.7996H23.5074L25.575 9.19678H23.1942L21.1266 11.7996ZM18.7458 14.8308H21.1266L23.1942 12.1956H20.8134L18.7458 14.8308Z" fill="#F29A25"/>
<path d="M19.6044 9.16502H21.8268L23.349 11.7996H21.1266L19.6044 9.16502ZM9.48359 9.39122L9.30659 11.0556C8.62919 10.1208 7.05899 10.7658 6.93539 11.9304C6.77879 13.4082 8.29019 13.7532 9.11279 12.8826L8.93519 14.5506C8.68979 14.6712 8.44979 14.7648 8.21279 14.8284C7.98239 14.8908 7.74539 14.925 7.50659 14.9304C7.21199 14.9364 6.94499 14.9058 6.70439 14.838C6.46979 14.7744 6.24899 14.6676 6.05399 14.523C5.68259 14.2518 5.41439 13.9062 5.24879 13.4862C5.08379 13.065 5.02919 12.5892 5.08559 12.0582C5.13119 11.631 5.23859 11.2416 5.41019 10.8888C5.57999 10.5354 5.81579 10.215 6.11519 9.92462C6.39839 9.64742 6.70739 9.43802 7.04099 9.29582C7.37339 9.15482 7.73699 9.07982 8.12939 9.07142C8.36099 9.06602 8.59199 9.09002 8.81699 9.14402C9.04139 9.19622 9.26279 9.28022 9.48359 9.39122Z" fill="white"/>
</g>
<defs>
<clipPath id="clip0_221_1079">
<rect width="36" height="24" fill="white"/>
</clipPath>
</defs>
</svg>
