<svg width="36" height="24" viewBox="0 0 36 24" fill="none" xmlns="http://www.w3.org/2000/svg">
<g clip-path="url(#clip0_221_1054)">
<path fill-rule="evenodd" clip-rule="evenodd" d="M36 21C36 22.65 34.65 24 33 24H3C1.35 24 0 22.65 0 21V3C0 1.35 1.35 0 3 0H33C34.65 0 36 1.35 36 3V21Z" fill="#F5F5F5"/>
<path d="M33 0H3C1.35 0 0 1.35 0 3V21C0 22.65 1.35 24 3 24H33C34.65 24 36 22.65 36 21V3C36 1.35 34.65 0 33 0ZM33 0.6C34.3236 0.6 35.4 1.6764 35.4 3V21C35.4 22.3236 34.3236 23.4 33 23.4H3C1.6764 23.4 0.6 22.3236 0.6 21V3C0.6 1.6764 1.6764 0.6 3 0.6H33Z" fill="#D0D0D0"/>
<path d="M25.6482 12.936C25.482 12.141 25.3194 11.3598 25.1562 10.5786C25.1484 10.578 25.1406 10.5774 25.1328 10.5762C24.849 11.3592 24.5652 12.1422 24.2772 12.9354C24.7416 12.936 25.1844 12.936 25.6482 12.936ZM21.7188 15.2016C21.8172 14.9646 21.9144 14.7312 22.0122 14.4978C22.7352 12.7704 23.4588 11.043 24.1818 9.31497C24.3228 8.97777 24.5736 8.80617 24.942 8.80737C25.3638 8.80917 25.785 8.80917 26.2068 8.80617C26.2872 8.80557 26.3232 8.82237 26.3418 8.91117C26.7684 10.968 27.1992 13.0236 27.6294 15.0792C27.6378 15.1194 27.6426 15.1608 27.6498 15.207C27.141 15.207 26.637 15.207 26.124 15.207C26.0664 14.9304 26.0046 14.658 25.9548 14.3826C25.9362 14.2794 25.8954 14.2512 25.7922 14.2518C25.1658 14.2572 24.5388 14.256 23.9124 14.2524C23.826 14.2518 23.7858 14.2788 23.7582 14.361C23.6712 14.6196 23.5776 14.8758 23.4798 15.1308C23.4666 15.1656 23.415 15.2082 23.3808 15.2082C22.8414 15.213 22.302 15.2112 21.7626 15.2106C21.7518 15.2112 21.741 15.2064 21.7188 15.2016Z" fill="#152884"/>
<path fill-rule="evenodd" clip-rule="evenodd" d="M22.1016 8.97838C22.0056 9.42718 21.9102 9.87058 21.8148 10.3176C21.633 10.257 21.4602 10.191 21.2826 10.1418C20.8908 10.0332 20.4912 9.98638 20.0892 10.0644C19.9446 10.0926 19.7958 10.1538 19.6752 10.2378C19.4082 10.4232 19.3998 10.7292 19.6596 10.9254C19.8582 11.0754 20.0826 11.1906 20.2962 11.3202C20.562 11.481 20.8428 11.6208 21.0924 11.8038C21.7272 12.2694 21.9384 12.9162 21.723 13.674C21.5202 14.3874 21.0192 14.8152 20.3514 15.0726C19.7394 15.3084 19.1016 15.342 18.4566 15.2898C18.051 15.2568 17.652 15.186 17.2662 15.0516C17.2026 15.0294 17.1402 15.0036 17.0688 14.976C17.169 14.5056 17.268 14.0442 17.364 13.5924C17.6382 13.689 17.901 13.7994 18.1734 13.8738C18.5796 13.9842 18.9978 14.0244 19.4124 13.9314C19.5738 13.8954 19.7388 13.8216 19.872 13.7244C20.121 13.542 20.1396 13.206 19.9068 13.0032C19.7316 12.8508 19.5228 12.7356 19.3236 12.6126C19.0242 12.4278 18.702 12.2748 18.4212 12.0654C17.484 11.3664 17.6514 10.3104 18.138 9.67798C18.4992 9.20878 18.9948 8.94898 19.557 8.80978C20.3862 8.60458 21.2046 8.66338 22.0098 8.94118C22.0392 8.95198 22.0662 8.96398 22.1016 8.97838Z" fill="#152884"/>
<path fill-rule="evenodd" clip-rule="evenodd" d="M17.295 8.81765C17.2512 9.02765 17.2092 9.23405 17.1648 9.43985C16.7646 11.3113 16.3626 13.1827 15.9666 15.0547C15.9408 15.1765 15.8994 15.2179 15.771 15.2149C15.3192 15.2059 14.8674 15.2113 14.4156 15.2113C14.3742 15.2113 14.3334 15.2113 14.2752 15.2113C14.3178 15.0109 14.3574 14.8231 14.3976 14.6359C14.8068 12.7237 15.2166 10.8115 15.6246 8.89865C15.6372 8.83925 15.6504 8.80505 15.7224 8.80505C16.2276 8.80805 16.7322 8.80685 17.2374 8.80745C17.2518 8.80865 17.2662 8.81285 17.295 8.81765Z" fill="#152884"/>
<path fill-rule="evenodd" clip-rule="evenodd" d="M7.18439 8.80745H7.30739C8.18459 8.80745 9.06179 8.80685 9.93899 8.80745C10.4022 8.80745 10.686 9.04385 10.7718 9.49745C10.9986 10.6969 11.2254 11.8963 11.4522 13.0957C11.4534 13.1029 11.457 13.1101 11.4684 13.1413C11.493 13.0873 11.5116 13.0507 11.5266 13.0123C12.0666 11.6485 12.6072 10.2847 13.143 8.91965C13.1784 8.82905 13.2234 8.80385 13.3158 8.80445C13.8096 8.80865 14.3034 8.80625 14.7966 8.80625H14.9256C14.901 8.87045 14.8824 8.92265 14.8608 8.97365C14.004 11.0191 13.1466 13.0639 12.291 15.1099C12.261 15.1819 12.2274 15.2137 12.1434 15.2125C11.6268 15.2083 11.1102 15.2083 10.5942 15.2125C10.5132 15.2131 10.4856 15.1873 10.4658 15.1105C10.0314 13.4221 9.59219 11.7349 9.15899 10.0459C9.09359 9.79205 8.95499 9.61625 8.71799 9.50345C8.24279 9.27665 7.74119 9.13265 7.23179 9.01025C7.20659 9.00425 7.18199 8.99645 7.14899 8.98745C7.15499 8.95505 7.15979 8.92625 7.16519 8.89745C7.17119 8.87285 7.17659 8.84705 7.18439 8.80745Z" fill="#152884"/>
</g>
<defs>
<clipPath id="clip0_221_1054">
<rect width="36" height="24" fill="white"/>
</clipPath>
</defs>
</svg>
