<svg width="36" height="24" viewBox="0 0 36 24" fill="none" xmlns="http://www.w3.org/2000/svg">
<g clip-path="url(#clip0_221_1063)">
<path fill-rule="evenodd" clip-rule="evenodd" d="M36 21C36 22.65 34.65 24 33 24H3C1.35 24 0 22.65 0 21V3C0 1.35 1.35 0 3 0H33C34.65 0 36 1.35 36 3V21Z" fill="#F5F5F5"/>
<path d="M33 0H3C1.35 0 0 1.35 0 3V21C0 22.65 1.35 24 3 24H33C34.65 24 36 22.65 36 21V3C36 1.35 34.65 0 33 0ZM33 0.6C34.3236 0.6 35.4 1.6764 35.4 3V21C35.4 22.3236 34.3236 23.4 33 23.4H3C1.6764 23.4 0.6 22.3236 0.6 21V3C0.6 1.6764 1.6764 0.6 3 0.6H33Z" fill="#D0D0D0"/>
<path d="M21.162 17.1666C24.0115 17.1666 26.3214 14.8566 26.3214 12.0072C26.3214 9.15772 24.0115 6.84778 21.162 6.84778C18.3126 6.84778 16.0026 9.15772 16.0026 12.0072C16.0026 14.8566 18.3126 17.1666 21.162 17.1666Z" fill="#F79E1B"/>
<path d="M14.838 17.1522C17.6874 17.1522 19.9974 14.8422 19.9974 11.9928C19.9974 9.14332 17.6874 6.83337 14.838 6.83337C11.9885 6.83337 9.67859 9.14332 9.67859 11.9928C9.67859 14.8422 11.9885 17.1522 14.838 17.1522Z" fill="#EB001B"/>
<path fill-rule="evenodd" clip-rule="evenodd" d="M16.0026 11.9958C15.999 13.6542 16.7772 15.1314 17.9904 16.0782C19.2084 15.1368 19.9938 13.6638 19.998 12.006C20.0016 10.3476 19.2234 8.87038 18.0102 7.92358C16.7916 8.86378 16.0062 10.3374 16.0026 11.9958Z" fill="#FF5F00"/>
</g>
<defs>
<clipPath id="clip0_221_1063">
<rect width="36" height="24" fill="white"/>
</clipPath>
</defs>
</svg>
