<svg width="36" height="24" viewBox="0 0 36 24" fill="none" xmlns="http://www.w3.org/2000/svg">
<g clip-path="url(#clip0_221_1092)">
<path fill-rule="evenodd" clip-rule="evenodd" d="M36 21C36 22.65 34.65 24 33 24H3C1.35 24 0 22.65 0 21V3C0 1.35 1.35 0 3 0H33C34.65 0 36 1.35 36 3V21Z" fill="#EF182C"/>
<path d="M17.5404 18.5322H16.6152V13.7934H17.5404V18.5322ZM19.896 18.5322H18.3816V12.0276H19.896V18.5322ZM23.8446 12.3342C23.157 13.6146 21.5634 14.1324 21.5634 14.1324C21.3858 14.2062 21.3072 14.0928 21.3072 14.0928C21.2124 13.9476 21.3864 13.8456 21.3864 13.8456C22.4274 13.1286 22.7022 12.3348 22.7022 12.3348C23.652 10.0536 19.881 8.82361 19.881 8.82361C17.6616 7.98781 15.0576 8.35201 15.0576 8.35201C14.3736 9.42961 14.2878 10.7898 14.4702 11.7738C14.6898 12.9834 15.2538 13.8324 15.2538 13.8324C15.3312 13.962 15.222 14.0412 15.222 14.0412C15.096 14.124 14.9808 14.0034 14.9808 14.0034C14.2722 13.3632 13.8096 12.5664 13.5558 11.784C12.9858 10.0254 13.5318 8.60941 13.5318 8.60941C12.8526 8.76121 12.1482 9.00421 12.1482 9.00421C11.9526 9.09541 11.88 8.97001 11.88 8.97001C11.7948 8.79661 12.0198 8.70721 12.0198 8.70721C12.7782 8.28241 13.7898 7.95421 13.7898 7.95421C14.4996 6.51001 15.7794 5.98021 15.7794 5.98021C17.8584 5.00101 19.8828 5.72521 19.8828 5.72521C21.3552 6.18241 22.1016 7.21741 22.1016 7.21741C22.2414 7.36501 22.116 7.46401 22.116 7.46401C22.0164 7.56301 21.8874 7.44121 21.8874 7.44121C21.0198 6.67081 19.887 6.49561 19.887 6.49561C17.3136 6.00421 15.7866 7.49641 15.7866 7.49641C17.7876 7.19521 19.8828 7.71301 19.8828 7.71301C21.0462 7.97161 21.9504 8.45581 21.9504 8.45581C25.2414 10.1982 23.8446 12.3342 23.8446 12.3342Z" fill="white"/>
</g>
<defs>
<clipPath id="clip0_221_1092">
<rect width="36" height="24" fill="white"/>
</clipPath>
</defs>
</svg>
