<svg width="36" height="24" viewBox="0 0 36 24" fill="none" xmlns="http://www.w3.org/2000/svg">
<g clip-path="url(#clip0_221_1071)">
<path fill-rule="evenodd" clip-rule="evenodd" d="M36 21C36 22.65 34.65 24 33 24H3C1.35 24 0 22.65 0 21V3C0 1.35 1.35 0 3 0H33C34.65 0 36 1.35 36 3V21Z" fill="black"/>
<path d="M29.586 12.9762C29.43 13.74 28.7544 14.3148 27.945 14.3148C27.7644 14.3148 27.585 14.286 27.4134 14.2284L27.0414 15.3396C27.3324 15.4368 27.6378 15.4866 27.945 15.486C29.3208 15.486 30.4692 14.5092 30.7344 13.2108L29.586 12.9762ZM26.0592 14.7726L26.835 13.8948C26.4882 13.5882 26.2704 13.14 26.2704 12.6402C26.2704 12.141 26.4888 11.6934 26.835 11.3868L26.0586 10.509C25.47 11.0304 25.0986 11.7924 25.0986 12.6402C25.098 13.4886 25.47 14.2512 26.0592 14.7726ZM27.414 11.052C27.5808 10.9962 27.759 10.9662 27.945 10.9662C28.755 10.9662 29.4312 11.5416 29.586 12.3066L30.7344 12.0726C30.471 10.773 29.322 9.79502 27.945 9.79502C27.6384 9.79442 27.3336 9.84422 27.0432 9.94082L27.414 11.052ZM23.9766 8.51282V14.0076L24.93 14.403L24.4788 15.4866L23.5356 15.0948C23.3238 15.003 23.1804 14.8626 23.0712 14.7048C22.9668 14.5428 22.8888 14.3214 22.8888 14.0232V8.51342L23.9766 8.51282ZM19.6326 9.79562C18.0624 9.77162 16.7688 11.0262 16.7448 12.597C16.7358 13.1862 16.9056 13.7364 17.205 14.1942L22.359 11.991C22.0692 10.7496 20.9652 9.81602 19.6326 9.79562ZM17.925 12.8172C17.9178 12.7512 17.913 12.684 17.9148 12.6156C17.9298 11.6898 18.6912 10.9512 19.6164 10.9662C20.1198 10.9728 20.5668 11.2038 20.8692 11.5602L17.925 12.8172ZM20.7606 13.8372C20.4498 14.1396 20.0286 14.3232 19.5636 14.3166C19.245 14.3112 18.9492 14.2158 18.6984 14.0568L18.0756 15.0492C18.516 15.3282 19.0254 15.4794 19.5468 15.4866C20.3358 15.4986 21.0552 15.1884 21.5778 14.6766L20.7606 13.8372Z" fill="white"/>
<path fill-rule="evenodd" clip-rule="evenodd" d="M12.6168 12.5508C12.3618 13.8024 11.2554 14.7438 9.92881 14.7438C9.63301 14.7438 9.33901 14.6964 9.05821 14.6028L8.44861 16.4238C8.92561 16.5834 9.42541 16.6644 9.92881 16.6638C12.1836 16.6638 14.0646 15.0636 14.4978 12.9366L12.6168 12.5508Z" fill="#ED412F"/>
<path fill-rule="evenodd" clip-rule="evenodd" d="M6.83877 15.4927L8.11077 14.0545C7.54317 13.5517 7.18497 12.8179 7.18497 11.9995C7.18497 11.1817 7.54317 10.4479 8.11077 9.94566L6.83817 8.50806C5.87397 9.36246 5.26617 10.6099 5.26617 12.0001C5.26557 13.3903 5.87397 14.6383 6.83877 15.4927Z" fill="#1AA5DF"/>
<path fill-rule="evenodd" clip-rule="evenodd" d="M9.05823 9.3972C9.33843 9.3036 9.63243 9.2562 9.92823 9.2562C11.256 9.2562 12.363 10.1994 12.6174 11.4516L14.4984 11.0682C14.067 8.9394 12.1848 7.3368 9.92823 7.3368C9.42603 7.3362 8.92683 7.4172 8.44983 7.5762L9.05823 9.3972Z" fill="#FFCA32"/>
</g>
<defs>
<clipPath id="clip0_221_1071">
<rect width="36" height="24" fill="white"/>
</clipPath>
</defs>
</svg>
