<svg width="36" height="24" viewBox="0 0 36 24" fill="none" xmlns="http://www.w3.org/2000/svg">
<g clip-path="url(#clip0_221_1086)">
<path fill-rule="evenodd" clip-rule="evenodd" d="M36 21C36 22.65 34.65 24 33 24H3C1.35 24 0 22.65 0 21V3C0 1.35 1.35 0 3 0H33C34.65 0 36 1.35 36 3V21Z" fill="#FFED00"/>
<path fill-rule="evenodd" clip-rule="evenodd" d="M11.7174 14.1882L19.4574 9.0264L20.6316 9.81L14.0658 14.187L17.9982 16.8102L20.1102 15.402L18.6468 14.424L21.645 12.426L24.2826 14.1876L17.9982 18.375L11.7174 14.1882ZM21.9342 7.3788L24.4098 5.7294V7.2936L23.1084 8.1624L21.9342 7.3788ZM15.3648 14.1882L21.933 9.8118L17.9964 7.1892L15.8874 8.5986L17.3508 9.564L14.3502 11.5656L11.7174 9.8076L17.9976 5.625L24.282 9.807L16.539 14.9718L15.3648 14.1882ZM11.5908 16.7058L12.8916 15.8376L14.0658 16.6212L11.5908 18.27V16.7058Z" fill="#225198"/>
</g>
<defs>
<clipPath id="clip0_221_1086">
<rect width="36" height="24" fill="white"/>
</clipPath>
</defs>
</svg>
