<svg width="111" height="33" viewBox="0 0 111 33" fill="none" xmlns="http://www.w3.org/2000/svg">
<path fill-rule="evenodd" clip-rule="evenodd" d="M0.846329 31.0219H110.026V0.0999756H0.846329V31.0219Z" fill="#FFDC00"/>
<mask id="mask0_221_1112" style="mask-type:luminance" maskUnits="userSpaceOnUse" x="0" y="0" width="110" height="33">
<path d="M0.0263672 0.0999756H109.974V32.1H0.0263672V0.0999756Z" fill="white"/>
</mask>
<g mask="url(#mask0_221_1112)">
<path d="M0.51889 31.4962H109.699V0.574342H0.51889V31.4962Z" stroke="#00407E" stroke-width="0.59616"/>
</g>
<path fill-rule="evenodd" clip-rule="evenodd" d="M6.4508 11.6499C4.58596 14.6598 4.58596 17.8559 6.4508 21.2593C8.78399 24.2692 11.6183 25.4212 15.607 25.6044L15.9743 22.1485C12.1948 22.6726 9.67655 20.9709 8.39109 17.0689C8.6274 11.755 11.6966 10.3147 16.0526 10.603L16.0782 7.46096C11.2254 7.25074 7.99677 8.66551 6.4508 11.6499Z" fill="#00407E"/>
<path fill-rule="evenodd" clip-rule="evenodd" d="M26.1811 7.48645C26.1541 7.48645 26.1299 7.48645 26.1299 7.48645C20.9596 7.48645 16.7616 11.4921 16.7616 16.4154C16.7616 21.3373 20.9596 25.3416 26.1299 25.3416C26.1299 25.3416 26.1541 25.3416 26.1811 25.3416C31.2973 25.3174 35.4698 21.3103 35.4698 16.4154C35.4698 11.5191 31.2973 7.51344 26.1811 7.48645ZM26.1811 22.3842C22.8216 22.3842 20.067 19.6882 20.067 16.4154C20.067 13.1427 22.8216 10.4722 26.1811 10.4722C29.5393 10.4722 32.2682 13.1427 32.2682 16.4154C32.2682 19.6882 29.5393 22.3842 26.1811 22.3842Z" fill="#00407E"/>
<path fill-rule="evenodd" clip-rule="evenodd" d="M88.0526 7.27747C88.0256 7.27747 87.9985 7.27747 87.9985 7.27747C82.8296 7.27747 78.6316 11.2831 78.6316 16.205C78.6316 21.1283 82.8296 25.134 87.9985 25.134C87.9985 25.134 88.0256 25.134 88.0526 25.134C93.1702 25.107 97.3398 21.1013 97.3398 16.205C97.3398 11.3101 93.1702 7.30303 88.0526 7.27747ZM88.0526 22.1482C84.693 22.1482 81.9385 19.4777 81.9385 16.205C81.9385 12.9323 84.693 10.2618 88.0526 10.2618C91.4107 10.2618 94.1653 12.9323 94.1653 16.205C94.1653 19.4777 91.4107 22.1482 88.0526 22.1482Z" fill="#00407E"/>
<path fill-rule="evenodd" clip-rule="evenodd" d="M42.764 7.72205H36.1516V24.8982H40.035V20.08C40.5859 20.8399 41.2152 21.5459 41.8714 22.2277C43.2095 23.536 44.7584 24.6098 46.542 25.3414L46.515 21.0232C45.3876 20.3939 44.5491 19.6354 43.9726 18.7448C45.7805 17.5672 46.7784 15.5772 46.9093 13.5871V12.6184C46.7513 10.3144 45.3876 8.2192 42.764 7.72205ZM43.1312 14.7647C42.7113 15.2107 42.2914 15.5772 41.8714 15.8655C41.3205 16.232 40.7696 16.4919 40.139 16.5985V11.2306L41.8714 11.2576L42.6842 11.2831C43.7348 12.3044 43.8914 13.4564 43.1312 14.7647Z" fill="#00407E"/>
<path fill-rule="evenodd" clip-rule="evenodd" d="M55.9089 7.72205H49.271V24.8982H53.1544V20.08C53.7309 20.8399 54.3345 21.5459 55.0164 22.2277C56.3545 23.536 57.9033 24.6098 59.6614 25.3414V21.0232C58.534 20.3939 57.6684 19.6354 57.0919 18.7448C58.9283 17.5672 59.9233 15.5772 60.0543 13.5871V12.6184C59.8707 10.3144 58.5069 8.2192 55.9089 7.72205ZM56.2762 14.7647C55.8563 15.2107 55.4363 15.5772 55.0164 15.8655C54.4655 16.232 53.9146 16.4919 53.2854 16.5985V11.2306L55.0164 11.2576L55.8036 11.2831C56.8542 12.3044 57.0108 13.4564 56.2762 14.7647Z" fill="#00407E"/>
<path fill-rule="evenodd" clip-rule="evenodd" d="M71.3644 10.6812V7.22522C66.2994 7.30334 62.3904 9.18971 61.0252 15.1059V17.8559C62.1028 23.2749 65.8795 25.5264 71.3644 25.3417V22.1485C68.7678 22.2011 66.3777 21.5732 64.752 18.5619H72.0477V14.6599L64.8559 14.5832C65.7229 11.7281 68.0319 10.6031 71.3644 10.6812Z" fill="#00407E"/>
<path fill-rule="evenodd" clip-rule="evenodd" d="M73.9082 25.0289H77.6877V7.59143H73.9082V25.0289Z" fill="#00407E"/>
<path fill-rule="evenodd" clip-rule="evenodd" d="M105.135 11.6765V7.98479C103.427 7.30297 101.985 7.59132 99.9121 9.03166C97.2614 12.0942 97.2614 15.3158 99.0195 18.6666C99.7014 19.6354 100.701 20.4209 101.067 21.5984V24.9763L105.135 25.0018V20.9962C104.818 19.6879 104.188 18.7447 102.903 17.4095C100.595 13.928 101.696 11.3101 105.135 11.6765Z" fill="#00407E"/>
</svg>
