<svg width="72" height="51" viewBox="0 0 72 51" fill="none" xmlns="http://www.w3.org/2000/svg">
<g clip-path="url(#clip0_221_1139)">
<path d="M50.033 13.1169H22.9144V31.5576H50.033V13.1169Z" fill="#EBEBEC"/>
<path d="M24.5415 13.1169H22.9144V31.5576H24.5415V13.1169Z" fill="#D7D8D9"/>
<path d="M49.0383 0.531726C48.9858 0.280226 48.7641 0.0999756 48.5073 0.0999756H45.694H41.8974H38.6432H34.3042H31.0499H27.2533H24.4401C24.1833 0.0999756 23.9616 0.280226 23.9091 0.531726L21.2873 13.117C21.2873 14.3152 22.2586 15.2865 23.4568 15.2865C24.6549 15.2865 25.6263 14.3152 25.6263 13.117C25.6263 14.3152 26.5976 15.2865 27.7958 15.2865C28.9939 15.2865 29.9653 14.3152 29.9653 13.117C29.9653 14.3152 30.9366 15.2865 32.1348 15.2865C33.3329 15.2865 34.3043 14.3152 34.3043 13.117C34.3043 14.3152 35.2756 15.2865 36.4738 15.2865C37.6719 15.2865 38.6433 14.3152 38.6433 13.117C38.6433 14.3152 39.6146 15.2865 40.8128 15.2865C42.0109 15.2865 42.9823 14.3152 42.9823 13.117C42.9823 14.3152 43.9536 15.2865 45.1518 15.2865C46.3499 15.2865 47.3213 14.3152 47.3213 13.117C47.3213 14.3152 48.2926 15.2865 49.4908 15.2865C50.6889 15.2865 51.6603 14.3152 51.6603 13.117L49.0383 0.531726Z" fill="#FDDD85"/>
<path d="M24.4401 0.0999756C24.1833 0.0999756 23.9616 0.280226 23.9091 0.531726L21.2873 13.117C21.2873 14.3152 22.2586 15.2865 23.4568 15.2865C24.6549 15.2865 25.6263 14.3152 25.6263 13.117L27.2534 0.0999756H24.4401Z" fill="#E5563C"/>
<path d="M23.4568 15.2864C24.6549 15.2864 25.6263 14.3151 25.6263 13.1169H21.2873C21.2873 14.3151 22.2586 15.2864 23.4568 15.2864Z" fill="#CF442B"/>
<path d="M27.2534 0.0999756L25.6263 13.1169C25.6263 14.3151 26.5976 15.2864 27.7958 15.2864C28.9939 15.2864 29.9653 14.3151 29.9653 13.1169L31.0499 0.0999756H27.2534Z" fill="#FDDD85"/>
<path d="M27.7958 15.2864C28.9939 15.2864 29.9653 14.3151 29.9653 13.1169H25.6263C25.6263 14.3151 26.5976 15.2864 27.7958 15.2864Z" fill="#FDD042"/>
<path d="M31.0499 0.0999756L29.9652 13.1169C29.9652 14.3151 30.9365 15.2864 32.1347 15.2864C33.3329 15.2864 34.3042 14.3151 34.3042 13.1169V0.0999756H31.0499Z" fill="#E5563C"/>
<path d="M32.1347 15.2864C33.3329 15.2864 34.3042 14.3151 34.3042 13.1169H29.9652C29.9652 14.3151 30.9366 15.2864 32.1347 15.2864Z" fill="#CF442B"/>
<path d="M34.3042 0.0999756V13.1169C34.3042 14.3151 35.2755 15.2864 36.4737 15.2864C37.6719 15.2864 38.6432 14.3151 38.6432 13.1169V0.0999756H34.3042Z" fill="#FDDD85"/>
<path d="M36.4737 15.2864C37.6719 15.2864 38.6432 14.3151 38.6432 13.1169H34.3042C34.3042 14.3151 35.2755 15.2864 36.4737 15.2864Z" fill="#FDD042"/>
<path d="M41.8974 0.0999756H38.6432V13.1169C38.6432 14.3151 39.6145 15.2864 40.8127 15.2864C42.0109 15.2864 42.9822 14.3151 42.9822 13.1169L41.8974 0.0999756Z" fill="#E5563C"/>
<path d="M40.8127 15.2864C42.0109 15.2864 42.9822 14.3151 42.9822 13.1169H38.6432C38.6432 14.3151 39.6145 15.2864 40.8127 15.2864Z" fill="#CF442B"/>
<path d="M45.694 0.0999756H41.8974L42.9822 13.1169C42.9822 14.3151 43.9535 15.2864 45.1517 15.2864C46.3499 15.2864 47.3212 14.3151 47.3212 13.1169L45.694 0.0999756Z" fill="#FDDD85"/>
<path d="M45.1516 15.2864C46.3498 15.2864 47.3211 14.3151 47.3211 13.1169H42.9821C42.9822 14.3151 43.9535 15.2864 45.1516 15.2864Z" fill="#FDD042"/>
<path d="M49.0382 0.531726C48.9858 0.280226 48.7641 0.0999756 48.5072 0.0999756H45.694L47.3211 13.1169C47.3211 14.3151 48.2924 15.2864 49.4906 15.2864C50.6888 15.2864 51.6601 14.3151 51.6601 13.1169L49.0382 0.531726Z" fill="#E5563C"/>
<path d="M49.4906 15.2864C50.6888 15.2864 51.6601 14.3151 51.6601 13.1169H47.3211C47.3211 14.3151 48.2924 15.2864 49.4906 15.2864Z" fill="#CF442B"/>
<path d="M24.4401 0.0999756H27.2534L25.6263 13.1169H21.2873L23.9091 0.531726C23.9616 0.280226 24.1833 0.0999756 24.4401 0.0999756Z" fill="#E5563C"/>
<path d="M27.2534 0.0999756H31.0499L29.9652 13.1169H25.6263L27.2534 0.0999756Z" fill="#FDDD85"/>
<path d="M31.0499 0.0999756H34.3042V13.1169H29.9652L31.0499 0.0999756Z" fill="#E5563C"/>
<path d="M48.5072 0.0999756H45.694L47.3211 13.1169H51.6601L49.0382 0.531726C48.9858 0.280226 48.7641 0.0999756 48.5072 0.0999756Z" fill="#E5563C"/>
<path d="M45.694 0.0999756H41.8974L42.9822 13.1169H47.3211L45.694 0.0999756Z" fill="#FDDD85"/>
<path d="M41.8974 0.0999756H38.6432V13.1169H42.9822L41.8974 0.0999756Z" fill="#E5563C"/>
<path d="M38.6432 0.0999756H34.3042V13.1169H38.6432V0.0999756Z" fill="#FDDD85"/>
<path d="M34.3042 16.3712H25.6263C25.3268 16.3712 25.0839 16.6141 25.0839 16.9136V31.0153C25.0839 31.3148 25.3268 31.5577 25.6263 31.5577H34.3042C34.6037 31.5577 34.8466 31.3148 34.8466 31.0153V16.9136C34.8466 16.6141 34.6038 16.3712 34.3042 16.3712Z" fill="#74757B"/>
<path d="M26.711 31.0153V16.9136C26.711 16.6141 26.9539 16.3712 27.2534 16.3712H25.6263C25.3268 16.3712 25.0839 16.6141 25.0839 16.9136V31.0153C25.0839 31.3148 25.3268 31.5577 25.6263 31.5577H27.2534C26.9538 31.5577 26.711 31.3148 26.711 31.0153Z" fill="#606268"/>
<path d="M32.6771 25.0491C33.2762 25.0491 33.7618 24.5635 33.7618 23.9644C33.7618 23.3653 33.2762 22.8796 32.6771 22.8796C32.078 22.8796 31.5923 23.3653 31.5923 23.9644C31.5923 24.5635 32.078 25.0491 32.6771 25.0491Z" fill="#E1A527"/>
<path d="M32.6771 24.5067C32.9766 24.5067 33.2194 24.2639 33.2194 23.9644C33.2194 23.6648 32.9766 23.422 32.6771 23.422C32.3775 23.422 32.1347 23.6648 32.1347 23.9644C32.1347 24.2639 32.3775 24.5067 32.6771 24.5067Z" fill="#FDD042"/>
<path d="M51.6601 32.1H21.2873C20.9878 32.1 20.7449 31.8571 20.7449 31.5576C20.7449 31.2581 20.9878 31.0153 21.2873 31.0153H51.6601C51.9596 31.0153 52.2025 31.2581 52.2025 31.5576C52.2025 31.8571 51.9596 32.1 51.6601 32.1Z" fill="#4C4E55"/>
<path d="M46.2364 16.9136H37.5584V23.4221H46.2364V16.9136Z" fill="#CFF6F1"/>
<path d="M44.3381 23.4221H46.2364V21.5238L44.3381 23.4221Z" fill="#6AC8B7"/>
<path d="M45.2194 16.9136L38.711 23.4221H43.2081L46.2364 20.3938V16.9136H45.2194Z" fill="#6AC8B7"/>
<path d="M37.5584 16.9136V21.6141L42.259 16.9136H37.5584Z" fill="#6AC8B7"/>
<path d="M47.3211 22.8797H46.7788V16.9136C46.7788 16.6141 46.5359 16.3712 46.2364 16.3712H37.5584C37.2589 16.3712 37.0161 16.6141 37.0161 16.9136V22.8797H36.4737C36.1742 22.8797 35.9313 23.1226 35.9313 23.4221C35.9313 23.7216 36.1742 23.9645 36.4737 23.9645H47.3211C47.6206 23.9645 47.8635 23.7216 47.8635 23.4221C47.8635 23.1225 47.6207 22.8797 47.3211 22.8797ZM38.1008 22.8797V17.456H45.6941V22.8797H38.1008Z" fill="#88898E"/>
</g>
<path d="M1.73541 38.5687H4.91705C5.5694 38.5687 6.12994 38.6664 6.59869 38.8617C7.07135 39.057 7.43463 39.3461 7.68854 39.7289C7.94244 40.1117 8.0694 40.5824 8.0694 41.141C8.0694 41.598 7.99127 41.9906 7.83502 42.3187C7.68268 42.6429 7.46588 42.9144 7.18463 43.1332C6.90729 43.348 6.58112 43.5199 6.20612 43.6488L5.64948 43.9418H2.88385L2.87213 42.5707H4.92877C5.23737 42.5707 5.49323 42.516 5.69635 42.4066C5.89948 42.2972 6.05182 42.1449 6.15338 41.9496C6.25885 41.7543 6.31158 41.5277 6.31158 41.2699C6.31158 40.9965 6.2608 40.7601 6.15924 40.5609C6.05768 40.3617 5.90338 40.2094 5.69635 40.1039C5.48932 39.9984 5.22955 39.9457 4.91705 39.9457H3.49323V47.1H1.73541V38.5687ZM6.50494 47.1L4.55963 43.2972L6.41705 43.2855L8.3858 47.0179V47.1H6.50494ZM12.2354 47.2172C11.7432 47.2172 11.3018 47.139 10.9112 46.9828C10.5206 46.8226 10.1885 46.6019 9.9151 46.3207C9.64557 46.0394 9.43854 45.7133 9.29401 45.3422C9.14948 44.9672 9.07721 44.5687 9.07721 44.1469V43.9125C9.07721 43.432 9.14557 42.9926 9.28229 42.5941C9.41901 42.1957 9.61432 41.85 9.86823 41.557C10.126 41.264 10.4385 41.0394 10.8057 40.8832C11.1729 40.723 11.587 40.6429 12.0479 40.6429C12.4971 40.6429 12.8956 40.7172 13.2432 40.8656C13.5909 41.014 13.8819 41.225 14.1163 41.4984C14.3546 41.7719 14.5342 42.1 14.6553 42.4828C14.7764 42.8617 14.837 43.2836 14.837 43.7484V44.4515H9.79791V43.3265H13.1788V43.1976C13.1788 42.9633 13.1358 42.7543 13.0499 42.5707C12.9678 42.3832 12.8428 42.2347 12.6749 42.1254C12.5069 42.016 12.2921 41.9613 12.0303 41.9613C11.8077 41.9613 11.6163 42.0101 11.4561 42.1078C11.296 42.2054 11.1651 42.3422 11.0635 42.5179C10.9659 42.6937 10.8917 42.9008 10.8409 43.139C10.794 43.3734 10.7706 43.6312 10.7706 43.9125V44.1469C10.7706 44.4008 10.8057 44.6351 10.876 44.85C10.9503 45.0648 11.0538 45.2504 11.1866 45.4066C11.3233 45.5629 11.4874 45.684 11.6788 45.7699C11.8741 45.8558 12.0948 45.8988 12.3409 45.8988C12.6456 45.8988 12.9288 45.8402 13.1905 45.723C13.4561 45.6019 13.6846 45.4203 13.876 45.1781L14.6964 46.0687C14.5635 46.2601 14.3819 46.4437 14.1514 46.6195C13.9249 46.7953 13.6514 46.9398 13.3311 47.0531C13.0108 47.1625 12.6456 47.2172 12.2354 47.2172ZM18.9034 40.7601V41.9554H15.212V40.7601H18.9034ZM16.126 39.1957H17.8135V45.1898C17.8135 45.3734 17.837 45.514 17.8839 45.6117C17.9346 45.7094 18.0089 45.7777 18.1065 45.8168C18.2042 45.8519 18.3272 45.8695 18.4756 45.8695C18.5811 45.8695 18.6749 45.8656 18.7569 45.8578C18.8428 45.8461 18.9151 45.8344 18.9737 45.8226L18.9796 47.0648C18.835 47.1117 18.6788 47.1488 18.5108 47.1761C18.3428 47.2035 18.1573 47.2172 17.9542 47.2172C17.5831 47.2172 17.2589 47.1566 16.9815 47.0355C16.7081 46.9105 16.4971 46.7113 16.3487 46.4379C16.2003 46.1644 16.126 45.8051 16.126 45.3597V39.1957ZM21.6456 40.7601V47.1H19.9522V40.7601H21.6456ZM19.8467 39.1078C19.8467 38.8617 19.9327 38.6586 20.1046 38.4984C20.2764 38.3383 20.5069 38.2582 20.796 38.2582C21.0811 38.2582 21.3096 38.3383 21.4815 38.4984C21.6573 38.6586 21.7452 38.8617 21.7452 39.1078C21.7452 39.3539 21.6573 39.557 21.4815 39.7172C21.3096 39.8773 21.0811 39.9574 20.796 39.9574C20.5069 39.9574 20.2764 39.8773 20.1046 39.7172C19.9327 39.557 19.8467 39.3539 19.8467 39.1078ZM24.7276 42.1429V47.1H23.0401V40.7601H24.628L24.7276 42.1429ZM26.6378 40.7191L26.6085 42.2836C26.5264 42.2719 26.4268 42.2621 26.3096 42.2543C26.1964 42.2426 26.0928 42.2367 25.9991 42.2367C25.7608 42.2367 25.5538 42.2679 25.378 42.3304C25.2061 42.389 25.0616 42.4769 24.9444 42.5941C24.8311 42.7113 24.7452 42.8539 24.6866 43.0219C24.6319 43.1898 24.6006 43.3812 24.5928 43.5961L24.253 43.4906C24.253 43.0804 24.294 42.7035 24.376 42.3597C24.4581 42.0121 24.5772 41.7094 24.7335 41.4515C24.8936 41.1937 25.0889 40.9945 25.3194 40.8539C25.5499 40.7133 25.8135 40.6429 26.1104 40.6429C26.2042 40.6429 26.2999 40.6508 26.3975 40.6664C26.4952 40.6781 26.5753 40.6957 26.6378 40.7191ZM30.2354 47.2172C29.7432 47.2172 29.3018 47.139 28.9112 46.9828C28.5206 46.8226 28.1885 46.6019 27.9151 46.3207C27.6456 46.0394 27.4385 45.7133 27.294 45.3422C27.1495 44.9672 27.0772 44.5687 27.0772 44.1469V43.9125C27.0772 43.432 27.1456 42.9926 27.2823 42.5941C27.419 42.1957 27.6143 41.85 27.8682 41.557C28.126 41.264 28.4385 41.0394 28.8057 40.8832C29.1729 40.723 29.587 40.6429 30.0479 40.6429C30.4971 40.6429 30.8956 40.7172 31.2432 40.8656C31.5909 41.014 31.8819 41.225 32.1163 41.4984C32.3546 41.7719 32.5342 42.1 32.6553 42.4828C32.7764 42.8617 32.837 43.2836 32.837 43.7484V44.4515H27.7979V43.3265H31.1788V43.1976C31.1788 42.9633 31.1358 42.7543 31.0499 42.5707C30.9678 42.3832 30.8428 42.2347 30.6749 42.1254C30.5069 42.016 30.2921 41.9613 30.0303 41.9613C29.8077 41.9613 29.6163 42.0101 29.4561 42.1078C29.296 42.2054 29.1651 42.3422 29.0635 42.5179C28.9659 42.6937 28.8917 42.9008 28.8409 43.139C28.794 43.3734 28.7706 43.6312 28.7706 43.9125V44.1469C28.7706 44.4008 28.8057 44.6351 28.876 44.85C28.9503 45.0648 29.0538 45.2504 29.1866 45.4066C29.3233 45.5629 29.4874 45.684 29.6788 45.7699C29.8741 45.8558 30.0948 45.8988 30.3409 45.8988C30.6456 45.8988 30.9288 45.8402 31.1905 45.723C31.4561 45.6019 31.6846 45.4203 31.876 45.1781L32.6964 46.0687C32.5635 46.2601 32.3819 46.4437 32.1514 46.6195C31.9249 46.7953 31.6514 46.9398 31.3311 47.0531C31.0108 47.1625 30.6456 47.2172 30.2354 47.2172ZM38.4385 42.1136V47.1H36.751V40.7601H38.3331L38.4385 42.1136ZM38.1924 43.7074H37.7354C37.7354 43.2386 37.796 42.8168 37.9171 42.4418C38.0381 42.0629 38.2081 41.7406 38.4268 41.475C38.6456 41.2054 38.9053 41.0004 39.2061 40.8597C39.5108 40.7152 39.8506 40.6429 40.2256 40.6429C40.5225 40.6429 40.794 40.6859 41.0401 40.7719C41.2862 40.8578 41.4971 40.9945 41.6729 41.182C41.8526 41.3695 41.9893 41.6176 42.0831 41.9261C42.1807 42.2347 42.2296 42.6117 42.2296 43.057V47.1H40.5303V43.0511C40.5303 42.7699 40.4913 42.5511 40.4131 42.3949C40.335 42.2386 40.2198 42.1293 40.0674 42.0668C39.919 42.0004 39.7354 41.9672 39.5167 41.9672C39.2901 41.9672 39.0928 42.0121 38.9249 42.1019C38.7608 42.1918 38.6241 42.3168 38.5147 42.4769C38.4092 42.6332 38.3292 42.8168 38.2745 43.0277C38.2198 43.2386 38.1924 43.4652 38.1924 43.7074ZM46.9346 45.6703V42.8461C46.9346 42.6429 46.9014 42.4691 46.835 42.3246C46.7686 42.1761 46.6651 42.0609 46.5245 41.9789C46.3878 41.8969 46.21 41.8558 45.9913 41.8558C45.8038 41.8558 45.6417 41.889 45.5049 41.9554C45.3682 42.0179 45.2628 42.1097 45.1885 42.2308C45.1143 42.348 45.0772 42.4867 45.0772 42.6469H43.3897C43.3897 42.3773 43.4522 42.1215 43.5772 41.8793C43.7022 41.6371 43.8839 41.4242 44.1221 41.2406C44.3604 41.0531 44.6436 40.9066 44.9717 40.8011C45.3038 40.6957 45.6749 40.6429 46.085 40.6429C46.5772 40.6429 47.0147 40.725 47.3975 40.889C47.7803 41.0531 48.0811 41.2992 48.2999 41.6273C48.5225 41.9554 48.6339 42.3656 48.6339 42.8578V45.5707C48.6339 45.9183 48.6553 46.2035 48.6983 46.4261C48.7413 46.6449 48.8038 46.8363 48.8858 47.0004V47.1H47.1807C47.0987 46.9281 47.0362 46.7133 46.9932 46.4554C46.9542 46.1937 46.9346 45.932 46.9346 45.6703ZM47.1573 43.2386L47.169 44.1937H46.2256C46.003 44.1937 45.8096 44.2191 45.6456 44.2699C45.4815 44.3207 45.3467 44.3929 45.2413 44.4867C45.1358 44.5765 45.0577 44.682 45.0069 44.8031C44.96 44.9242 44.9366 45.057 44.9366 45.2015C44.9366 45.3461 44.9698 45.4769 45.0362 45.5941C45.1026 45.7074 45.1983 45.7972 45.3233 45.8636C45.4483 45.9261 45.5948 45.9574 45.7628 45.9574C46.0167 45.9574 46.2374 45.9066 46.4249 45.8051C46.6124 45.7035 46.7569 45.5785 46.8585 45.4301C46.9639 45.2816 47.0186 45.141 47.0225 45.0082L47.4678 45.723C47.4053 45.8832 47.3194 46.0492 47.21 46.2211C47.1046 46.3929 46.9698 46.5551 46.8057 46.7074C46.6417 46.8558 46.4444 46.9789 46.2139 47.0765C45.9835 47.1703 45.71 47.2172 45.3936 47.2172C44.9913 47.2172 44.626 47.1371 44.2979 46.9769C43.9737 46.8129 43.7159 46.5883 43.5245 46.3031C43.337 46.014 43.2432 45.6859 43.2432 45.3187C43.2432 44.9867 43.3057 44.6918 43.4307 44.434C43.5557 44.1761 43.7393 43.9594 43.9815 43.7836C44.2276 43.6039 44.5342 43.4691 44.9014 43.3793C45.2686 43.2855 45.6944 43.2386 46.1788 43.2386H47.1573ZM54.7042 38.1V47.1H53.0108V38.1H54.7042ZM55.8292 43.9945V43.8715C55.8292 43.4066 55.8956 42.9789 56.0284 42.5883C56.1612 42.1937 56.3546 41.8519 56.6085 41.5629C56.8624 41.2738 57.1749 41.0492 57.546 40.889C57.9171 40.725 58.3428 40.6429 58.8233 40.6429C59.3038 40.6429 59.7315 40.725 60.1065 40.889C60.4815 41.0492 60.796 41.2738 61.0499 41.5629C61.3077 41.8519 61.503 42.1937 61.6358 42.5883C61.7686 42.9789 61.835 43.4066 61.835 43.8715V43.9945C61.835 44.4554 61.7686 44.8832 61.6358 45.2777C61.503 45.6683 61.3077 46.0101 61.0499 46.3031C60.796 46.5922 60.4835 46.8168 60.1124 46.9769C59.7413 47.1371 59.3155 47.2172 58.835 47.2172C58.3546 47.2172 57.9268 47.1371 57.5518 46.9769C57.1807 46.8168 56.8663 46.5922 56.6085 46.3031C56.3546 46.0101 56.1612 45.6683 56.0284 45.2777C55.8956 44.8832 55.8292 44.4554 55.8292 43.9945ZM57.5167 43.8715V43.9945C57.5167 44.2601 57.5401 44.5082 57.587 44.7386C57.6339 44.9691 57.7081 45.1722 57.8096 45.348C57.9151 45.5199 58.0518 45.6547 58.2198 45.7523C58.3878 45.85 58.5928 45.8988 58.835 45.8988C59.0694 45.8988 59.2706 45.85 59.4385 45.7523C59.6065 45.6547 59.7413 45.5199 59.8428 45.348C59.9444 45.1722 60.0186 44.9691 60.0655 44.7386C60.1163 44.5082 60.1417 44.2601 60.1417 43.9945V43.8715C60.1417 43.6136 60.1163 43.3715 60.0655 43.1449C60.0186 42.9144 59.9424 42.7113 59.837 42.5355C59.7354 42.3558 59.6006 42.2152 59.4327 42.1136C59.2647 42.0121 59.0616 41.9613 58.8233 41.9613C58.585 41.9613 58.3819 42.0121 58.2139 42.1136C58.0499 42.2152 57.9151 42.3558 57.8096 42.5355C57.7081 42.7113 57.6339 42.9144 57.587 43.1449C57.5401 43.3715 57.5167 43.6136 57.5167 43.8715ZM62.9659 40.7601H64.6592V47.4808C64.6592 47.9496 64.5733 48.3461 64.4014 48.6703C64.2296 48.9945 63.9815 49.2406 63.6573 49.4086C63.3331 49.5765 62.9405 49.6605 62.4796 49.6605C62.335 49.6605 62.1944 49.6527 62.0577 49.6371C61.9171 49.6215 61.7725 49.5961 61.6241 49.5609L61.6299 48.266C61.7237 48.2816 61.8155 48.2933 61.9053 48.3011C61.9913 48.3129 62.0792 48.3187 62.169 48.3187C62.3448 48.3187 62.4913 48.2894 62.6085 48.2308C62.7256 48.1722 62.8135 48.0804 62.8721 47.9554C62.9346 47.8344 62.9659 47.6761 62.9659 47.4808V40.7601ZM62.8311 39.1078C62.8311 38.8617 62.9171 38.6586 63.0889 38.4984C63.2647 38.3383 63.4952 38.2582 63.7803 38.2582C64.0694 38.2582 64.2999 38.3383 64.4717 38.4984C64.6436 38.6586 64.7296 38.8617 64.7296 39.1078C64.7296 39.3539 64.6436 39.557 64.4717 39.7172C64.2999 39.8773 64.0694 39.9574 63.7803 39.9574C63.4952 39.9574 63.2647 39.8773 63.0889 39.7172C62.9171 39.557 62.8311 39.3539 62.8311 39.1078ZM69.4229 45.6703V42.8461C69.4229 42.6429 69.3897 42.4691 69.3233 42.3246C69.2569 42.1761 69.1534 42.0609 69.0128 41.9789C68.876 41.8969 68.6983 41.8558 68.4796 41.8558C68.2921 41.8558 68.1299 41.889 67.9932 41.9554C67.8565 42.0179 67.751 42.1097 67.6768 42.2308C67.6026 42.348 67.5655 42.4867 67.5655 42.6469H65.878C65.878 42.3773 65.9405 42.1215 66.0655 41.8793C66.1905 41.6371 66.3721 41.4242 66.6104 41.2406C66.8487 41.0531 67.1319 40.9066 67.46 40.8011C67.7921 40.6957 68.1631 40.6429 68.5733 40.6429C69.0655 40.6429 69.503 40.725 69.8858 40.889C70.2686 41.0531 70.5694 41.2992 70.7881 41.6273C71.0108 41.9554 71.1221 42.3656 71.1221 42.8578V45.5707C71.1221 45.9183 71.1436 46.2035 71.1866 46.4261C71.2296 46.6449 71.2921 46.8363 71.3741 47.0004V47.1H69.669C69.587 46.9281 69.5245 46.7133 69.4815 46.4554C69.4424 46.1937 69.4229 45.932 69.4229 45.6703ZM69.6456 43.2386L69.6573 44.1937H68.7139C68.4913 44.1937 68.2979 44.2191 68.1339 44.2699C67.9698 44.3207 67.835 44.3929 67.7296 44.4867C67.6241 44.5765 67.546 44.682 67.4952 44.8031C67.4483 44.9242 67.4249 45.057 67.4249 45.2015C67.4249 45.3461 67.4581 45.4769 67.5245 45.5941C67.5909 45.7074 67.6866 45.7972 67.8116 45.8636C67.9366 45.9261 68.0831 45.9574 68.251 45.9574C68.5049 45.9574 68.7256 45.9066 68.9131 45.8051C69.1006 45.7035 69.2452 45.5785 69.3467 45.4301C69.4522 45.2816 69.5069 45.141 69.5108 45.0082L69.9561 45.723C69.8936 45.8832 69.8077 46.0492 69.6983 46.2211C69.5928 46.3929 69.4581 46.5551 69.294 46.7074C69.1299 46.8558 68.9327 46.9789 68.7022 47.0765C68.4717 47.1703 68.1983 47.2172 67.8819 47.2172C67.4796 47.2172 67.1143 47.1371 66.7862 46.9769C66.462 46.8129 66.2042 46.5883 66.0128 46.3031C65.8253 46.014 65.7315 45.6859 65.7315 45.3187C65.7315 44.9867 65.794 44.6918 65.919 44.434C66.044 44.1761 66.2276 43.9594 66.4698 43.7836C66.7159 43.6039 67.0225 43.4691 67.3897 43.3793C67.7569 43.2855 68.1827 43.2386 68.6671 43.2386H69.6456Z" fill="#00100D"/>
<defs>
<clipPath id="clip0_221_1139">
<rect width="32" height="32" fill="white" transform="translate(20.4737 0.0999756)"/>
</clipPath>
</defs>
</svg>
