<svg width="98" height="32" viewBox="0 0 98 32" fill="none" xmlns="http://www.w3.org/2000/svg">
<path d="M19.0876 14.2787C18.9596 14.3539 18.7563 14.3464 18.6283 14.2711L17.8866 13.8309C17.8264 13.7933 17.7699 13.7331 17.7285 13.6616C17.7247 13.6578 17.7247 13.6541 17.721 13.6503C17.672 13.5713 17.6457 13.4923 17.6419 13.417L17.6231 12.5517C17.6193 12.4049 17.7134 12.2281 17.8452 12.1529L26.7829 6.94932L14.2423 0.112873C14.103 0.0376231 13.9223 0 13.7416 0C13.5608 0 13.3764 0.0376231 13.2371 0.112873L0.696489 6.94557L14.7468 15.1177C14.8785 15.1892 14.9764 15.3585 14.9764 15.509V27.4323C14.9764 27.5828 14.871 27.7559 14.7392 27.8236L13.9825 28.245C13.9185 28.2789 13.8394 28.2977 13.7566 28.2977C13.7529 28.2977 13.7453 28.2977 13.7416 28.2977C13.6512 28.3015 13.5646 28.2827 13.5006 28.245L12.7439 27.8236C12.6159 27.7559 12.5105 27.5828 12.5105 27.4323V16.8033C12.5029 16.7243 12.4465 16.6302 12.3825 16.5963L0 9.39495V23.5005C0 23.8166 0.222123 24.2041 0.496955 24.3659L13.2446 31.8796C13.3801 31.9586 13.5608 32 13.7416 32C13.9223 32 14.0992 31.9624 14.2347 31.8796L26.9824 24.3659C27.2535 24.2041 27.4756 23.8166 27.4756 23.5005V9.39495L19.0876 14.2787Z" fill="url(#paint0_linear_666_95)"/>
<path d="M97.9582 12.7596C97.9733 12.7558 97.9884 12.7558 97.9997 12.7521C97.9997 16.1876 97.9997 19.6231 97.9997 23.0586L97.9846 23.0623H97.9695C97.8753 22.9681 97.9055 22.8476 97.9055 22.7384C97.9017 21.0771 97.9055 19.4159 97.9055 17.7546C97.9055 16.1951 97.9055 14.6356 97.9055 13.076C97.9055 12.9668 97.8829 12.8576 97.9582 12.7596Z" fill="#414042"/>
<path d="M97.9583 12.7596C97.9621 12.8387 97.9658 12.9178 97.9658 12.9932C97.9658 16.1989 97.9658 19.4046 97.9658 22.6103C97.9658 22.761 97.9696 22.9117 97.9734 23.0623C97.9658 23.8195 97.849 24.5616 97.604 25.2811C97.2836 26.2341 96.7446 27.029 95.9115 27.6091C95.3085 28.0272 94.6338 28.2759 93.9138 28.4115C93.2165 28.5433 92.5154 28.5621 91.8068 28.5433C90.7664 28.5132 89.7412 28.4002 88.7197 28.2043C88.6217 28.1854 88.5916 28.1515 88.5916 28.0536C88.5953 27.2098 88.5953 26.366 88.5953 25.5222C88.5953 25.5109 88.5991 25.4996 88.6066 25.477C88.6632 25.4657 88.7197 25.4883 88.7725 25.4996C89.9259 25.7859 91.0981 25.9102 92.2855 25.8838C92.7416 25.8725 93.1826 25.7934 93.601 25.6013C94.2644 25.2924 94.6451 24.7726 94.7845 24.0606C94.8184 23.876 94.8298 23.6914 94.8298 23.5031C94.8298 20.7117 94.8298 17.9204 94.8298 15.1328C94.8298 14.9257 94.8486 14.9633 94.6677 14.888C94.3247 14.7448 93.9628 14.6808 93.5972 14.6544C93.0544 14.6168 92.5116 14.6092 91.9802 14.7411C90.9587 14.9935 90.2614 15.6188 89.9184 16.6057C89.598 17.5249 89.6394 18.4516 90.0164 19.3443C90.4385 20.3463 91.2451 20.8888 92.2892 21.111C92.6624 21.1902 93.0431 21.1977 93.4238 21.1864C93.5595 21.1826 93.5633 21.1826 93.5633 21.322C93.5633 22.1432 93.5633 22.9606 93.5633 23.7818C93.5633 23.9099 93.5595 23.9174 93.4389 23.925C92.1008 24.0229 90.8004 23.8835 89.5867 23.2658C88.2297 22.5802 87.3288 21.4953 86.8841 20.0488C86.4921 18.7642 86.4129 17.4533 86.7069 16.1386C87.1328 14.2438 88.2975 12.9781 90.103 12.2888C90.7664 12.0364 91.4562 11.8932 92.1649 11.848C94.1513 11.7199 96.0887 12.0401 97.9583 12.7596Z" fill="#414042"/>
<path d="M63.658 6.85266C63.522 6.85134 63.5335 6.85792 63.5335 7.0491V7.15836V11.9839C63.5335 12.0554 63.5486 12.127 63.5109 12.2061C63.1114 12.0366 62.693 11.9575 62.2633 11.9085C61.3096 11.8068 60.3598 11.8445 59.4325 12.1082C57.4876 12.6619 56.1683 13.8899 55.5539 15.8262C55.1468 17.1145 55.1279 18.4254 55.4483 19.7326C55.8253 21.2733 56.7186 22.4259 58.1245 23.1756C59.1046 23.6992 60.1638 23.9403 61.2644 23.993C62.7194 24.0646 64.1668 23.9478 65.6029 23.7029C65.9233 23.6464 66.2399 23.5749 66.5565 23.4996C66.6432 23.4807 66.6809 23.4393 66.6696 23.3526C66.6658 23.3225 66.6696 23.2924 66.6696 23.2622V7.06418C66.6696 7.01898 66.6658 6.97753 66.6696 6.93609C66.6734 6.87205 66.6432 6.84948 66.5829 6.85324C66.5452 6.85701 66.5113 6.85324 66.4736 6.85324H63.7257C63.6998 6.85324 63.6774 6.85284 63.658 6.85266ZM61.7208 14.6226C62.2648 14.6244 62.8037 14.7239 63.3338 14.9146C63.575 15.0012 63.5297 14.9824 63.5297 15.1934C63.5335 16.1615 63.5335 17.1296 63.5335 18.1015V20.9757C63.5335 21.0134 63.5297 21.0472 63.5335 21.0849C63.5448 21.179 63.4996 21.2092 63.4129 21.2243C63.1227 21.2733 62.8287 21.2996 62.5309 21.3185C61.909 21.3524 61.2908 21.3335 60.6877 21.149C59.4325 20.7647 58.7126 19.9134 58.4902 18.6326C58.3734 17.9658 58.396 17.2991 58.6033 16.6474C58.9425 15.6002 59.6662 14.956 60.7367 14.7262C61.0661 14.6556 61.3943 14.6215 61.7208 14.6226Z" fill="#414042"/>
<path d="M47.9864 11.8884C47.4759 11.893 46.967 11.9262 46.4582 11.9912C45.5649 12.1042 44.698 12.3302 43.8649 12.6767C43.7594 12.7182 43.7217 12.7671 43.7217 12.8839C43.7254 13.7051 43.7254 14.5226 43.7254 15.3438C43.7254 15.3852 43.7104 15.4266 43.7519 15.468C43.831 15.4379 43.9102 15.4115 43.9855 15.3776C45.188 14.8728 46.4318 14.5678 47.7398 14.5565C48.1016 14.5527 48.4635 14.5376 48.8216 14.6016C49.3003 14.6845 49.7224 14.8729 50.0504 15.2383C50.4198 15.6451 50.5856 16.1424 50.6836 16.6811C50.5969 16.715 50.5329 16.7036 50.4612 16.7036C49.4435 16.7074 48.422 16.7036 47.4043 16.7112C46.7447 16.7149 46.0926 16.8054 45.4669 17.0238C44.664 17.3064 43.9855 17.7584 43.5596 18.5156C43.0206 19.4799 42.9264 20.5045 43.2731 21.5517C43.5445 22.3767 44.1137 22.9757 44.8525 23.4126C45.7194 23.9249 46.6693 24.1321 47.6644 24.1886C48.0262 24.2075 48.3881 24.2 48.75 24.1962C49.583 24.1887 50.4122 24.1397 51.2377 24.0304C52.0443 23.925 52.8396 23.7479 53.6236 23.5331C53.8573 23.4691 53.8272 23.5257 53.8272 23.277V18.3762C53.8272 17.9053 53.8235 17.4344 53.782 16.9673C53.7179 16.3006 53.601 15.6451 53.3711 15.0123C52.8698 13.6373 51.9426 12.6918 50.5404 12.2284C49.877 12.01 49.1909 11.9158 48.4974 11.8932C48.3268 11.8885 48.1565 11.8868 47.9864 11.8884ZM47.9052 19.2259C48.271 19.2254 48.6378 19.2275 49.0025 19.2275C49.0062 19.2313 49.0062 19.2313 49.0062 19.2275H50.5781C50.7138 19.2275 50.7175 19.2313 50.7175 19.3669V21.337C50.7175 21.548 50.7175 21.548 50.5064 21.5706C49.8544 21.6459 49.1985 21.6761 48.5389 21.6422C48.1356 21.6233 47.736 21.5744 47.344 21.4651C47.065 21.386 46.7975 21.2805 46.5638 21.0959C46.3037 20.8925 46.1491 20.6288 46.134 20.2935C46.1152 19.8867 46.2886 19.5891 46.6617 19.4083C46.9407 19.2765 47.2385 19.2313 47.54 19.2275C47.6616 19.2266 47.7833 19.2261 47.9052 19.2259Z" fill="#414042"/>
<path d="M79.3417 11.8971C78.8329 11.9046 78.2675 11.9573 77.7172 12.1005C75.8514 12.5977 74.5057 13.7128 73.7783 15.5134C73.2505 16.8205 73.1789 18.1766 73.5106 19.5403C73.9856 21.5066 75.1729 22.8854 77.0726 23.6011C78.5615 24.1624 80.0843 24.1661 81.5882 23.6425C83.3296 23.036 84.5208 21.8494 85.1239 20.1053C85.5988 18.7379 85.6063 17.3442 85.1804 15.9654C84.7092 14.4436 83.7519 13.3059 82.3308 12.5752C81.4111 12.1043 80.4273 11.9084 79.3417 11.8971ZM79.3551 14.6141C79.4644 14.6132 79.5745 14.6179 79.6847 14.6282C80.7477 14.7261 81.7654 15.3966 82.1461 16.7942C82.1913 16.9637 82.2252 17.1332 82.2516 17.3065C82.2818 17.5212 82.3044 17.7435 82.3006 17.8678C82.2931 18.5948 82.1989 19.2012 81.9049 19.7663C81.3508 20.8399 80.4536 21.3371 79.255 21.3032C77.9961 21.2656 77.0764 20.4933 76.7107 19.3971C76.3564 18.3349 76.3677 17.2763 76.8238 16.2441C77.3055 15.1551 78.2979 14.623 79.3551 14.6141Z" fill="#414042"/>
<path d="M34.2725 25.4243C34.623 25.526 34.9509 25.6013 35.2864 25.6465C35.8179 25.7143 36.3531 25.7671 36.8921 25.703C37.2879 25.654 37.6573 25.5335 37.9588 25.2623C38.2604 24.9911 38.4074 24.6445 38.479 24.2527C38.5092 24.0757 38.5167 23.8949 38.5167 23.714C38.5167 19.9697 38.5167 16.229 38.5167 12.4847C38.5167 12.2172 38.4828 12.2549 38.7466 12.2549C39.6513 12.2549 40.5559 12.2549 41.4605 12.2549C41.502 12.2549 41.5435 12.2586 41.5887 12.2549C41.6603 12.2511 41.6867 12.285 41.6829 12.3528C41.6791 12.3942 41.6829 12.4357 41.6829 12.4809C41.6829 16.278 41.6829 20.0751 41.6829 23.8723C41.6829 24.5352 41.6301 25.1945 41.4379 25.8386C41.0534 27.1081 40.2016 27.9029 38.9426 28.2759C38.4564 28.419 37.9551 28.4943 37.45 28.532C36.4474 28.6036 35.4523 28.517 34.4572 28.3776C34.4458 28.3776 34.4345 28.3738 34.4232 28.37C34.2838 28.3437 34.28 28.3437 34.28 28.2005C34.28 27.4095 34.28 26.6222 34.28 25.8311C34.2725 25.6992 34.2725 25.5749 34.2725 25.4243Z" fill="#414042"/>
<path d="M71.9125 15.3742C71.9125 18.1354 71.9125 20.8928 71.9125 23.654C71.9125 23.8914 71.9577 23.8763 71.6939 23.8763C70.7893 23.8763 69.8846 23.8763 68.98 23.8763C68.9423 23.8763 68.9084 23.8763 68.8707 23.8763C68.8066 23.8801 68.784 23.8462 68.7878 23.7859C68.7878 23.7482 68.7878 23.7143 68.7878 23.6766C68.7878 18.1316 68.7878 12.5904 68.7878 7.0454C68.7878 7.02657 68.7878 7.00773 68.7878 6.99267C68.7915 6.85705 68.7915 6.85329 68.9272 6.85329C69.862 6.85329 70.7968 6.85329 71.7316 6.85329C71.9389 6.85329 71.9125 6.83822 71.9125 7.03787C71.9125 9.65216 71.9125 12.2702 71.9125 14.8845C71.9125 15.0502 71.9125 15.2122 71.9125 15.3742Z" fill="#414042"/>
<path d="M41.6753 9.19993C41.6564 10.0739 40.9554 10.7595 40.096 10.7444C39.2064 10.7293 38.5279 10.0211 38.5468 9.13213C38.5656 8.27325 39.2818 7.5952 40.1525 7.61403C41.0044 7.63663 41.6941 8.34859 41.6753 9.19993Z" fill="#414042"/>
<defs>
<linearGradient id="paint0_linear_666_95" x1="13.871" y1="40.8831" x2="27.7756" y2="29.2086" gradientUnits="userSpaceOnUse">
<stop stop-color="#C00D3E"/>
<stop offset="0.2974" stop-color="#CF133C"/>
<stop offset="0.7324" stop-color="#E01837"/>
<stop offset="1" stop-color="#E71A34"/>
</linearGradient>
</defs>
</svg>
