<svg width="109" height="27" viewBox="0 0 109 27" fill="none" xmlns="http://www.w3.org/2000/svg">
<rect width="108" height="26" transform="translate(0.973694 0.0999756)" fill="#00407E"/>
<mask id="mask0_221_1128" style="mask-type:luminance" maskUnits="userSpaceOnUse" x="4" y="4" width="22" height="19">
<path d="M4.97369 4.09998H25.2622V22.1H4.97369V4.09998Z" fill="white"/>
</mask>
<g mask="url(#mask0_221_1128)">
<path fill-rule="evenodd" clip-rule="evenodd" d="M19.1672 11.7287C18.6535 11.5476 17.949 11.3147 17.111 11.0564C14.9477 10.3323 13.8646 9.73725 13.8646 9.24606C13.8646 8.90924 14.0554 8.64961 14.4062 8.39139C14.7848 8.21035 15.2456 8.08124 15.8122 8.08124C16.6531 8.08124 17.3003 8.23701 17.7597 8.49524C18.2205 8.78013 18.517 9.19413 18.5992 9.78917H25.0362C24.9834 9.24606 24.8469 8.7282 24.6576 8.26227C24.2525 7.25323 23.4952 6.39996 22.3857 5.72773C20.8182 4.79588 18.6535 4.30469 15.9208 4.30469C13.2159 4.30469 11.0805 4.77062 9.56297 5.67581C8.04838 6.581 7.29108 7.82301 7.29108 9.42569C7.29108 10.5905 7.75045 11.521 8.67065 12.3237C9.56297 13.0984 11.2962 13.9278 13.7839 14.8049C14.0554 14.8849 14.3783 15.014 14.8391 15.1431C16.6238 15.7382 17.5161 16.3066 17.5161 16.8497C17.5161 17.2903 17.3003 17.6524 16.8953 17.8573C16.5151 18.1183 15.9208 18.2208 15.1635 18.2208C14.164 18.2208 13.3509 18.0384 12.8094 17.7043C12.2414 17.3675 11.9728 16.9283 11.9728 16.3066V16.256H5.28923C5.28923 18.0917 6.15513 19.5147 7.83264 20.5224C9.53656 21.5581 11.9171 22.0759 14.9741 22.0759C17.8947 22.0759 20.1681 21.5847 21.7913 20.6529C23.416 19.6958 24.1997 18.3499 24.1997 16.6434C24.1997 15.5824 23.8196 14.6239 23.0094 13.8239C22.1964 13.0226 20.8975 12.3237 19.1672 11.7287Z" fill="#FFDC00"/>
</g>
<path fill-rule="evenodd" clip-rule="evenodd" d="M32.3142 14.8586H41.1068L41.8905 11.0821H33.0451L33.5044 8.7805H43.4594L44.2431 4.74292H27.5811L24.6575 19.7733L24.3083 21.6356H41.6469L42.4056 17.5237H31.8548L32.3142 14.8586Z" fill="#FFDC00"/>
<path fill-rule="evenodd" clip-rule="evenodd" d="M104.974 4.74292H97.2363L94.235 8.5728C94.0721 8.7805 93.9635 8.9868 93.9107 9.16784C93.8285 9.34888 93.8021 9.58184 93.8021 9.81481C93.8021 9.55658 93.7742 9.32362 93.7478 9.11591C93.6935 8.90961 93.6392 8.70191 93.5585 8.52087L91.5566 4.74292H84.4415L89.7162 12.79L82.494 20.7824L81.7088 21.6356H89.6634L92.8819 17.3918C92.9905 17.2388 93.0712 17.083 93.127 16.8767C93.2062 16.669 93.2605 16.4627 93.287 16.1778C93.287 16.4627 93.3148 16.6957 93.3691 16.902C93.3956 17.1097 93.5042 17.2907 93.5849 17.4451L96.0461 21.6356H103.513L97.3185 12.9444L104.974 4.74292Z" fill="#FFDC00"/>
<path fill-rule="evenodd" clip-rule="evenodd" d="M64.1823 12.3241C64.1823 11.3403 64.0444 10.4618 63.7479 9.60851C63.7479 9.55658 63.72 9.52992 63.72 9.47799C63.3693 8.62472 62.9363 7.87531 62.3405 7.28027C61.4481 6.34841 60.3929 5.67618 59.2306 5.3141C58.0403 4.95203 56.3628 4.74292 54.2259 4.74292H45.6506L43.3508 16.902L42.4306 21.6356H52.3855C52.8478 21.6356 53.2778 21.6356 53.7108 21.6104C56.8765 21.4293 59.3656 20.6266 61.1502 19.2302C62.4212 18.2478 63.2886 16.9806 63.7479 15.4537C64.0444 14.5232 64.1823 13.4622 64.1823 12.3241ZM56.8236 14.832C56.4978 15.6347 56.0649 16.2045 55.5776 16.5918C55.1447 16.902 54.6589 17.1097 54.0909 17.2388C53.9823 17.2641 53.8487 17.2907 53.7108 17.316C53.1707 17.3918 52.4941 17.4451 51.6282 17.4451H50.0608L51.6282 8.85769H53.1971C53.3864 8.85769 53.5494 8.85769 53.7108 8.88295C54.9553 8.93487 55.8491 9.1945 56.4171 9.63377C57.0394 10.1769 57.3358 11.0821 57.3358 12.3493C57.3358 13.2293 57.1744 14.0825 56.8236 14.832Z" fill="#FFDC00"/>
<path fill-rule="evenodd" clip-rule="evenodd" d="M71.3224 14.8586H80.1135L80.9002 11.0821H72.0518L72.5655 8.7805H82.4676L82.494 8.70191L83.2807 4.74292H66.6142L63.748 19.3846L63.315 21.6356H80.6815L81.4388 17.5237H70.8895L71.3224 14.8586Z" fill="#FFDC00"/>
</svg>
