<svg xmlns="http://www.w3.org/2000/svg" width="584" height="355" fill="none"><g clip-path="url(#a)"><path fill="#F2F2F2" d="M365.713 343.243c4.03-2.264 9.204-2.348 13.31-.219 4.105 2.128 7.016 6.402 7.487 11.004-8.497.009-16.868-1.977-20.797-10.785ZM375.615 334.535c5.688 1.859 12.275.681 16.953-3.054 4.678-3.727 7.302-9.886 6.756-15.842-10.795 2.12-20.924 6.73-23.709 18.896Z"/><path fill="#F2F2F2" d="M338.622 348.913c-.008-.017.177-.084.53-.21.396-.135.909-.312 1.548-.522a266.567 266.567 0 0 0 5.705-1.91c4.795-1.657 11.383-4.063 18.483-7.159a199.5 199.5 0 0 0 9.869-4.653c2.978-1.539 5.62-3.012 7.782-4.333 2.145-1.354 3.853-2.49 4.939-3.398 1.11-.875 1.657-1.448 1.691-1.406.008.009-.118.152-.387.421-.269.261-.64.673-1.203 1.119-1.069.951-2.76 2.137-4.888 3.525-2.154 1.363-4.779 2.869-7.757 4.426a175.968 175.968 0 0 1-9.877 4.694 215.62 215.62 0 0 1-18.56 7.05 140.84 140.84 0 0 1-5.746 1.776c-.648.185-1.17.328-1.573.445-.354.11-.547.152-.556.135Z"/><path fill="#F2F2F2" d="M376.625 348.188c-.042.059-1.027-.622-2.726-1.539a33.528 33.528 0 0 0-6.958-2.794 33.228 33.228 0 0 0-7.412-1.135c-1.927-.076-3.121.017-3.13-.068 0-.033.295-.075.833-.134.539-.068 1.33-.11 2.297-.11 1.944-.008 4.644.244 7.521 1.027 2.869.791 5.326 1.952 6.992 2.944.833.497 1.489.934 1.926 1.262.446.329.673.522.657.547ZM176.197 310.363c-2.044 5.46-1.169 11.922 2.272 16.633 3.441 4.711 9.322 7.521 15.144 7.227-1.607-10.592-5.688-20.654-17.416-23.86Z"/><path fill="#F2F2F2" d="M174.54 305.164c.067-.017.362 1.161.968 3.004a45.02 45.02 0 0 0 2.986 6.966 45.168 45.168 0 0 0 4.148 6.343c1.203 1.532 2.019 2.423 1.96 2.474-.025.017-.244-.185-.639-.564-.396-.378-.934-.967-1.565-1.708-1.27-1.489-2.877-3.693-4.291-6.335-1.413-2.642-2.355-5.199-2.894-7.084a26.482 26.482 0 0 1-.555-2.254c-.109-.539-.152-.833-.118-.842ZM8.069 98.066c-3.172 8.456-1.81 18.467 3.516 25.762 5.326 7.294 14.446 11.643 23.465 11.197-2.5-16.405-8.809-31.978-26.981-36.959Z"/><path fill="#F2F2F2" d="M5.494 90.024c.025-.009.168.437.396 1.253.218.816.563 1.986 1.026 3.424a67.092 67.092 0 0 0 4.602 10.82c2.179 4.055 4.585 7.471 6.47 9.826a72.522 72.522 0 0 0 2.28 2.751c.555.64.85 1.001.824 1.027-.025.017-.362-.303-.95-.909-.598-.597-1.422-1.506-2.398-2.667-1.952-2.322-4.417-5.729-6.613-9.81-2.187-4.088-3.66-8.034-4.51-10.937-.429-1.455-.731-2.642-.9-3.474-.168-.842-.252-1.304-.227-1.304ZM36.497 265.52c-4.543 3.659-7.067 9.666-6.503 15.471.563 5.805 4.198 11.215 9.363 13.933 3.988-9.936 5.604-20.663-2.86-29.404Z"/><path fill="#F2F2F2" d="M37.708 260.203c.068.026-.277 1.178-.69 3.08a45.144 45.144 0 0 0-.975 7.512 44.65 44.65 0 0 0 .345 7.572c.252 1.927.504 3.113.429 3.13-.026.008-.118-.278-.261-.808a26.843 26.843 0 0 1-.48-2.271c-.336-1.927-.597-4.644-.47-7.639.125-2.995.613-5.679 1.11-7.572.244-.951.48-1.708.664-2.221.185-.505.303-.791.328-.783ZM192.628 52.787c5.217 2.6 11.737 2.381 16.776-.555 5.04-2.936 8.439-8.506 8.742-14.328-10.702.522-21.117 3.542-25.518 14.883Z"/><path fill="#F2F2F2" d="M187.286 53.907c-.008-.076 1.186-.236 3.088-.656a44.758 44.758 0 0 0 7.235-2.255 45.339 45.339 0 0 0 6.739-3.475c1.649-1.035 2.617-1.758 2.659-1.7.016.026-.202.228-.631.581-.421.354-1.052.825-1.86 1.38-1.615 1.11-3.971 2.482-6.739 3.626-2.776 1.136-5.409 1.817-7.344 2.154-.968.168-1.75.278-2.297.32-.539.042-.841.058-.85.025ZM170.822 51.263c7.513-1.615 14.058-7.193 16.835-14.361 2.776-7.168 1.699-15.7-2.768-21.959-10.601 9.33-18.863 21.008-14.067 36.32Z"/><path fill="#F2F2F2" d="M166.237 56.798c-.026-.025.235-.328.706-.867.48-.53 1.161-1.32 1.969-2.313a58.131 58.131 0 0 0 5.628-8.27 57.845 57.845 0 0 0 4.072-9.146c.421-1.211.732-2.204.934-2.894.211-.69.337-1.068.362-1.06.025.009-.042.396-.202 1.102-.151.707-.421 1.717-.799 2.945-.757 2.465-2.07 5.805-3.98 9.254-1.926 3.45-4.072 6.319-5.771 8.262a37.606 37.606 0 0 1-2.087 2.238c-.513.505-.816.774-.832.749ZM239.835 339.465c1.59 3.13 4.812 5.368 8.304 5.763 3.491.395 7.134-1.077 9.372-3.778-5.351-3.592-11.476-5.88-17.676-1.985Z"/><path fill="#F2F2F2" d="M236.857 338.084c.067-.126 2.599 1.346 6.057 2.221 3.45.9 6.377.824 6.377.959 0 .05-.723.143-1.909.109-1.187-.025-2.819-.202-4.577-.648a21.8 21.8 0 0 1-4.325-1.623c-1.051-.547-1.649-.968-1.623-1.018ZM317.825 37.398c2.162 2.768 5.763 4.341 9.263 4.047 3.5-.286 6.79-2.432 8.464-5.52-5.948-2.481-12.393-3.55-17.727 1.473Z"/><path fill="#F2F2F2" d="M314.637 36.624c.042-.134 2.81.825 6.368 1.01 3.559.218 6.42-.43 6.445-.286.008.05-.682.277-1.851.48-1.169.201-2.81.344-4.619.243a21.15 21.15 0 0 1-4.56-.757c-1.136-.336-1.8-.64-1.783-.69ZM519.943 63.277c5.62 1.548 11.972.093 16.356-3.752 4.374-3.845 6.646-9.961 5.838-15.724-10.407 2.549-20.048 7.513-22.194 19.476Z"/><path fill="#F2F2F2" d="M514.913 65.397c-.026-.068 1.118-.463 2.902-1.237a45.155 45.155 0 0 0 6.663-3.6 45.035 45.035 0 0 0 5.948-4.704c1.414-1.33 2.23-2.22 2.28-2.179.026.017-.159.261-.504.69-.345.43-.875 1.018-1.565 1.716a37.014 37.014 0 0 1-5.923 4.846c-2.507 1.64-4.964 2.819-6.79 3.517-.917.353-1.665.606-2.187.757-.522.152-.816.219-.824.194ZM539.849 319.703c9.877-2.28 18.4-9.776 21.916-19.291 3.517-9.507 1.927-20.747-4.097-28.908-13.798 12.527-24.449 28.108-17.819 48.199Z"/><path fill="#F2F2F2" d="M533.909 327.106c-.025-.017.311-.429.934-1.144a76.091 76.091 0 0 0 2.566-3.079c1.06-1.321 2.255-2.945 3.517-4.796a80.374 80.374 0 0 0 3.76-6.234 80.537 80.537 0 0 0 3.113-6.579 73.7 73.7 0 0 0 2.053-5.578 80.05 80.05 0 0 0 1.153-3.845c.252-.917.403-1.422.429-1.413.025.008-.068.521-.27 1.455-.193.934-.538 2.263-1.017 3.895-.48 1.633-1.145 3.551-1.978 5.646a71.304 71.304 0 0 1-3.104 6.629 72.82 72.82 0 0 1-3.811 6.251c-1.287 1.851-2.516 3.466-3.61 4.762-1.093 1.304-2.01 2.33-2.683 3.004-.648.681-1.027 1.043-1.052 1.026Z"/><path fill="#00B307" d="M425.64 213.628c-5.317-29.657-30.775-55.552-60.802-58.001-16.363-1.329-32.811 3.828-49.108 1.86-13.671-1.649-26.652-8.498-35.739-18.846-13.444-15.312-18.021-37.094-32.264-51.674-19.637-20.09-53.912-20.41-77.797-5.628-23.893 14.782-38.339 41.46-44.952 68.761l-.26 8.304c-1.439 28.318 6.007 61.239 22.446 86.479 16.65 25.576 27.595 36.134 57.933 54.526 25.761 15.615 76.207 22.48 106.326 23.203 30.119.724 61.054-8.253 83.711-28.117 22.64-19.855 35.823-51.211 30.506-80.867Z"/><path fill="#fff" d="M425.64 213.628c-5.317-29.657-30.775-55.552-60.802-58.001-16.363-1.329-32.811 3.828-49.108 1.86-13.671-1.649-26.652-8.498-35.739-18.846-13.444-15.312-18.021-37.094-32.264-51.674-19.637-20.09-53.912-20.41-77.797-5.628-23.893 14.782-38.339 41.46-44.952 68.761l-.26 8.304c-1.439 28.318 6.007 61.239 22.446 86.479 16.65 25.576 27.595 36.134 57.933 54.526 25.761 15.615 76.207 22.48 106.326 23.203 30.119.724 61.054-8.253 83.711-28.117 22.64-19.855 35.823-51.211 30.506-80.867Z" opacity=".8"/><path fill="#00B307" d="M455.129 319.5c1.151-7.932-4.346-15.295-12.277-16.446-7.932-1.151-15.295 4.346-16.446 12.278-1.151 7.931 4.346 15.294 12.278 16.445 7.931 1.151 15.294-4.346 16.445-12.277Z"/><path fill="#fff" d="M455.129 319.5c1.151-7.932-4.346-15.295-12.277-16.446-7.932-1.151-15.295 4.346-16.446 12.278-1.151 7.931 4.346 15.294 12.278 16.445 7.931 1.151 15.294-4.346 16.445-12.277Z" opacity=".8"/><path fill="#00B307" d="M338.934 205.762c.277 28.967-6.041 51.11-18.947 66.439-12.914 15.329-30.59 23.094-53.028 23.305-22.547.218-40.467-7.21-53.769-22.287-13.301-15.068-20.09-37.085-20.376-66.06l-.488-50.95c-.278-28.866 6.04-51.009 18.946-66.44 12.906-15.42 30.633-23.245 53.18-23.464 22.438-.218 40.316 7.261 53.617 22.438 13.301 15.178 20.099 37.195 20.377 66.061l.488 50.958Zm-37.717-56.301c-.176-18.239-3.365-31.717-9.565-40.417-6.201-8.707-15.169-12.998-26.897-12.889-11.728.11-20.587 4.577-26.569 13.403-5.982 8.825-8.893 22.353-8.716 40.593l.597 61.904c.177 18.35 3.391 31.895 9.65 40.653 6.251 8.758 15.245 13.074 26.981 12.965 11.728-.11 20.562-4.577 26.493-13.403 5.932-8.825 8.809-22.454 8.632-40.905l-.606-61.904Z"/><path fill="#1A1A1A" d="M338.934 205.762c.277 28.967-6.041 51.11-18.947 66.439-12.914 15.329-30.59 23.094-53.028 23.305-22.547.218-40.467-7.21-53.769-22.287-13.301-15.068-20.09-37.085-20.376-66.06l-.488-50.95c-.278-28.866 6.04-51.009 18.946-66.44 12.906-15.42 30.633-23.245 53.18-23.464 22.438-.218 40.316 7.261 53.617 22.438 13.301 15.178 20.099 37.195 20.377 66.061l.488 50.958Zm-37.717-56.301c-.176-18.239-3.365-31.717-9.565-40.417-6.201-8.707-15.169-12.998-26.897-12.889-11.728.11-20.587 4.577-26.569 13.403-5.982 8.825-8.893 22.353-8.716 40.593l.597 61.904c.177 18.35 3.391 31.895 9.65 40.653 6.251 8.758 15.245 13.074 26.981 12.965 11.728-.11 20.562-4.577 26.493-13.403 5.932-8.825 8.809-22.454 8.632-40.905l-.606-61.904Z" opacity=".4"/><path fill="#00B307" d="M360.354 205.561c.277 28.967-6.041 51.11-18.947 66.439-12.914 15.329-30.59 23.094-53.028 23.305-22.547.218-40.467-7.211-53.769-22.287-13.301-15.068-20.09-37.085-20.376-66.06l-.488-50.95c-.278-28.866 6.04-51.01 18.946-66.44 12.906-15.42 30.632-23.245 53.18-23.464 22.438-.219 40.316 7.26 53.617 22.438 13.301 15.178 20.099 37.195 20.377 66.061l.488 50.958Zm-37.717-56.301c-.176-18.24-3.365-31.718-9.565-40.417-6.201-8.707-15.169-12.998-26.897-12.889-11.728.11-20.587 4.577-26.569 13.402-5.982 8.826-8.893 22.354-8.716 40.594l.597 61.904c.177 18.349 3.391 31.895 9.65 40.653 6.251 8.758 15.245 13.074 26.981 12.964 11.728-.109 20.562-4.576 26.493-13.402 5.931-8.825 8.809-22.455 8.632-40.905l-.606-61.904Z"/><path fill="#00B307" d="M213.906 159.045c.042.109-4.931 2.086-11.106 4.408-6.183 2.322-11.223 4.114-11.265 3.996-.042-.109 4.93-2.086 11.114-4.408 6.175-2.322 11.215-4.114 11.257-3.996ZM215.142 179.177c.042.11-4.93 2.087-11.105 4.409-6.184 2.322-11.223 4.114-11.265 3.996-.042-.109 4.93-2.086 11.114-4.408 6.166-2.322 11.214-4.114 11.256-3.997ZM216.379 199.31c.042.11-4.93 2.087-11.105 4.409-6.184 2.322-11.223 4.114-11.265 3.996-.043-.109 4.93-2.087 11.113-4.409 6.167-2.322 11.215-4.114 11.257-3.996ZM217.616 219.443c.042.109-4.93 2.086-11.105 4.409-6.184 2.322-11.224 4.114-11.266 3.996-.042-.11 4.93-2.087 11.114-4.409 6.167-2.322 11.215-4.114 11.257-3.996ZM218.852 239.576c.009.025-.26.16-.774.378-.504.219-1.245.522-2.153.884a406.257 406.257 0 0 1-7.177 2.768 315.912 315.912 0 0 1-7.227 2.641c-.925.328-1.682.589-2.204.758-.522.168-.816.252-.833.218-.008-.025.261-.16.774-.378a84.042 84.042 0 0 1 2.154-.884 405.748 405.748 0 0 1 7.176-2.768c2.81-1.06 5.368-1.994 7.219-2.641a87.743 87.743 0 0 1 2.204-.758c.53-.168.825-.252.841-.218ZM224.599 257.993c.025.059-.951.48-2.549 1.119-1.591.64-3.803 1.498-6.26 2.423a286.843 286.843 0 0 1-6.301 2.297c-1.624.564-2.634.892-2.659.833-.025-.059.951-.48 2.549-1.119 1.59-.639 3.803-1.498 6.26-2.423a260.628 260.628 0 0 1 6.301-2.297c1.624-.572 2.642-.892 2.659-.833ZM236.907 274.887c.026.058-.841.437-2.263 1.018-1.413.572-3.39 1.337-5.569 2.162a253.664 253.664 0 0 1-5.62 2.044c-1.447.505-2.348.783-2.373.724-.025-.059.841-.438 2.263-1.018a286.733 286.733 0 0 1 5.57-2.163 251.82 251.82 0 0 1 5.62-2.044c1.447-.496 2.347-.782 2.372-.723ZM257.36 285.965c.025.059-.841.437-2.263 1.018-1.422.58-3.391 1.338-5.57 2.162-2.187.824-4.173 1.54-5.62 2.044-1.447.505-2.347.783-2.372.724-.026-.059.841-.438 2.263-1.018a278.356 278.356 0 0 1 11.189-4.207c1.447-.504 2.348-.782 2.373-.723ZM319.045 242.999c.05.11-6.335 3.088-14.26 6.655-7.926 3.567-14.395 6.36-14.446 6.251-.05-.109 6.335-3.088 14.261-6.655 7.933-3.559 14.394-6.36 14.445-6.251ZM323.235 225.754c.05.109-5.225 2.591-11.77 5.536-6.554 2.944-11.905 5.241-11.955 5.132-.051-.11 5.224-2.592 11.778-5.536 6.546-2.945 11.896-5.242 11.947-5.132ZM325.162 206.377c.05.11-5.225 2.592-11.77 5.536-6.554 2.945-11.905 5.242-11.956 5.132-.05-.109 5.225-2.591 11.779-5.536 6.545-2.944 11.896-5.249 11.947-5.132ZM327.088 186.994c.051.109-5.224 2.591-11.77 5.536-6.554 2.944-11.904 5.241-11.955 5.132-.05-.109 5.225-2.591 11.779-5.536 6.545-2.945 11.896-5.241 11.946-5.132ZM329.023 167.619c.051.109-5.224 2.591-11.77 5.536-6.554 2.944-11.904 5.241-11.955 5.132-.05-.109 5.225-2.591 11.779-5.536 6.537-2.945 11.896-5.241 11.946-5.132ZM325.162 150.363c.05.109-5.225 2.591-11.77 5.536-6.554 2.945-11.905 5.241-11.956 5.132-.05-.109 5.225-2.591 11.779-5.536 6.545-2.944 11.896-5.241 11.947-5.132ZM325.162 131.787c.05.109-5.225 2.591-11.77 5.536-6.554 2.944-11.905 5.241-11.956 5.132-.05-.11 5.225-2.591 11.779-5.536 6.545-2.945 11.896-5.241 11.947-5.132ZM323.235 114.295c.05.109-5.225 2.591-11.77 5.536-6.554 2.944-11.905 5.241-11.955 5.132-.051-.11 5.224-2.592 11.778-5.536 6.546-2.945 11.896-5.242 11.947-5.132ZM306.619 102.104c.05.109-3.138 1.649-7.126 3.441-3.988 1.792-7.261 3.155-7.303 3.045-.05-.109 3.138-1.649 7.126-3.441 3.979-1.792 7.252-3.155 7.303-3.045ZM297.734 94.643c.051.11-3.138 1.649-7.126 3.44-3.987 1.793-7.26 3.156-7.302 3.046-.051-.109 3.138-1.648 7.126-3.44 3.979-1.793 7.252-3.155 7.302-3.046ZM214.856 134.638c.042.109-4.93 2.086-11.105 4.408-6.184 2.322-11.223 4.114-11.265 3.996-.042-.117 4.93-2.086 11.113-4.408 6.176-2.322 11.215-4.106 11.257-3.996ZM221.048 109.534c.042.11-5.35 2.247-12.047 4.762-6.697 2.516-12.157 4.468-12.199 4.35-.043-.11 5.35-2.246 12.047-4.762 6.697-2.516 12.157-4.467 12.199-4.35ZM237.227 84.681c.042.11-6.798 2.785-15.278 5.974-8.481 3.188-15.388 5.678-15.43 5.56-.042-.109 6.798-2.784 15.278-5.973 8.472-3.18 15.388-5.67 15.43-5.56Z"/><path fill="#fff" d="M356.728 243.277c0 .009-.127-.034-.354-.118-.244-.092-.58-.227-1.009-.395-.446-.168-1.027-.286-1.7-.48-.69-.092-1.48-.286-2.381-.286-3.592-.235-8.977 1.077-14.184 4.973-2.642 1.884-5.107 4.467-7.513 7.428-2.415 2.953-4.779 6.293-7.463 9.667-2.684 3.357-5.771 6.764-9.692 9.398-3.895 2.641-8.497 4.551-13.41 5.435-4.922.908-9.894.647-14.463-.48-4.585-1.102-8.766-2.903-12.67-4.703-3.904-1.809-7.555-3.66-11.055-5.174-3.491-1.548-6.873-2.667-10.028-3.416-3.164-.723-6.091-1.035-8.666-1.001a26.45 26.45 0 0 0-6.52.883c-1.733.53-3.037 1.086-3.879 1.523-.412.219-.723.387-.959.505-.218.109-.328.168-.336.16 0-.009.101-.076.311-.202.227-.135.547-.311.942-.547.833-.471 2.137-1.052 3.87-1.607a25.986 25.986 0 0 1 6.563-.967c2.591-.059 5.552.235 8.741.942 3.18.732 6.596 1.842 10.104 3.382 3.525 1.506 7.177 3.348 11.08 5.14 3.904 1.784 8.06 3.568 12.603 4.653 4.518 1.11 9.423 1.363 14.286.471 4.854-.875 9.397-2.759 13.251-5.359 3.878-2.591 6.941-5.957 9.624-9.297 2.684-3.348 5.057-6.68 7.497-9.641 2.431-2.962 4.938-5.561 7.613-7.446 5.275-3.904 10.744-5.182 14.37-4.896.917.016 1.708.218 2.406.328.673.202 1.254.345 1.7.521.429.185.757.328 1.001.438.21.109.328.168.32.168ZM362.037 187.128c.008.042-.598.126-1.633.471-1.034.353-2.473 1.035-4.063 2.171-1.607 1.119-3.349 2.683-5.393 4.299a39.15 39.15 0 0 1-7.227 4.45c-5.452 2.625-10.929 3.643-14.858 3.837-.984.084-1.876.05-2.658.067-.783-.034-1.456-.042-2.011-.084l-1.262-.126c-.286-.034-.437-.059-.437-.076s.151-.017.446-.017c.336.009.757.025 1.262.042.572 0 1.236.009 2.002.017.774-.042 1.666-.034 2.642-.135 3.895-.269 9.296-1.329 14.697-3.929a40.19 40.19 0 0 0 7.168-4.374c2.045-1.59 3.82-3.138 5.469-4.241 1.632-1.119 3.121-1.775 4.19-2.086.538-.143.95-.236 1.245-.269.261-.026.412-.034.421-.017ZM252.135 206.621c0 .016-.16-.009-.463-.068-.294-.067-.749-.134-1.304-.294a20.035 20.035 0 0 1-4.509-1.977c-1.801-1.052-3.786-2.55-5.89-4.299-2.111-1.742-4.366-3.744-6.949-5.528-2.591-1.775-5.334-3.045-7.984-3.66a24.146 24.146 0 0 0-7.16-.681 23.935 23.935 0 0 0-4.812.732c-1.119.286-1.725.505-1.741.463-.009-.017.143-.076.429-.194.286-.109.706-.278 1.262-.437a22.262 22.262 0 0 1 4.837-.884 23.855 23.855 0 0 1 7.278.598c2.7.605 5.51 1.892 8.135 3.693 2.617 1.809 4.871 3.828 6.966 5.578 2.087 1.767 4.03 3.281 5.789 4.349a21.897 21.897 0 0 0 4.4 2.079c1.102.336 1.724.487 1.716.53ZM252.286 127.091c.009.025-.488.21-1.405.513a17.14 17.14 0 0 1-1.682.496c-.665.169-1.414.387-2.255.539-.841.176-1.767.361-2.776.488-1.002.168-2.078.244-3.214.345a48.792 48.792 0 0 1-7.404-.093 49.396 49.396 0 0 1-7.294-1.296c-1.094-.311-2.145-.589-3.096-.942a33.485 33.485 0 0 1-2.633-.993c-.808-.302-1.498-.664-2.121-.95a19.642 19.642 0 0 1-1.556-.8c-.841-.471-1.296-.74-1.279-.765.017-.025.497.193 1.363.614.429.219.951.471 1.582.732.622.269 1.321.606 2.128.892.8.311 1.675.648 2.634.934.95.336 1.994.597 3.079.891 2.196.539 4.644.993 7.235 1.246 2.6.235 5.082.235 7.337.126 1.127-.093 2.195-.152 3.188-.303 1.001-.109 1.918-.278 2.76-.429.849-.135 1.59-.328 2.254-.48.665-.134 1.229-.294 1.691-.42.934-.244 1.456-.371 1.464-.345ZM357.258 126.881c-.009.008-.135-.051-.362-.168a71.2 71.2 0 0 1-.976-.564 15.524 15.524 0 0 0-1.565-.85c-.622-.303-1.312-.698-2.128-1.001-.404-.168-.825-.345-1.262-.522-.438-.176-.917-.311-1.405-.479-.959-.354-2.036-.598-3.147-.892a38.086 38.086 0 0 0-7.429-.875c-2.658-.008-5.182.295-7.445.74-1.119.27-2.196.497-3.164.833-.488.16-.967.286-1.413.455-.437.176-.867.345-1.27.504-.825.295-1.515.673-2.146.968-.631.286-1.152.572-1.573.824-.387.219-.715.396-.984.547-.227.118-.354.177-.362.169-.008-.009.101-.093.311-.244.261-.169.572-.371.951-.623.412-.269.925-.589 1.548-.9.622-.312 1.312-.715 2.137-1.035.412-.168.833-.345 1.279-.53.446-.185.925-.32 1.421-.488.976-.362 2.062-.597 3.189-.883a36.788 36.788 0 0 1 7.53-.783c2.692.042 5.241.404 7.513.917 1.127.303 2.204.564 3.172.934.488.177.967.32 1.405.513.437.194.858.379 1.262.556.816.328 1.506.748 2.12 1.068.622.32 1.127.639 1.531.925.37.253.681.463.934.64.235.143.336.227.328.244ZM305.82 69.731c.008.017-.202.135-.606.362a245.638 245.638 0 0 1-8.422 4.392c-5.636 2.784-13.562 6.595-22.934 8.968-4.686 1.153-9.271 1.775-13.453 1.868-4.181.092-7.95-.286-11.046-.951-3.096-.656-5.528-1.49-7.151-2.188-.825-.32-1.422-.656-1.851-.84-.421-.203-.631-.32-.623-.329.009-.017.236.076.665.252.437.169 1.043.48 1.876.766 1.632.648 4.063 1.43 7.143 2.036 3.079.623 6.823.968 10.979.85 4.148-.118 8.699-.74 13.352-1.893 9.313-2.356 17.23-6.108 22.9-8.826 2.793-1.38 5.073-2.498 6.697-3.298.766-.37 1.372-.673 1.826-.891.421-.194.648-.286.648-.278Z"/><path fill="#00B307" d="m136.934 216.32 28.125 1.228-1.304 29.808-28.125-1.228-2.163 49.528-36.992-1.615 2.162-49.528-95.54-4.173.075-22.699 101.8-146.221 38.213 1.666-6.251 143.234Zm-96.76-4.223 59.767 2.608 3.946-90.341-.901-.345-3.34 6.436-59.472 81.642Z"/><path fill="#1A1A1A" d="m136.934 216.32 28.125 1.228-1.304 29.808-28.125-1.228-2.163 49.528-36.992-1.615 2.162-49.528-95.54-4.173.075-22.699 101.8-146.221 38.213 1.666-6.251 143.234Zm-96.76-4.223 59.767 2.608 3.946-90.341-.901-.345-3.34 6.436-59.472 81.642Z" opacity=".4"/><path fill="#00B307" d="m160.456 217.347 28.126 1.229-1.304 29.808-28.126-1.229-2.162 49.529-36.992-1.616 2.162-49.528-95.54-4.173.075-22.699 101.8-146.22 38.212 1.665-6.251 143.234Zm-96.768-4.223 59.767 2.608 3.946-90.341-.9-.345-3.34 6.437-59.473 81.641Z"/><path fill="#00B307" d="M27.167 222.984c.008.025-.312.21-.909.513-.597.303-1.472.723-2.557 1.237a251.548 251.548 0 0 1-8.557 3.794 252.559 252.559 0 0 1-8.69 3.491c-1.12.421-2.028.758-2.668.976-.63.219-.992.328-1 .295-.01-.025.319-.194.942-.455.698-.294 1.573-.664 2.616-1.102 2.297-.959 5.3-2.212 8.632-3.609 3.315-1.413 6.31-2.701 8.598-3.676l2.608-1.103c.623-.26.976-.387.985-.361ZM40.863 197.793c.017.025-.437.261-1.27.673-.833.404-2.036.968-3.534 1.657-2.995 1.372-7.168 3.197-11.803 5.158-4.636 1.96-8.851 3.676-11.922 4.871a157.533 157.533 0 0 1-3.651 1.38c-.867.311-1.355.471-1.363.437-.008-.025.454-.244 1.304-.597.917-.387 2.128-.892 3.592-1.515 3.105-1.304 7.261-3.054 11.863-4.989 4.594-1.951 8.75-3.718 11.846-5.031 1.464-.622 2.675-1.135 3.592-1.522.858-.371 1.33-.556 1.346-.522ZM57.58 175.323c.009.025-.462.269-1.329.673-.866.403-2.128.976-3.693 1.657-3.13 1.371-7.488 3.197-12.317 5.157a512.967 512.967 0 0 1-12.435 4.872 173.583 173.583 0 0 1-3.803 1.379c-.9.312-1.404.471-1.421.438-.009-.025.47-.244 1.363-.598.95-.387 2.22-.891 3.752-1.514 3.23-1.304 7.58-3.054 12.384-4.989l12.359-5.031 3.744-1.523c.883-.362 1.38-.547 1.397-.521ZM124.541 201.269c.008.025-.311.202-.917.496-.598.295-1.473.699-2.566 1.187-2.171.984-5.2 2.288-8.573 3.659a256.025 256.025 0 0 1-8.7 3.34 83.899 83.899 0 0 1-2.666.926c-.631.21-.993.311-1.002.277-.008-.025.328-.185.943-.437.698-.286 1.581-.639 2.616-1.06 2.305-.917 5.317-2.129 8.649-3.458 3.323-1.363 6.327-2.591 8.615-3.533 1.043-.421 1.918-.774 2.616-1.06.623-.244.968-.362.985-.337ZM121.815 247.492c.009.025-.303.202-.883.496-.581.294-1.431.698-2.482 1.186-2.103.985-5.04 2.289-8.312 3.652a239.573 239.573 0 0 1-8.439 3.34c-1.085.403-1.977.723-2.591.933-.614.211-.96.312-.976.287-.008-.026.311-.186.909-.438.681-.286 1.531-.639 2.54-1.06 2.238-.925 5.158-2.129 8.388-3.458 3.214-1.363 6.125-2.591 8.355-3.533 1.001-.421 1.851-.774 2.54-1.06.606-.253.943-.371.951-.345ZM121.428 263.695c.008.025-.303.202-.884.496-.58.295-1.43.698-2.481 1.186-2.104.985-5.04 2.289-8.313 3.652a238.857 238.857 0 0 1-8.438 3.34c-1.085.404-1.977.723-2.591.934-.615.21-.96.311-.976.286-.017-.025.311-.185.908-.438.682-.286 1.532-.639 2.541-1.06 2.238-.925 5.157-2.128 8.388-3.458 3.214-1.363 6.125-2.591 8.354-3.533 1.002-.421 1.851-.774 2.541-1.06.598-.253.942-.379.951-.345ZM121.041 279.89c.009.025-.303.202-.883.496-.581.295-1.43.699-2.482 1.187-2.103.984-5.04 2.288-8.312 3.651a239.573 239.573 0 0 1-8.439 3.34c-1.085.404-1.977.724-2.591.934-.614.21-.96.311-.976.286-.008-.025.311-.185.909-.438.681-.286 1.53-.639 2.54-1.06 2.238-.925 5.158-2.128 8.388-3.457 3.214-1.363 6.125-2.592 8.355-3.534 1.001-.421 1.851-.774 2.54-1.06.598-.252.934-.37.951-.345ZM124.978 184.156c.009.025-.311.202-.917.496-.597.295-1.472.698-2.566 1.186-2.17.985-5.199 2.289-8.573 3.66a257.412 257.412 0 0 1-8.699 3.34 84.678 84.678 0 0 1-2.667.926c-.631.21-.993.311-1.001.277-.009-.033.328-.185.942-.437.698-.286 1.582-.64 2.617-1.06 2.305-.917 5.317-2.129 8.648-3.458 3.324-1.363 6.327-2.591 8.615-3.534 1.044-.42 1.919-.774 2.617-1.06.623-.244.967-.362.984-.336ZM125.416 167.044c.008.026-.311.202-.917.497-.598.294-1.473.698-2.566 1.186-2.171.984-5.2 2.288-8.573 3.66a258.18 258.18 0 0 1-8.7 3.34 84.285 84.285 0 0 1-2.666.925c-.631.211-.993.312-1.002.278-.008-.025.328-.185.943-.438.698-.286 1.581-.639 2.616-1.06 2.305-.917 5.317-2.128 8.649-3.457 3.323-1.363 6.327-2.592 8.615-3.534 1.043-.421 1.918-.774 2.616-1.06.623-.244.968-.362.985-.337ZM125.853 149.931c.009.026-.294.194-.866.472-.572.277-1.405.664-2.44 1.135-2.07.934-4.947 2.188-8.161 3.492a220.844 220.844 0 0 1-8.295 3.172 103.89 103.89 0 0 1-2.541.883c-.606.194-.942.294-.951.261-.008-.025.312-.177.892-.421.673-.269 1.506-.614 2.49-1.009 2.205-.875 5.065-2.028 8.237-3.29 3.155-1.296 6.015-2.473 8.203-3.374.984-.395 1.817-.74 2.49-1.009.597-.227.925-.345.942-.312ZM127.788 133.938c.042.11-1.842.917-4.215 1.801-2.372.875-4.324 1.497-4.366 1.388-.042-.11 1.842-.917 4.215-1.801 2.364-.883 4.324-1.506 4.366-1.388ZM74.264 152.034c.008.025-.463.269-1.33.673-.866.404-2.128.976-3.693 1.657-3.13 1.371-7.488 3.197-12.317 5.157a512.967 512.967 0 0 1-12.435 4.872 173.583 173.583 0 0 1-3.802 1.379c-.9.312-1.405.472-1.422.438-.009-.025.47-.244 1.363-.597.95-.387 2.22-.892 3.752-1.515 3.23-1.304 7.58-3.054 12.384-4.989l12.36-5.031 3.743-1.523c.892-.37 1.388-.547 1.397-.521ZM90.956 128.739c.008.025-.463.269-1.33.673-.866.403-2.128.976-3.693 1.657-3.13 1.371-7.488 3.197-12.317 5.157a512.967 512.967 0 0 1-12.435 4.872 173.583 173.583 0 0 1-3.802 1.379c-.9.312-1.405.471-1.422.438-.009-.025.47-.244 1.363-.598.95-.387 2.22-.891 3.752-1.514 3.23-1.304 7.58-3.054 12.384-4.989l12.359-5.031 3.744-1.523c.883-.362 1.38-.547 1.397-.521ZM106.377 105.449c.008.025-.463.269-1.329.673-.867.404-2.129.976-3.694 1.658-3.13 1.371-7.487 3.197-12.317 5.157a516.566 516.566 0 0 1-12.434 4.871 169.405 169.405 0 0 1-3.803 1.38c-.9.311-1.405.471-1.422.437-.008-.025.471-.244 1.363-.597.95-.387 2.221-.892 3.752-1.514 3.23-1.304 7.58-3.054 12.385-4.989l12.358-5.031 3.744-1.523c.892-.37 1.388-.555 1.397-.522ZM122.429 83.053c.009.025-.463.27-1.329.673-.867.404-2.129.976-3.694 1.657-3.129 1.372-7.487 3.198-12.316 5.158-4.838 1.96-9.238 3.676-12.435 4.871a173.84 173.84 0 0 1-3.803 1.38c-.9.311-1.405.47-1.422.437-.008-.025.471-.244 1.363-.597.95-.387 2.221-.892 3.752-1.514 3.231-1.304 7.581-3.054 12.385-4.99l12.359-5.03 3.744-1.523c.883-.362 1.379-.547 1.396-.522Z"/><path fill="#fff" d="M165.016 117.272c.009.009-.159.202-.487.555-.329.354-.817.875-1.523 1.473-1.372 1.22-3.534 2.835-6.537 4.223-2.995 1.38-6.857 2.465-11.24 2.566a26.338 26.338 0 0 1-6.807-.765c-2.322-.547-4.61-1.49-6.882-2.566-4.526-2.205-8.547-4.804-12.476-6.613-3.904-1.851-7.757-2.768-11.013-2.878-3.273-.117-5.873.623-7.513 1.405-.816.404-1.439.758-1.826 1.044-.395.269-.614.404-.622.395-.009-.008.185-.168.572-.463.37-.311.984-.69 1.8-1.127 1.641-.841 4.282-1.641 7.597-1.565 3.307.076 7.219.968 11.181 2.819 3.971 1.808 8.01 4.4 12.494 6.587 2.246 1.069 4.509 2.002 6.789 2.549 2.272.564 4.535.808 6.697.774 4.316-.075 8.144-1.11 11.114-2.44a27.83 27.83 0 0 0 6.554-4.063c.715-.572 1.22-1.077 1.573-1.405.354-.345.547-.513.555-.505ZM153.305 75.676c.017.025-.37.244-1.068.623-.698.378-1.742.875-3.054 1.43-1.312.564-2.911 1.136-4.711 1.683a52.304 52.304 0 0 1-5.974 1.371 51.61 51.61 0 0 1-6.099.597c-1.885.05-3.584.017-4.998-.1-1.422-.11-2.566-.245-3.348-.388-.783-.134-1.212-.218-1.212-.252.009-.034.446 0 1.229.084.79.093 1.935.177 3.34.244 1.413.076 3.096.084 4.963.009 1.868-.101 3.913-.286 6.041-.631a56 56 0 0 0 5.931-1.33c1.792-.521 3.391-1.06 4.703-1.581a54.205 54.205 0 0 0 3.096-1.296c.741-.32 1.145-.488 1.161-.463ZM93.572 169.112c-.025.017-.286-.286-.757-.849a528.393 528.393 0 0 0-1.994-2.365c-1.7-1.977-4.131-4.652-7.042-7.361-1.456-1.355-2.936-2.532-4.417-3.399-1.472-.867-2.936-1.388-4.207-1.632-2.557-.505-4.164.076-4.173-.025 0-.017.093-.051.278-.11.185-.059.463-.126.825-.193.723-.126 1.808-.194 3.12.025 1.305.21 2.828.715 4.35 1.59 1.523.858 3.046 2.061 4.51 3.424a75.504 75.504 0 0 1 6.983 7.488 55.242 55.242 0 0 1 1.893 2.465c.437.581.656.925.63.942ZM160.684 194.53c.008.017-.101.101-.328.252-.227.152-.547.387-1.001.64-.884.538-2.213 1.228-3.946 1.876-3.424 1.312-8.657 2.263-14.244 1.127-5.577-1.144-10.02-4.08-12.653-6.629-1.338-1.279-2.288-2.432-2.894-3.273-.311-.412-.513-.757-.665-.984-.143-.228-.218-.354-.202-.362.034-.025.362.437 1.002 1.237a28.32 28.32 0 0 0 2.961 3.154c2.659 2.466 7.05 5.309 12.527 6.428 5.477 1.119 10.634.236 14.05-.984a27.536 27.536 0 0 0 3.963-1.733c.917-.488 1.405-.774 1.43-.749ZM185.192 247.802s-.093-.126-.244-.387c-.16-.277-.379-.664-.665-1.161-.539-1.051-1.523-2.49-2.877-4.265-.362-.429-.741-.875-1.145-1.355-.201-.235-.403-.479-.614-.723-.235-.227-.471-.463-.715-.699l-1.514-1.489c-.564-.471-1.161-.959-1.767-1.472a39.79 39.79 0 0 0-9.238-5.494c-3.676-1.539-7.967-2.692-12.661-2.936-4.687-.269-9.743.454-14.665 2.356-4.921 1.935-9.675 4.862-14.706 7.689-2.515 1.414-5.124 2.793-7.9 3.912-2.768 1.128-5.721 1.994-8.792 2.306-3.07.353-6.141.067-9.077-.547-2.937-.623-5.721-1.658-8.355-2.852-5.283-2.406-9.91-5.578-14.227-8.649-4.324-3.071-8.396-6.032-12.46-8.405-4.054-2.364-8.084-4.181-11.971-5.115-3.887-.925-7.547-1.077-10.693-.707-3.155.345-5.78 1.245-7.774 2.247-2.02.984-3.323 2.153-4.232 2.902-.404.404-.724.724-.942.951-.22.21-.337.311-.337.311s.093-.118.303-.345c.219-.235.522-.563.917-.984.892-.774 2.187-1.977 4.215-2.987 1.994-1.035 4.636-1.969 7.816-2.339 3.172-.404 6.865-.269 10.794.648 3.929.926 8 2.734 12.081 5.099 4.097 2.372 8.186 5.333 12.51 8.387 4.325 3.054 8.935 6.209 14.177 8.59 2.616 1.178 5.368 2.213 8.27 2.819 2.894.605 5.915.883 8.935.538 3.02-.311 5.931-1.161 8.674-2.28 2.751-1.11 5.342-2.482 7.858-3.887 5.022-2.81 9.793-5.737 14.765-7.689 1.253-.463 2.482-.917 3.752-1.212.631-.16 1.245-.353 1.876-.479.631-.101 1.262-.211 1.885-.312 2.49-.412 4.955-.437 7.319-.336 4.737.269 9.061 1.447 12.755 3.02 3.702 1.582 6.781 3.593 9.271 5.586.614.514 1.203 1.01 1.767 1.49.521.521 1.026 1.034 1.514 1.514l.707.707.614.74c.395.48.774.934 1.136 1.371 1.338 1.801 2.297 3.265 2.818 4.333.269.513.48.9.631 1.186.152.261.211.404.211.404ZM159.767 282.944c0 .017-.143.051-.429.11-.337.067-.741.143-1.245.235-.539.11-1.203.219-1.977.286-.774.076-1.658.211-2.642.227-.497.026-1.01.043-1.54.068-.538.017-1.094-.009-1.674-.017-1.161.008-2.389-.109-3.685-.21a50.815 50.815 0 0 1-8.304-1.616 51.205 51.205 0 0 1-7.875-3.096c-1.152-.614-2.254-1.169-3.222-1.8-.488-.311-.976-.581-1.422-.884-.437-.302-.858-.605-1.262-.883-.816-.547-1.497-1.127-2.103-1.615a18.646 18.646 0 0 1-1.514-1.304c-.37-.345-.673-.631-.917-.867-.211-.202-.312-.311-.303-.32.008-.008.134.076.362.261.26.219.58.48.976.808.412.362.925.791 1.556 1.245.623.463 1.304 1.026 2.128 1.548.404.278.833.555 1.271.858.446.295.934.564 1.422.858.976.614 2.069 1.153 3.214 1.75 2.322 1.119 4.955 2.196 7.815 3.037a52.615 52.615 0 0 0 8.22 1.633c1.287.109 2.507.244 3.651.252.572.008 1.128.05 1.658.042.53-.017 1.043-.025 1.531-.042.976 0 1.859-.109 2.633-.16.774-.05 1.439-.134 1.977-.21.505-.059.917-.118 1.254-.16.286-.042.437-.051.446-.034Z"/><path fill="#00B307" d="m502.284 216.665 28.016-2.743 2.903 29.69-28.016 2.743 4.829 49.335-36.85 3.601-4.829-49.335-95.178 9.305-3.121-22.48 80.219-159.085 38.07-3.727 13.957 142.696Zm-96.398 9.431 59.54-5.822-8.8-89.996-.942-.21-2.406 6.848-47.392 89.18Z"/><path fill="#1A1A1A" d="m502.284 216.665 28.016-2.743 2.903 29.69-28.016 2.743 4.829 49.335-36.85 3.601-4.829-49.335-95.178 9.305-3.121-22.48 80.219-159.085 38.07-3.727 13.957 142.696Zm-96.398 9.431 59.54-5.822-8.8-89.996-.942-.21-2.406 6.848-47.392 89.18Z" opacity=".4"/><path fill="#00B307" d="m525.715 214.377 28.016-2.743 2.902 29.69-28.015 2.743 4.829 49.335-36.85 3.601-4.829-49.335-95.178 9.305-3.122-22.48 80.22-159.085 38.07-3.719 13.957 142.688Zm-96.39 9.423 59.54-5.822-8.8-89.996-.942-.219-2.406 6.849-47.392 89.188Z"/><path fill="#00B307" d="M394.545 238.708c.017.025-.277.252-.833.631a86.88 86.88 0 0 1-2.355 1.581 256.103 256.103 0 0 1-7.934 4.964 247.34 247.34 0 0 1-8.11 4.678 86.107 86.107 0 0 1-2.499 1.337c-.597.303-.934.463-.951.438-.016-.025.295-.236.867-.581.648-.387 1.464-.875 2.431-1.455a3485.93 3485.93 0 0 0 8.035-4.787c3.079-1.868 5.872-3.559 8.001-4.846.967-.581 1.775-1.069 2.431-1.464.581-.353.909-.522.917-.496ZM404.557 211.836c.017.025-.396.328-1.161.841-.766.513-1.876 1.245-3.264 2.137a499.17 499.17 0 0 1-10.954 6.764 527.355 527.355 0 0 1-11.114 6.504 189.322 189.322 0 0 1-3.416 1.884c-.816.429-1.27.656-1.287.631-.017-.025.412-.303 1.203-.774l3.348-2.002c2.886-1.725 6.765-4.047 11.047-6.605 4.274-2.574 8.135-4.913 11.021-6.646 1.363-.824 2.49-1.498 3.34-2.019.774-.488 1.22-.741 1.237-.715ZM417.951 187.244c.017.025-.421.328-1.22.85-.799.521-1.969 1.262-3.424 2.162-2.911 1.792-6.966 4.215-11.467 6.84-4.51 2.616-8.624 4.938-11.627 6.57a176.883 176.883 0 0 1-3.576 1.902c-.85.437-1.329.664-1.346.639-.017-.025.437-.303 1.262-.782.892-.513 2.07-1.195 3.5-2.028 3.02-1.741 7.075-4.089 11.56-6.68 4.475-2.608 8.522-4.964 11.534-6.722 1.43-.833 2.608-1.523 3.491-2.036.833-.488 1.296-.74 1.313-.715ZM487.898 203.514c.017.025-.286.244-.833.614-.555.371-1.363.901-2.372 1.54a262.118 262.118 0 0 1-7.976 4.829 260.024 260.024 0 0 1-8.144 4.535c-1.051.555-1.91 1.001-2.507 1.295-.597.295-.934.446-.951.421-.016-.025.295-.227.867-.572.656-.379 1.472-.858 2.44-1.413 2.145-1.237 4.964-2.852 8.076-4.644 3.096-1.818 5.898-3.458 8.035-4.712.968-.564 1.784-1.035 2.44-1.422.58-.328.908-.496.925-.471ZM491.701 249.653c.017.025-.269.244-.808.614-.53.37-1.312.892-2.288 1.523-1.943 1.27-4.669 2.97-7.715 4.787a241.035 241.035 0 0 1-7.883 4.501 96.12 96.12 0 0 1-2.431 1.287c-.581.295-.909.446-.926.412-.017-.025.286-.227.841-.563.64-.379 1.431-.85 2.365-1.405 2.086-1.229 4.803-2.827 7.815-4.602 2.995-1.801 5.696-3.424 7.774-4.67l2.364-1.405c.556-.336.875-.504.892-.479ZM493.594 265.747c.017.025-.269.244-.808.614-.53.37-1.312.892-2.288 1.523-1.943 1.27-4.669 2.969-7.715 4.787a241.035 241.035 0 0 1-7.883 4.501 99.542 99.542 0 0 1-2.431 1.287c-.581.294-.909.446-.926.412-.017-.033.286-.227.841-.564.64-.378 1.431-.849 2.365-1.405 2.086-1.228 4.803-2.826 7.815-4.602 2.995-1.8 5.696-3.424 7.774-4.669l2.364-1.405c.556-.336.875-.505.892-.479ZM495.487 281.84c.016.026-.27.244-.808.615-.53.37-1.312.891-2.288 1.522-1.944 1.271-4.67 2.97-7.715 4.787a238.405 238.405 0 0 1-7.883 4.501 94.783 94.783 0 0 1-2.432 1.288c-.58.294-.908.446-.925.412-.017-.025.286-.227.841-.564.639-.378 1.43-.85 2.364-1.405 2.087-1.228 4.804-2.827 7.816-4.602 2.995-1.8 5.696-3.424 7.774-4.669.934-.555 1.724-1.026 2.364-1.405.555-.337.875-.505.892-.48ZM485.921 186.502c.017.026-.286.244-.833.615-.555.37-1.363.9-2.373 1.539a263.152 263.152 0 0 1-7.975 4.829 261.173 261.173 0 0 1-8.144 4.535c-1.052.555-1.91 1.001-2.507 1.296-.598.294-.934.446-.951.42-.017-.025.294-.227.866-.572.657-.378 1.473-.858 2.44-1.413 2.146-1.237 4.964-2.852 8.077-4.644 3.096-1.818 5.898-3.458 8.035-4.712.967-.563 1.783-1.034 2.439-1.421.581-.32.909-.497.926-.472ZM483.944 169.501c.017.025-.286.244-.833.614-.555.37-1.363.9-2.373 1.539a263.152 263.152 0 0 1-7.975 4.829 261.173 261.173 0 0 1-8.144 4.535c-1.052.555-1.91 1.001-2.508 1.296-.597.294-.933.446-.95.42-.017-.025.294-.227.866-.572.657-.378 1.473-.849 2.44-1.413 2.146-1.237 4.964-2.852 8.077-4.644 3.096-1.817 5.897-3.458 8.034-4.712.968-.563 1.784-1.034 2.44-1.421.589-.328.917-.497.926-.471ZM481.975 152.497c.017.025-.269.235-.791.589-.53.353-1.295.858-2.254 1.472a231.487 231.487 0 0 1-15.354 8.91c-1.01.53-1.826.95-2.398 1.228-.572.277-.892.42-.909.395-.017-.025.278-.218.825-.547.631-.361 1.405-.816 2.33-1.354l7.698-4.417c2.945-1.725 5.603-3.29 7.648-4.493.917-.53 1.699-.984 2.33-1.354.547-.295.858-.455.875-.429ZM481.639 136.385c.059.109-1.7 1.169-3.921 2.372-2.221 1.203-4.072 2.095-4.131 1.986-.059-.11 1.7-1.17 3.921-2.373 2.221-1.194 4.072-2.086 4.131-1.985ZM431.193 161.836c.017.025-.421.328-1.22.849a175.92 175.92 0 0 1-3.424 2.163c-2.911 1.792-6.966 4.215-11.467 6.84-4.51 2.616-8.624 4.938-11.627 6.57a182.192 182.192 0 0 1-3.576 1.902c-.849.437-1.329.664-1.346.639-.017-.025.438-.303 1.262-.782a855.73 855.73 0 0 0 3.5-2.028c3.02-1.742 7.076-4.089 11.56-6.68 4.476-2.608 8.522-4.964 11.534-6.722 1.43-.833 2.608-1.523 3.492-2.036.833-.488 1.304-.741 1.312-.715ZM444.444 136.428c.017.025-.421.328-1.22.849-.799.522-1.968 1.262-3.424 2.162-2.911 1.792-6.966 4.215-11.467 6.84-4.51 2.617-8.624 4.939-11.627 6.571a175.893 175.893 0 0 1-3.576 1.901c-.849.438-1.329.665-1.346.64-.017-.025.438-.303 1.262-.783a738.2 738.2 0 0 0 3.5-2.027c3.02-1.742 7.076-4.089 11.56-6.68 4.476-2.608 8.522-4.964 11.534-6.722 1.43-.833 2.608-1.523 3.492-2.036.833-.488 1.295-.741 1.312-.715ZM456.441 111.197c.017.025-.42.328-1.22.85a176.79 176.79 0 0 1-3.424 2.162c-2.911 1.792-6.966 4.215-11.467 6.84-4.51 2.616-8.624 4.938-11.627 6.571a181.144 181.144 0 0 1-3.576 1.901c-.849.437-1.329.665-1.346.639-.017-.025.438-.303 1.262-.782.892-.513 2.07-1.195 3.5-2.028 3.02-1.741 7.076-4.088 11.56-6.68 4.476-2.608 8.522-4.963 11.534-6.722 1.431-.833 2.608-1.523 3.5-2.036.816-.488 1.287-.74 1.304-.715ZM469.179 86.765c.017.026-.421.329-1.22.85-.799.522-1.969 1.262-3.424 2.162-2.911 1.792-6.966 4.215-11.467 6.84-4.51 2.617-8.624 4.939-11.627 6.571a175.893 175.893 0 0 1-3.576 1.901c-.85.438-1.329.665-1.346.64-.017-.026.437-.303 1.262-.783a738.2 738.2 0 0 0 3.5-2.027c3.02-1.742 7.075-4.09 11.56-6.68 4.475-2.608 8.522-4.964 11.534-6.723 1.43-.832 2.608-1.522 3.491-2.035.833-.488 1.296-.74 1.313-.716Z"/><path fill="#fff" d="M516.158 114.655c.008.008-.126.218-.412.614-.278.395-.69.984-1.304 1.674-1.187 1.397-3.105 3.306-5.881 5.098-2.768 1.784-6.445 3.408-10.769 4.123a26.391 26.391 0 0 1-6.84.202c-2.372-.219-4.779-.825-7.168-1.574-4.787-1.548-9.137-3.558-13.284-4.795-4.123-1.287-8.069-1.649-11.316-1.296-3.256.345-5.73 1.439-7.244 2.449-.749.513-1.312.95-1.657 1.287-.354.319-.556.488-.564.479-.008-.008.16-.193.505-.538.328-.362.875-.825 1.624-1.371 1.506-1.061 4.004-2.23 7.302-2.617 3.281-.395 7.286-.059 11.467 1.22 4.19 1.228 8.548 3.231 13.302 4.762 2.381.749 4.745 1.346 7.084 1.565 2.33.244 4.61.159 6.738-.169 4.266-.681 7.9-2.246 10.66-3.979a28.342 28.342 0 0 0 5.923-4.947c.631-.665 1.06-1.237 1.354-1.615.303-.387.472-.581.48-.572ZM498.709 75.121c.017.025-.328.294-.968.766-.639.48-1.598 1.11-2.818 1.842-1.22.74-2.717 1.531-4.425 2.33a52.277 52.277 0 0 1-5.721 2.196 51.609 51.609 0 0 1-5.957 1.448c-1.859.32-3.542.521-4.964.605-1.421.093-2.574.118-3.365.084-.799-.016-1.237-.042-1.237-.075 0-.034.438-.06 1.229-.093a54.822 54.822 0 0 0 3.348-.227 54.528 54.528 0 0 0 4.913-.69 57.369 57.369 0 0 0 5.898-1.472 57.692 57.692 0 0 0 5.687-2.146 53.825 53.825 0 0 0 4.434-2.23 56.04 56.04 0 0 0 2.877-1.715c.674-.421 1.052-.648 1.069-.623ZM452.714 176.028c-.025.025-.328-.244-.866-.732-.606-.547-1.38-1.237-2.305-2.061-1.961-1.716-4.746-4.022-8.01-6.302-1.632-1.135-3.264-2.094-4.846-2.742-1.582-.648-3.104-.959-4.392-1.027-2.608-.143-4.114.657-4.13.556-.009-.017.084-.068.26-.152.177-.084.438-.193.791-.303.699-.227 1.767-.446 3.096-.412 1.321.025 2.903.311 4.535.959 1.632.64 3.306 1.607 4.947 2.751a73.882 73.882 0 0 1 7.967 6.428 52.78 52.78 0 0 1 2.213 2.171c.496.538.766.841.74.866ZM522.728 191.761c.009.009-.092.11-.286.295-.202.176-.488.462-.9.774-.799.656-2.019 1.522-3.643 2.414-3.205 1.784-8.253 3.458-13.94 3.122-5.688-.345-10.492-2.634-13.461-4.788-1.506-1.076-2.609-2.086-3.324-2.835-.37-.362-.614-.681-.799-.875-.177-.21-.261-.319-.252-.328.025-.025.42.387 1.169 1.085.74.707 1.868 1.675 3.382 2.701 2.978 2.07 7.724 4.266 13.31 4.602 5.586.337 10.558-1.262 13.772-2.953a27.91 27.91 0 0 0 3.685-2.272c.825-.614 1.271-.975 1.287-.942ZM554.496 241.046s-.109-.118-.294-.354c-.193-.252-.471-.605-.824-1.06-.682-.959-1.86-2.246-3.45-3.819-.421-.371-.858-.766-1.321-1.178-.235-.202-.471-.421-.715-.631-.261-.194-.53-.387-.799-.598-.547-.403-1.119-.824-1.708-1.262-.631-.387-1.279-.79-1.96-1.203a39.653 39.653 0 0 0-9.919-4.139c-3.862-1.009-8.271-1.548-12.948-1.127-4.678.387-9.583 1.817-14.185 4.391-4.602 2.609-8.893 6.176-13.478 9.676-2.297 1.75-4.686 3.483-7.269 4.989-2.583 1.506-5.384 2.776-8.379 3.525-2.987.782-6.075.934-9.061.732-2.995-.202-5.898-.842-8.674-1.649-5.57-1.641-10.593-4.131-15.304-6.563-4.711-2.431-9.162-4.795-13.52-6.57-4.35-1.775-8.598-3.004-12.569-3.382-3.98-.371-7.623-.009-10.685.807-3.079.783-5.553 2.045-7.378 3.315-1.86 1.254-2.987 2.6-3.778 3.466-.345.463-.614.816-.799 1.077-.185.244-.286.362-.286.362s.076-.135.252-.387c.185-.261.438-.631.774-1.102.774-.884 1.893-2.263 3.753-3.551 1.825-1.312 4.316-2.608 7.412-3.415 3.087-.842 6.764-1.229 10.777-.875 4.021.362 8.304 1.581 12.679 3.348 4.383 1.767 8.859 4.123 13.57 6.546 4.711 2.414 9.717 4.888 15.236 6.511 2.751.8 5.629 1.431 8.582 1.633 2.944.193 5.981.042 8.926-.724 2.945-.732 5.704-1.985 8.27-3.475 2.566-1.489 4.939-3.205 7.236-4.955 4.576-3.491 8.892-7.059 13.536-9.692 1.17-.631 2.331-1.253 3.542-1.725.598-.244 1.187-.521 1.784-.74.614-.194 1.22-.379 1.817-.572 2.415-.757 4.846-1.127 7.202-1.363 4.728-.404 9.17.16 13.057 1.195a39.963 39.963 0 0 1 9.961 4.223l1.961 1.228c.589.446 1.161.875 1.707 1.288.27.202.539.403.8.605.244.219.479.438.715.64.463.42.9.816 1.321 1.194 1.581 1.599 2.734 2.911 3.399 3.887.336.463.605.825.791 1.086.159.26.243.387.243.387ZM534.255 279.42c.008.016-.135.075-.404.168-.32.109-.715.244-1.195.412a17.83 17.83 0 0 1-1.918.564c-.757.185-1.615.437-2.583.597-.488.093-.993.185-1.514.286-.53.093-1.085.143-1.658.219-1.144.168-2.381.227-3.685.311a50.094 50.094 0 0 1-8.446-.429 50.825 50.825 0 0 1-8.228-1.96c-1.22-.446-2.398-.841-3.45-1.329-.53-.236-1.052-.438-1.531-.682-.48-.244-.934-.479-1.38-.698-.892-.421-1.64-.909-2.313-1.296a18.671 18.671 0 0 1-1.683-1.077c-.412-.294-.757-.53-1.035-.732-.236-.168-.353-.269-.345-.277.009-.009.143.059.396.202.286.176.639.395 1.076.656.463.294 1.027.648 1.717 1.01.681.37 1.438.832 2.33 1.236.438.211.9.438 1.38.665.479.227 1.001.421 1.531.648 1.052.471 2.213.849 3.433 1.279a52.258 52.258 0 0 0 8.169 1.909c2.953.404 5.788.522 8.371.463 1.287-.067 2.516-.109 3.651-.269.572-.068 1.128-.11 1.649-.194.522-.084 1.027-.176 1.515-.252.967-.135 1.825-.37 2.583-.53.765-.152 1.405-.337 1.935-.488.488-.135.891-.244 1.22-.328.26-.068.412-.101.412-.084Z"/><path fill="#4D4D4D" d="m359.058 156.199-5.889-.917-36.488-11.77-21.344-6.167c-4.989-1.725-11.45-2.322-18.467 1.254-10.079 5.14-37.901 31.027-37.901 31.027l20.032 20.655-9.44 41.797c10.558 30.018 31.23 33.459 31.23 33.459s13.579 1.22 29.614-4.897c19.199-7.319 39.349-24.474 41.872-31.852 1.515-4.425 2.76-13.73 3.761-24.238l30.389-12.385 8.236-42.04-35.605 6.074Z"/><path fill="#1A1A1A" d="M314.67 230.596c.009.008-.092.101-.294.26-.21.152-.496.404-.909.665-.807.555-2.036 1.279-3.651 1.96-3.197 1.38-8.186 2.415-13.478 1.271-5.292-1.161-9.397-4.182-11.728-6.773-1.186-1.296-2.002-2.465-2.499-3.306-.269-.413-.42-.757-.546-.985-.118-.227-.177-.353-.16-.361.033-.017.311.446.849 1.253a24.165 24.165 0 0 0 2.583 3.189c2.356 2.498 6.411 5.418 11.594 6.554 5.182 1.127 10.087.16 13.267-1.128a24.343 24.343 0 0 0 3.677-1.817c.833-.505 1.27-.808 1.295-.782ZM303.128 145.236c.008 0 .033.068.067.202.042.16.092.354.151.598.126.521.303 1.304.513 2.305.404 2.011 1.01 4.93 1.204 8.606.075 1.835.042 3.871-.345 6.007-.387 2.137-1.145 4.375-2.398 6.479-1.262 2.103-3.012 4.021-4.989 5.779-1.977 1.767-4.165 3.408-6.394 5.099-4.737 3.567-9.356 6.781-13.487 9.709-4.13 2.919-7.765 5.552-10.676 7.757l-.092.067-.093-.076c-2.6-2.103-4.568-3.92-5.847-5.258-.631-.673-1.085-1.22-1.371-1.615-.143-.194-.228-.354-.295-.463-.059-.109-.092-.16-.084-.168.017-.009.16.202.446.572.303.37.765.9 1.413 1.548 1.296 1.295 3.298 3.071 5.915 5.14h-.185c2.885-2.238 6.503-4.905 10.626-7.841 4.114-2.944 8.724-6.175 13.452-9.734 2.221-1.691 4.409-3.323 6.369-5.065 1.96-1.741 3.685-3.617 4.93-5.67a18.975 18.975 0 0 0 2.381-6.335c.395-2.104.446-4.114.395-5.932-.151-3.651-.706-6.57-1.06-8.589-.185-.976-.328-1.75-.437-2.322-.042-.244-.076-.446-.109-.606 0-.118-.009-.185 0-.194ZM461.573 164.184c8.548-7.319 11.434-20.503 6.739-30.733a6136.2 6136.2 0 0 1-12.039-1.245c6.108-3.206 9.793-10.5 8.749-17.323-6.486 7-17.718 9.069-26.274 4.838-5.62-2.777-10.18-7.951-16.355-9.036-5.603-.985-11.114 1.64-16.482 3.55-5.359 1.91-11.862 2.962-16.304-.597-3.525-2.819-4.611-7.766-4.384-12.267.228-4.51 1.532-8.9 1.809-13.402.547-8.834-3.281-17.735-9.751-23.742-2.027-6.41-6.882-11.938-13.099-14.563-7.521-3.18-16.717-1.977-23.17 3.02-2.633 2.036-4.854 4.67-7.841 6.142-3.374 1.666-7.294 1.666-10.946 2.566-3.651.9-7.479 3.315-7.874 7.059l-1.473 7.664a16.97 16.97 0 0 1-.807 1.615c-3.105 5.444-9.448 9.02-10.828 15.127-.774 3.424.185 7.135-.968 10.449-1.522 4.367-6.234 6.824-8.43 10.887-3.011 5.586-.967 15.363 3.854 19.493 4.82 4.131 14.756 8.498 20.965 9.819 1.683-6.453 3.172-13.352 4.611-20.411 2.532 2.432 5.182 4.745 7.824 7.042 6.916 6.007 13.974 12.107 18.77 19.906 9.111 14.824 9.263 34.477 20.738 47.559 2.247 2.566 4.981 4.855 8.245 5.839 3.265.993 7.135.463 9.549-1.943 2.852-2.844 3.222-7.64 6.369-10.138 4.19-3.323 10.315-.673 14.824 2.212 3.264 2.087 6.52 4.291 10.222 5.435 3.702 1.145 8.001 1.069 11.139-1.186 3.147-2.255 4.526-7.067 2.255-10.205-.909-1.254-2.263-2.129-3.163-3.391-.901-1.262-1.162-3.256.067-4.189 1.363-1.035 3.264-.034 4.745.833 7.193 4.231 16.305 5.039 24.129 2.128 7.824-2.911 14.193-9.473 16.877-17.373a23.349 23.349 0 0 1-12.292-1.439Z"/><path fill="#1A1A1A" d="M454.077 98.157s.403.277 1.085.934c.665.656 1.649 1.674 2.482 3.272.404.8.757 1.75.925 2.836.152 1.076.093 2.322-.412 3.516-.488 1.187-1.338 2.348-2.583 3.138-.622.387-1.346.682-2.12.766a4.762 4.762 0 0 1-2.356-.345c-3.121-1.27-4.686-4.88-8.068-6.487-3.289-1.741-7.496-1.859-11.543-.933-4.089.933-7.975 3.121-11.963 5.359-3.971 2.221-8.211 4.635-13.083 5.468-2.406.446-4.888.472-7.235-.05a14.205 14.205 0 0 1-3.349-1.245 13.1 13.1 0 0 1-2.826-2.095c-1.666-1.641-2.836-3.66-3.626-5.738-.8-2.078-1.237-4.223-1.481-6.327-.446-4.223-.093-8.236-.051-11.972.076-3.727-.143-7.235-1.018-10.28a23.305 23.305 0 0 0-1.607-4.216 25.09 25.09 0 0 0-2.036-3.474 25.354 25.354 0 0 0-4.307-4.796c-1.338-1.17-2.507-1.91-3.29-2.423-.387-.227-.689-.412-.917-.538-.202-.126-.311-.194-.303-.202 0-.008.118.05.329.16.227.126.538.294.942.505.799.496 1.985 1.211 3.357 2.372a25.173 25.173 0 0 1 4.391 4.787 24.185 24.185 0 0 1 2.087 3.492 24.088 24.088 0 0 1 1.657 4.248c.909 3.088 1.144 6.622 1.086 10.365-.026 3.744-.362 7.757.092 11.922.244 2.078.69 4.19 1.472 6.226.783 2.027 1.919 3.996 3.534 5.578.816.774 1.716 1.48 2.726 2.019 1.009.53 2.103.934 3.239 1.203 2.28.505 4.694.479 7.059.042 4.778-.816 8.968-3.189 12.947-5.41 3.988-2.229 7.909-4.434 12.082-5.376 2.069-.454 4.156-.681 6.167-.521 1.009.05 1.985.252 2.936.479.934.286 1.859.589 2.692 1.052 3.492 1.708 5.056 5.334 8.018 6.52 1.438.623 3.037.387 4.215-.37 1.194-.741 2.027-1.851 2.507-2.995.496-1.144.564-2.339.429-3.399a9.102 9.102 0 0 0-.875-2.785c-.799-1.582-1.75-2.616-2.389-3.29-.328-.336-.589-.58-.766-.74-.168-.16-.252-.252-.252-.252ZM316.547 146.718s-.034-.126-.068-.379c-.042-.252-.075-.631-.227-1.102-.252-.951-.833-2.33-2.07-3.752-1.253-1.397-3.121-2.819-5.578-3.879-2.439-1.11-5.46-1.657-8.783-2.288-3.289-.648-7.067-1.329-10.449-3.584-3.323-2.246-5.982-6.066-6.663-10.567-.69-4.476.757-9.507 4.189-13.083 3.484-3.575 8.405-5.342 12.427-8.489.992-.807 1.893-1.699 2.65-2.692.707-1.026 1.287-2.137 1.615-3.331.665-2.39.614-4.888.842-7.32.109-1.22.294-2.431.673-3.592a8.958 8.958 0 0 1 1.775-3.147c1.632-1.792 3.878-2.734 6.015-3.348 2.162-.631 4.308-1.018 6.344-1.582 2.027-.564 3.937-1.32 5.536-2.473 1.623-1.11 2.969-2.49 4.156-3.887 1.186-1.405 2.196-2.852 3.129-4.257 1.86-2.819 3.45-5.444 5.141-7.547 1.666-2.12 3.357-3.744 4.905-4.846 1.548-1.11 2.919-1.7 3.87-1.994.951-.303 1.472-.37 1.472-.37.009.034-.513.126-1.447.454-.934.32-2.288.926-3.803 2.045-1.522 1.11-3.18 2.734-4.812 4.854-1.666 2.103-3.231 4.728-5.073 7.564-.934 1.413-1.944 2.877-3.13 4.307-1.186 1.422-2.549 2.818-4.206 3.971-1.633 1.186-3.601 1.977-5.646 2.55-2.053.571-4.198.967-6.335 1.598-2.12.614-4.274 1.54-5.822 3.239a8.618 8.618 0 0 0-1.682 2.995c-.362 1.11-.539 2.297-.648 3.5-.227 2.398-.16 4.922-.85 7.403-.336 1.237-.942 2.398-1.683 3.467-.782 1.043-1.716 1.952-2.725 2.776-2.053 1.607-4.316 2.835-6.47 4.114-2.154 1.27-4.24 2.617-5.923 4.333-3.34 3.466-4.762 8.371-4.106 12.721.648 4.383 3.239 8.127 6.47 10.331 3.29 2.213 7.025 2.919 10.306 3.584 3.307.639 6.361 1.212 8.826 2.364 2.473 1.094 4.358 2.558 5.611 3.988 1.237 1.455 1.801 2.877 2.028 3.845.134.479.16.866.185 1.119.034.261.034.387.034.387Z"/><path fill="#333" d="M383.717 71.193c-.008.025-.235-.034-.648-.168-.412-.126-.984-.362-1.682-.682-1.397-.639-3.239-1.724-5.023-3.255-1.775-1.532-3.13-3.197-3.971-4.476a15.942 15.942 0 0 1-.925-1.565c-.194-.387-.287-.597-.261-.614.067-.034.538.782 1.438 2.002a26.692 26.692 0 0 0 3.997 4.324 26.685 26.685 0 0 0 4.871 3.307c1.354.715 2.238 1.06 2.204 1.127ZM411.691 128.581c-.017.042-.53-.126-1.481-.337-.95-.21-2.347-.42-4.08-.505-1.742-.075-3.811 0-6.116.177-2.306.16-4.846.396-7.53.337-2.684-.068-5.258-.472-7.429-1.397-2.162-.917-3.853-2.272-4.981-3.634-1.127-1.372-1.691-2.735-1.918-3.694-.109-.479-.168-.858-.176-1.119-.017-.261-.026-.395-.009-.395.051-.009.076.538.345 1.472.269.926.858 2.23 1.986 3.534 1.118 1.304 2.793 2.591 4.896 3.466 2.112.875 4.636 1.262 7.277 1.329 2.651.059 5.183-.16 7.488-.303 2.305-.151 4.4-.193 6.159-.084 1.758.118 3.163.379 4.105.648.471.135.833.244 1.077.345.261.084.387.143.387.16ZM461.27 166.833c0 .009-.076.043-.244.11-.168.067-.412.177-.749.244-.673.16-1.733.244-3.012-.135-1.262-.387-2.725-1.194-4.038-2.549-1.346-1.338-2.339-3.281-3.247-5.443-.917-2.154-1.691-4.636-3.189-6.916-.707-1.169-1.657-2.221-2.667-3.256-1.077-.976-2.238-1.926-3.567-2.7-5.284-3.181-12.224-4.493-19.308-4.072-7.126.37-13.823 1.766-20.024 2.204-6.192.555-11.879-.126-16.33-1.691-4.476-1.531-7.605-3.921-9.355-5.864-.463-.463-.808-.943-1.119-1.338a8.386 8.386 0 0 1-.732-1.052c-.168-.277-.303-.496-.412-.673-.093-.151-.135-.235-.127-.235.009 0 .059.067.169.21.109.168.261.379.446.648.185.286.429.639.757 1.018.32.387.673.85 1.144 1.304 1.775 1.893 4.896 4.207 9.33 5.687 4.417 1.506 10.037 2.154 16.196 1.574 6.166-.455 12.863-1.86 20.04-2.238 7.143-.421 14.176.908 19.544 4.164 1.346.791 2.532 1.767 3.626 2.768 1.035 1.06 2.002 2.145 2.709 3.34 1.523 2.347 2.271 4.846 3.172 7 .874 2.154 1.834 4.072 3.129 5.393 1.271 1.337 2.684 2.162 3.912 2.557 1.237.396 2.28.345 2.945.211.665-.126.993-.303 1.001-.27Z"/><path fill="#FFBE9D" d="M328.948 71.184a6.29 6.29 0 0 0-6.411 5.587l-6.806 70.847c-1.178 9.961 11.854 31.322 22.53 32.5 10.786 1.186 11.838-4.038 13.234-13.478 2.339-15.774 3.121-21.706 3.113-21.613 0 0 13.882-.463 19.031-17.819 2.557-8.632 4.021-23.145 4.837-35.058.732-10.727-4.593-24.701-15.337-24.97l-34.191 4.004Z"/><path fill="#1A1A1A" d="M373.782 101.557c-.118 1.203-1.228 2.103-2.499 2.002-1.262-.101-2.187-1.152-2.069-2.356.118-1.203 1.228-2.103 2.49-2.002 1.27.093 2.196 1.153 2.078 2.356ZM374.749 96.972c-.26.32-2.086-.842-4.543-.665-2.465.143-4.181 1.531-4.467 1.254-.143-.127.109-.682.858-1.313.732-.622 2.019-1.27 3.55-1.371 1.532-.101 2.861.378 3.643.9.791.53 1.086 1.052.959 1.195ZM352.135 102.835c-.295.295-1.994-1.043-4.459-1.11-2.466-.101-4.308 1.119-4.569.807-.126-.134.177-.673.985-1.22.79-.546 2.128-1.068 3.668-1.018 1.539.051 2.81.657 3.542 1.254.732.614.976 1.161.833 1.287ZM356.728 115.867c.008-.143 1.565-.202 4.072-.194.631.017 1.245-.025 1.405-.437.21-.429.034-1.136-.177-1.91-.387-1.59-.79-3.256-1.22-4.998-1.674-7.109-2.793-12.922-2.507-12.99.286-.067 1.876 5.646 3.551 12.755.395 1.75.782 3.424 1.135 5.014.143.74.446 1.599 0 2.49-.227.446-.731.724-1.144.774-.412.068-.765.034-1.077.009-2.507-.185-4.046-.379-4.038-.513Z"/><path fill="#EB996E" d="M354.608 145.037s-12.031-.8-22.909-9.457c0 0 4.383 12.982 22.346 13.655l.563-4.198Z"/><path fill="#1A1A1A" d="M352.48 98.619c-.387.597-2.718-.27-5.612-.597-2.894-.379-5.359-.085-5.595-.758-.101-.32.438-.84 1.506-1.261 1.06-.421 2.65-.682 4.392-.472 1.733.21 3.222.842 4.148 1.498.933.665 1.337 1.304 1.161 1.59ZM374.379 93.665c-.404.58-2.129.084-4.173.168-2.044.008-3.752.572-4.181 0-.185-.278.059-.85.782-1.422.715-.564 1.944-1.06 3.349-1.094 1.405-.025 2.65.421 3.382.96.757.546 1.018 1.11.841 1.388Z"/><path fill="#EB996E" d="M350.772 120.335a5.25 5.25 0 0 1 3.853-.808c.673.126 1.354.404 1.792.934.58.69.648 1.666.623 2.574-.017.539-.051 1.094-.236 1.599-.185.505-.539.976-1.026 1.203-.505.236-1.094.177-1.649.084-.917-.151-1.834-.412-2.6-.942-.766-.522-1.363-1.346-1.456-2.272-.084-.925.43-1.918 1.304-2.238"/><path fill="#1A1A1A" d="M357.41 125.735c-.185.067-.505-.471-1.094-1.211-.589-.741-1.489-1.675-2.701-2.365-1.211-.689-2.473-.992-3.407-1.118-.934-.135-1.565-.135-1.598-.329-.043-.168.546-.496 1.615-.605 1.051-.11 2.591.075 4.047.908 1.447.825 2.397 2.053 2.843 3.021.446.976.463 1.649.295 1.699ZM314.78 142.756c5.839-1.161 10.348-6.184 12.359-11.795 2.011-5.603 1.91-11.737 1.371-17.668-.067-.765-.193-1.615-.799-2.086-.883-.682-2.154-.126-3.104.454a99.21 99.21 0 0 0-10.584 7.437c-3.13 2.524-6.226 5.427-7.429 9.255-1.842 5.881 2.053 12.906 8.018 14.462"/><path fill="#FFBE9D" d="M449.189 141.385 421.61 97.064l-7.614-15.598s-2.431-3.222-4.955-5.973c-4.148-4.518-8.236-1.01-8.236-1.01s-.598-1.725-2.768-1.708c-2.592.025-3.812 1.944-3.812 1.944s-1.127-1.254-4.257-1.447c-.673-.043-1.346.218-1.985.639-1.027-.9-2.903-2.204-4.72-1.54-1.413.514-9.986 7.034-12.098 10.315-1.043 1.624.892 3.727 3.5 2.743 1.144-.438 2.297-.783 3.129-1.27 1.397-.817 2.121-1.709 2.121-1.709s-2.163 3.786-.009 4.45c.9.279 2.81.077 4.055-.983.825-.699 1.775-1.599 2.676-2.474-.034.05-.076.101-.11.152-1.194 1.766 1.919 4.383 3.433 3.323a22.445 22.445 0 0 0 2.011-1.59c3.5 2.54-1.363 5.796-3.416 5.628-3.18-.26-6.899-.244-9.49-.034-1.784.152-3.382.573-4.341 1.565-1.161 1.195.059 3.702 1.699 3.955 3.02.462 6.874 1.135 10.878 2.17 4.72 1.212 17.054 5.225 17.054 5.225l1.203.976 16.776 40.896-28.714 6.083-6.411 36.378 51.825-14.058c11.686-6.083 17.222-21.622 10.155-32.727Z"/><path fill="#EB996E" d="M404.364 103.829c-.009.017-.228-.042-.657-.16-.462-.135-1.085-.311-1.859-.53-1.657-.488-3.971-1.178-6.815-2.028-1.438-.437-3.012-.908-4.703-1.422a108.878 108.878 0 0 0-5.418-1.548c-1.918-.488-3.946-.976-6.074-1.253-1.035-.16-2.204-.06-3.298-.598a2.224 2.224 0 0 1-.74-.555 1.307 1.307 0 0 1-.253-.454l-.067-.446c-.067-.58-.076-1.186.109-1.784.194-.605.665-1.102 1.195-1.38.522-.294 1.077-.462 1.607-.639 1.102-.353 2.238-.412 3.323-.412 2.188.025 4.249.328 6.217.252a20.618 20.618 0 0 0 2.853-.277c.917-.168 1.792-.404 2.65-.623 1.699-.454 3.373-.782 4.905-.622 1.522.126 2.843.555 3.954 1.01 1.11.454 2.019.942 2.759 1.354.732.412 1.287.757 1.666.984.37.236.564.37.555.379-.008.008-.218-.093-.605-.303-.429-.227-.993-.53-1.7-.917-.749-.387-1.657-.85-2.768-1.28-1.102-.428-2.406-.823-3.887-.924-1.48-.135-3.087.201-4.787.664-.85.227-1.733.48-2.675.656-.942.177-1.91.27-2.911.303-2.011.093-4.097-.202-6.234-.227-1.069 0-2.163.067-3.189.395-1.026.337-2.204.699-2.515 1.742-.16.496-.152 1.052-.093 1.598l.05.387a.968.968 0 0 0 .16.278c.16.185.371.328.598.438.942.47 2.069.395 3.155.555 2.162.286 4.198.79 6.116 1.287a105.2 105.2 0 0 1 5.418 1.59c1.683.53 3.248 1.018 4.686 1.473 2.827.9 5.132 1.64 6.781 2.162.766.252 1.38.454 1.834.605.446.169.657.253.657.27ZM383.103 72.438c.042.067-1.295.85-3.281 2.347-.993.749-2.128 1.7-3.298 2.86-1.178 1.145-2.414 2.491-3.878 3.745-.715.605-1.389 1.261-1.557 2.078-.084.395-.05.807.143 1.127.185.328.513.547.867.673.732.244 1.514.177 2.221.042a10.605 10.605 0 0 0 1.926-.555c2.297-.934 3.357-2.154 3.416-2.07.017.017-.227.32-.757.783a9.747 9.747 0 0 1-2.541 1.573c-.58.252-1.245.471-1.977.622-.723.152-1.565.253-2.423-.016-.42-.135-.85-.413-1.102-.842-.261-.42-.303-.95-.21-1.43.193-.993.976-1.716 1.691-2.322 1.438-1.237 2.675-2.558 3.878-3.702a30.713 30.713 0 0 1 5.898-4.425c.631-.337.976-.513.984-.488Z"/><path fill="#EB996E" d="M393.628 75.922c.025.017-.328.43-.976 1.161-.698.774-1.632 1.8-2.768 3.046-1.194 1.295-2.599 2.801-4.147 4.476-.8.858-1.75 1.657-2.911 2.22-.581.278-1.229.489-1.927.48-.69-.017-1.413-.218-1.935-.774-.278-.286-.412-.673-.463-1.051-.033-.379.026-.74.11-1.086.193-.681.513-1.278.891-1.842l.009-.009.017-.016c1.48-1.574 2.86-3.054 4.105-4.417 1.262-1.338 2.474-2.432 3.458-3.365.488-.463.942-.9 1.439-1.162.513-.26.993-.252 1.363-.294.74-.05 1.178.017 1.144.093.017-.034-.395-.043-1.127.05-.354.067-.842.084-1.271.337-.446.252-.866.69-1.354 1.169-.959.96-2.146 2.07-3.382 3.416a308.35 308.35 0 0 1-4.072 4.467l.016-.025a5.892 5.892 0 0 0-.816 1.7 2.925 2.925 0 0 0-.101.925c.042.294.143.58.345.799.387.42 1.035.623 1.616.631.605.008 1.194-.177 1.741-.438 1.085-.521 2.028-1.295 2.802-2.111 1.573-1.65 3.003-3.138 4.215-4.417 1.178-1.203 2.145-2.204 2.869-2.953.311-.311.58-.572.799-.79.193-.144.294-.228.311-.22ZM406.517 79.976c.042.034-.042.253-.337.488a1.815 1.815 0 0 1-1.396.345c-.589-.1-1.01-.48-1.195-.799-.193-.32-.202-.555-.143-.572.059-.025.168.16.387.379.219.218.581.479 1.027.555.446.075.875-.042 1.152-.177.286-.118.455-.26.505-.219Z"/><path fill="#EB996E" d="M407.526 83.838c-.092.076-.723-.555-1.278-1.497-.556-.942-.808-1.8-.699-1.842.118-.051.539.706 1.077 1.623.53.909.993 1.64.9 1.716ZM409.386 98.88c-.042.026-.421-.622-.799-1.749-.379-1.127-.715-2.768-.69-4.602.025-1.834.404-3.458.816-4.577.404-1.119.799-1.75.841-1.733.143.042-1.194 2.726-1.22 6.318-.075 3.584 1.187 6.302 1.052 6.344ZM432.034 157.176c-.084.009-.168-.892-.605-2.263-.211-.69-.547-1.472-.993-2.314a15.216 15.216 0 0 0-1.758-2.515 15.123 15.123 0 0 0-2.272-2.07c-.774-.547-1.506-.984-2.162-1.287-1.304-.614-2.188-.808-2.162-.892.008-.033.227 0 .631.084.403.076.976.253 1.657.522.69.269 1.464.69 2.272 1.237.799.563 1.615 1.27 2.364 2.111.74.85 1.329 1.759 1.783 2.617.438.875.757 1.699.934 2.414.185.716.286 1.304.303 1.708.034.421.034.648.008.648Z"/><path fill="#FFBE9D" d="M335.804 238.203c-3.676-.765-6.999.892-6.999.892-3.744-1.657-8.363 1.203-8.363 1.203-1.355-.648-9.515 4.686-9.515 4.686l-10.163 4.796-54.291-40.342 15.388-16.01-21.563-22.438-25.273 26.005c-3.147 3.248-4.737 7.631-5.04 12.242-.639 9.885 4.998 19.114 13.832 23.59l63.973 32.812s6.781-.236 14.547-2.264c5.519-1.438 14.95-5.628 14.95-5.628s-.025.286 1.657 3.55c3.038 5.881 7.488-.462 7.488-.462s.909 2.086 1.725 2.877c3.845 3.727 6.512-1.279 6.512-1.279s1.152 2.011 4.593.513c3.424-1.489-.496-11.829-.496-11.829s1.152 2.247 3.382-.597c2.221-2.844-2.667-11.551-6.344-12.317Z"/><path fill="#EB996E" d="M328.123 239.617c-.008-.016.227-.151.707-.269.471-.126 1.211-.16 2.061.059.85.219 1.801.69 2.718 1.388a9.97 9.97 0 0 1 1.354 1.212c.429.479.757 1.051 1.06 1.64a41.168 41.168 0 0 1 2.482 6.234c.253.825.421 1.498.53 1.961.101.471.143.732.118.74-.067.017-.37-1.001-.934-2.608a57.394 57.394 0 0 0-2.583-6.133c-.286-.572-.606-1.111-.993-1.557a9.737 9.737 0 0 0-1.278-1.169c-.875-.69-1.767-1.161-2.558-1.414-1.624-.504-2.675.026-2.684-.084ZM334.66 262.433c-.025.009-.193-.319-.471-.934-.319-.689-.715-1.556-1.186-2.574-1.001-2.179-2.465-5.149-3.862-8.548-.681-1.699-1.304-3.323-2.212-4.593a7.636 7.636 0 0 0-3.122-2.609c-1.068-.496-2.052-.563-2.692-.479-.648.084-.984.261-1.009.219-.009-.017.075-.059.235-.143a2.82 2.82 0 0 1 .749-.244c.665-.143 1.708-.11 2.844.361a7.726 7.726 0 0 1 3.331 2.651c.959 1.312 1.607 2.978 2.289 4.669 1.388 3.374 2.81 6.369 3.743 8.59.472 1.102.833 2.01 1.06 2.641.219.623.329.985.303.993ZM309.74 249.453c-.008-.026.295-.202.867-.48.656-.32 1.464-.707 2.423-1.169.522-.244 1.068-.514 1.699-.783a4.76 4.76 0 0 1 2.179-.32 4.508 4.508 0 0 1 2.28.875c.69.53 1.203 1.246 1.675 1.994.462.749.824 1.532 1.177 2.264a53.31 53.31 0 0 0 1.094 2.078c.732 1.304 1.422 2.481 1.935 3.499a21.098 21.098 0 0 1 1.077 2.482c.21.606.295.943.269.959-.075.026-.53-1.312-1.623-3.289-.539-.993-1.254-2.145-2.011-3.449a40.33 40.33 0 0 1-1.128-2.087c-.37-.74-.723-1.498-1.169-2.221-.446-.724-.951-1.405-1.556-1.876a4.236 4.236 0 0 0-2.062-.816 4.393 4.393 0 0 0-2.01.252c-.606.244-1.178.505-1.7.724-.984.412-1.809.757-2.482 1.043-.589.227-.925.353-.934.32ZM310.918 244.984c.017.025-.252.194-.74.471-.488.278-1.203.665-2.095 1.136a388.547 388.547 0 0 1-6.991 3.593 483.537 483.537 0 0 1-7.051 3.483c-.908.437-1.648.782-2.162 1.009-.513.227-.807.345-.816.311-.017-.025.253-.193.741-.471a86.286 86.286 0 0 1 2.094-1.135 382.602 382.602 0 0 1 6.992-3.593 478.939 478.939 0 0 1 7.05-3.483 74.079 74.079 0 0 1 2.162-1.01c.513-.227.808-.344.816-.311ZM247.189 209.532c-.026.143-2.869-.648-6.411-.21-3.542.395-6.134 1.834-6.184 1.699-.025-.042.581-.463 1.666-.942a15.832 15.832 0 0 1 4.467-1.195c1.801-.21 3.458-.092 4.619.118 1.17.219 1.851.479 1.843.53Z"/><path fill="#1A1A1A" d="M367.085 63.797a169.575 169.575 0 0 0-39.988 4.224c-3.037.69-6.251 1.581-8.304 3.929-2.171 2.473-2.558 6.007-2.844 9.288-.345 3.996-.69 7.992-1.043 11.989a26.82 26.82 0 0 1-1.918 2.86c-3.164 4.131-7.193 7.572-10.071 11.913-2.877 4.333-4.467 10.096-2.12 14.74 1.414 2.81 4.047 4.796 5.965 7.286 3.256 4.232 4.316 9.683 6.217 14.672 1.902 4.989 5.334 10.071 10.576 11.072 2.498.48 5.098-.05 7.614.32 3.76.547 6.924 3.012 9.919 5.359s6.234 4.745 10.012 5.115c3.785.379 8.118-2.187 8.194-5.99-2.776 1.615-6.461 1.506-9.145-.261-2.204-1.447-3.626-3.802-5.519-5.645-4.644-4.509-12.14-5.94-15.371-11.551-2.558-4.442-1.54-9.995-.379-14.984 1.01-4.325 2.028-9.019.783-13.175.092-.665.151-1.346.151-2.019.034-4.426-1.725-9.171.337-13.083 2.726-5.182 10.583-5.83 13.335-10.996 1.598-3.003 1.034-6.84 2.784-9.75 1.649-2.743 4.93-4.005 8.06-4.687 3.121-.681 6.419-.993 9.187-2.608 2.768-1.615 4.821-5.082 3.568-8.018Z"/><path fill="#1A1A1A" d="M377.281 154.062c.009.008-.034.076-.126.21-.109.152-.244.345-.412.589-.379.505-1.01 1.195-1.935 1.961a13.127 13.127 0 0 1-3.837 2.061 13.3 13.3 0 0 1-5.729.664c-2.146-.176-4.468-1.051-6.445-2.641-2.002-1.54-3.786-3.584-6.049-5.208-1.136-.799-2.431-1.439-3.853-1.615-1.43-.202-2.886.21-4.291.774-1.413.555-2.835 1.27-4.459 1.539-1.623.286-3.323-.109-4.787-.849-1.489-.732-2.793-1.717-4.047-2.684-1.253-.976-2.481-1.961-3.55-3.088-1.077-1.11-2.002-2.381-2.524-3.811-.555-1.422-.58-2.97-.286-4.375.278-1.413.791-2.701 1.271-3.946a53.114 53.114 0 0 0 1.278-3.651 50.168 50.168 0 0 0 1.557-6.764c.656-4.198.656-7.665.547-10.037a43.766 43.766 0 0 0-.194-2.734c-.025-.295-.05-.53-.059-.707-.008-.16-.017-.244-.008-.244.008 0 .025.076.05.235.026.186.059.413.11.707.092.623.193 1.54.277 2.734.16 2.381.211 5.856-.404 10.096a49.47 49.47 0 0 1-1.514 6.823 51.746 51.746 0 0 1-1.27 3.685c-.471 1.245-.968 2.524-1.237 3.887-.269 1.355-.244 2.802.286 4.148.496 1.354 1.388 2.566 2.44 3.651 1.051 1.094 2.263 2.07 3.508 3.037 1.245.968 2.532 1.927 3.971 2.634 1.422.715 3.012 1.077 4.535.816 1.523-.244 2.936-.942 4.366-1.506 1.422-.572 2.97-1.01 4.493-.791 1.514.193 2.877.883 4.038 1.699 2.314 1.683 4.081 3.727 6.041 5.259 1.927 1.573 4.156 2.423 6.251 2.616 2.095.244 4.03-.067 5.62-.589a13.141 13.141 0 0 0 3.811-1.96c1.859-1.472 2.507-2.684 2.566-2.625Z"/><path fill="#4D4D4D" d="M293.225 127.309s-.261-.295-.673-.926c-.395-.639-.892-1.657-1.186-3.062-.303-1.405-.345-3.197.084-5.199.446-1.986 1.329-4.198 2.911-6.243 1.548-2.053 3.651-3.962 6.074-5.746 2.415-1.8 5.158-3.466 7.892-5.418 2.709-1.96 5.485-4.232 7.488-7.278 1.009-1.505 1.724-3.222 2.271-5.022.547-1.8.917-3.685 1.346-5.587.429-1.901.926-3.785 1.7-5.535.757-1.759 1.884-3.357 3.306-4.569 1.422-1.211 3.079-2.07 4.77-2.625 1.691-.572 3.425-.866 5.116-1.01 3.39-.294 6.604.085 9.591.304 2.986.243 5.771.378 8.295.109a17.646 17.646 0 0 0 6.503-1.935c1.767-.96 3.105-2.103 3.988-3.214.884-1.102 1.363-2.112 1.607-2.818.236-.707.328-1.094.354-1.086 0 0-.051.396-.27 1.12-.227.714-.681 1.758-1.565 2.893-.866 1.145-2.221 2.33-4.004 3.324a17.801 17.801 0 0 1-6.588 2.027c-2.549.295-5.367.177-8.354-.05-2.987-.21-6.184-.564-9.524-.261-1.666.151-3.365.446-5.014 1.01-1.657.546-3.256 1.38-4.627 2.557-1.372 1.17-2.448 2.71-3.189 4.425-.757 1.708-1.245 3.568-1.674 5.46-.438 1.894-.808 3.787-1.355 5.612-.546 1.826-1.295 3.593-2.33 5.132-2.053 3.113-4.88 5.402-7.614 7.37-2.759 1.952-5.502 3.609-7.908 5.385-2.415 1.75-4.501 3.626-6.041 5.636a15.775 15.775 0 0 0-2.919 6.108c-.438 1.961-.429 3.727-.152 5.116.555 2.776 1.792 3.954 1.691 3.996Z"/><path fill="#4D4D4D" d="M295.69 131.726s-1.043-.757-2.583-2.482c-.757-.866-1.649-2.002-2.246-3.567-.286-.774-.48-1.674-.387-2.633.084-.951.48-1.927 1.136-2.76 1.363-1.666 3.617-2.566 5.982-3.062 1.194-.253 2.431-.446 3.668-.749 1.236-.303 2.498-.732 3.584-1.489 1.077-.774 1.96-1.851 2.608-3.088.664-1.237 1.127-2.616 1.615-4.013.488-1.397.976-2.844 1.716-4.215.716-1.38 1.784-2.642 3.155-3.491 1.372-.85 2.895-1.321 4.384-1.708 1.489-.387 2.961-.699 4.349-1.17 2.81-.883 5.015-2.81 6.68-4.921 1.691-2.112 2.928-4.392 4.148-6.487 1.212-2.095 2.415-4.03 3.778-5.603 1.337-1.59 2.852-2.768 4.316-3.525 1.472-.766 2.877-1.11 4.029-1.22 1.161-.093 2.07.05 2.651.218.589.16.875.303.875.303-.009.026-.312-.092-.892-.218-.581-.135-1.481-.244-2.617-.135-1.136.126-2.498.496-3.929 1.262-1.43.766-2.894 1.935-4.198 3.508-1.321 1.557-2.507 3.483-3.702 5.587-1.203 2.095-2.431 4.4-4.147 6.553-.85 1.077-1.826 2.112-2.97 3.004a12.654 12.654 0 0 1-3.896 2.078c-1.421.488-2.902.8-4.374 1.186-1.473.387-2.953.85-4.257 1.658-1.304.807-2.314 1.994-3.012 3.331-.715 1.33-1.203 2.751-1.691 4.148-.488 1.397-.96 2.793-1.649 4.072-.673 1.279-1.599 2.415-2.752 3.231-1.152.799-2.465 1.228-3.727 1.531-1.262.303-2.507.488-3.685.732-2.33.471-4.517 1.338-5.813 2.902-.631.774-1.01 1.691-1.102 2.592-.101.9.067 1.766.336 2.515.556 1.515 1.422 2.659 2.146 3.534.74.875 1.371 1.506 1.8 1.935.202.193.362.353.497.479.126.11.185.169.176.177Z"/><path fill="#EB996E" d="M399.257 77.376c.025.017-.135.253-.438.648-.303.404-.757.968-1.329 1.658a79.605 79.605 0 0 1-4.728 5.174c-.959.934-1.86 2.002-3.096 2.39-.598.184-1.237.193-1.776-.018-.546-.21-.917-.63-1.144-1.043-.454-.85-.378-1.649-.32-2.137.076-.505.177-.765.202-.757.034.008-.008.286-.033.774-.009.48-.026 1.237.412 1.969.219.361.547.698 1.001.858.446.16 1.001.151 1.523-.025 1.068-.345 1.943-1.363 2.911-2.314a156.59 156.59 0 0 0 4.804-5.065c1.22-1.329 1.96-2.153 2.011-2.112Z"/><path fill="#EB996E" d="M405.684 77.376c.026.017-.159.252-.504.656s-.859.976-1.498 1.675c-.673.723-1.43 1.547-2.263 2.448-.429.462-.883.942-1.346 1.438-.471.497-.968 1.018-1.582 1.456-.606.437-1.312.765-2.053.816-.732.067-1.514-.244-1.909-.833a1.646 1.646 0 0 1-.312-.976c.009-.345.143-.648.286-.9.312-.505.631-.892.909-1.279.564-.765 1.026-1.38 1.346-1.8.328-.421.522-.64.547-.623.025.017-.118.278-.404.724a89.588 89.588 0 0 1-1.237 1.876c-.252.395-.58.824-.841 1.278-.269.455-.311 1.01.034 1.465.328.454.925.698 1.556.639.631-.042 1.262-.337 1.826-.74.563-.404 1.051-.91 1.522-1.397.472-.488.926-.96 1.363-1.414.859-.875 1.641-1.674 2.331-2.38a83.886 83.886 0 0 1 1.598-1.582c.387-.37.606-.564.631-.547Z"/><path fill="#00B307" d="M493.526 334.947c1.439-3.13 4.476-5.469 7.867-6.058 3.39-.589 7.042.597 9.448 3.063-1.641 2.919-4.585 4.862-7.749 5.948-3.718 1.278-7.765-.227-9.566-2.953Z"/><path fill="#1A1A1A" d="M487.553 336.326c-.017-.051.9-.387 2.415-.757 1.522-.371 3.634-.791 5.99-1.178 2.347-.387 4.492-.682 6.04-.858 1.548-.185 2.516-.253 2.524-.194.009.059-.942.244-2.482.505-1.674.277-3.735.614-6.015.984-2.347.387-4.467.757-5.999 1.043-1.522.295-2.456.514-2.473.455Z"/><path fill="#00B307" d="M192.814 281.682c3.567 2.936 5.527 7.723 5.031 12.325-.496 4.594-3.424 8.859-7.538 10.971-3.088-7.917-4.274-16.44 2.507-23.296ZM204.517 287.758c.328 5.973 3.819 11.686 8.993 14.689 5.174 3.004 11.863 3.223 17.214.547-5.881-9.288-13.857-17.053-26.207-15.236Z"/><path fill="#1A1A1A" d="M177.704 258.496c.008-.008.143.135.387.421.269.32.614.74 1.051 1.254.9 1.102 2.196 2.692 3.845 4.618 3.281 3.871 7.917 9.137 13.377 14.631a193.917 193.917 0 0 0 7.917 7.513c2.515 2.221 4.846 4.148 6.857 5.679 2.036 1.506 3.718 2.684 4.955 3.374 1.22.723 1.943 1.018 1.926 1.068-.008.017-.185-.059-.53-.202-.344-.151-.858-.353-1.472-.715-1.27-.648-2.987-1.792-5.056-3.273-2.053-1.506-4.4-3.415-6.941-5.628a183.213 183.213 0 0 1-7.959-7.505 212.053 212.053 0 0 1-13.301-14.74 148.047 148.047 0 0 1-3.744-4.711c-.404-.538-.732-.967-.984-1.304-.227-.303-.337-.471-.328-.48Z"/><path fill="#1A1A1A" d="M192.166 293.647c-.076-.016.21-1.186.446-3.096.244-1.909.378-4.576.084-7.496a33.755 33.755 0 0 0-1.624-7.319c-.631-1.817-1.144-2.903-1.077-2.936.025-.017.177.244.429.732.261.479.581 1.194.934 2.103.715 1.809 1.456 4.417 1.775 7.378.303 2.962.11 5.671-.21 7.589-.16.959-.328 1.733-.48 2.255-.159.521-.252.799-.277.79Z"/><path fill="#00B307" d="M563.448 123.389c-2.078-2.751-2.692-6.537-1.598-9.801 1.093-3.264 3.861-5.923 7.176-6.865 1.792 2.826 2.103 6.335 1.565 9.641-.64 3.887-3.887 6.731-7.143 7.025Z"/><path fill="#1A1A1A" d="M561.833 129.305c-.059-.009.084-.976.488-2.491.395-1.514 1.034-3.575 1.808-5.83a137.26 137.26 0 0 1 2.104-5.721c.572-1.447.967-2.33 1.026-2.314.059.026-.236.943-.732 2.423-.555 1.607-1.228 3.576-1.985 5.763a272.475 272.475 0 0 0-1.927 5.772c-.48 1.481-.724 2.414-.782 2.398Z"/><path fill="#00B307" d="M526.371 185.983c-1.733-6.428-.11-13.672 4.215-18.736 4.324-5.065 11.215-7.825 17.836-7.126 1.169 6.36-.808 12.889-4.165 18.425-3.962 6.511-11.837 9.271-17.886 7.437Z"/><path fill="#1A1A1A" d="M501.518 210.885c-.008-.008.11-.168.354-.454.278-.32.639-.724 1.085-1.237.968-1.06 2.373-2.574 4.139-4.425 3.526-3.702 8.456-8.758 13.941-14.311a1888.868 1888.868 0 0 1 14.117-14.142c1.801-1.767 3.265-3.206 4.325-4.241.488-.471.883-.849 1.194-1.135.278-.253.43-.387.438-.379.008.008-.118.16-.37.437-.286.303-.665.699-1.136 1.195-1.035 1.06-2.465 2.532-4.223 4.341-3.618 3.677-8.565 8.691-14.025 14.235-5.46 5.536-10.407 10.55-14.033 14.219-1.759 1.8-3.197 3.264-4.241 4.324-.471.488-.858.875-1.144 1.178-.261.269-.404.404-.421.395Z"/><path fill="#1A1A1A" d="M526.371 185.983c-1.733-6.428-.11-13.672 4.215-18.736 4.324-5.065 11.215-7.825 17.836-7.126 1.169 6.36-.808 12.889-4.165 18.425-3.962 6.511-11.837 9.271-17.886 7.437Z" opacity=".3"/><path fill="#00B307" d="M514.878 188.482c-3.634-1.868-6.251-5.604-6.764-9.659-.513-4.055 1.077-8.32 4.131-11.038 3.374 2.095 5.519 5.696 6.646 9.499 1.321 4.492-.681 9.212-4.013 11.198Z"/><path fill="#1A1A1A" d="M514.878 188.482c-3.634-1.868-6.251-5.604-6.764-9.659-.513-4.055 1.077-8.32 4.131-11.038 3.374 2.095 5.519 5.696 6.646 9.499 1.321 4.492-.681 9.212-4.013 11.198Z" opacity=".3"/><path fill="#1A1A1A" d="M516.191 195.651c-.025.008-.118-.269-.261-.766-.143-.505-.303-1.237-.48-2.145-.353-1.826-.723-4.358-1.06-7.168a161.93 161.93 0 0 1-.706-7.202c-.143-1.851-.185-2.995-.127-2.995.059-.008.211 1.127.43 2.97.227 1.96.513 4.442.832 7.185.337 2.801.657 5.334.934 7.168.278 1.817.505 2.936.438 2.953Z"/><path fill="#00B307" d="M357.342 285.99c2.566-6.049 8.304-10.643 14.765-11.821 6.461-1.178 13.453 1.102 17.979 5.856-9.541 7.403-20.671 12.451-32.744 5.965Z"/><path fill="#1A1A1A" d="M357.342 285.99c2.566-6.049 8.304-10.643 14.765-11.821 6.461-1.178 13.453 1.102 17.979 5.856-9.541 7.403-20.671 12.451-32.744 5.965Z" opacity=".3"/><path fill="#1A1A1A" d="M351.949 288.951c-.017-.025.252-.236.757-.589a29.95 29.95 0 0 1 2.204-1.397c1.902-1.119 4.661-2.465 7.867-3.525 3.205-1.051 6.226-1.607 8.421-1.842a29.306 29.306 0 0 1 2.608-.185c.615-.017.96-.009.96.025 0 .076-1.355.16-3.526.471-2.17.311-5.14.909-8.32 1.952a49.865 49.865 0 0 0-7.85 3.382c-1.935 1.026-3.079 1.767-3.121 1.708Z"/><path fill="#00B307" d="M135.562 176.368c4.594-2.146 10.265-1.818 14.581.849 4.315 2.667 7.151 7.581 7.294 12.654-9.297-.69-18.29-3.542-21.875-13.503Z"/><path fill="#1A1A1A" d="M135.562 176.368c4.594-2.146 10.265-1.818 14.581.849 4.315 2.667 7.151 7.581 7.294 12.654-9.297-.69-18.29-3.542-21.875-13.503Z" opacity=".3"/><path fill="#1A1A1A" d="M130.943 175.281c.009-.033.27-.017.741.034.471.042 1.161.151 1.994.32 1.674.336 3.954.975 6.343 2.027 2.39 1.052 4.409 2.297 5.78 3.306.69.505 1.228.934 1.582 1.254.362.32.547.496.53.522-.042.059-.875-.589-2.289-1.523a40.226 40.226 0 0 0-5.779-3.163 40.023 40.023 0 0 0-6.235-2.129c-1.64-.404-2.675-.581-2.667-.648Z"/><path fill="#00B307" d="M437.031 275.685c-.546-4.501 1.313-9.23 4.779-12.157 3.466-2.928 8.439-3.971 12.788-2.684-3.172 7.715-8.102 14.571-17.567 14.841Z"/><path fill="#1A1A1A" d="M434.819 279.311c-.042-.025.303-.9 1.052-2.238a27.977 27.977 0 0 1 3.491-4.838 28.705 28.705 0 0 1 4.425-3.996c1.245-.892 2.078-1.329 2.104-1.287.033.059-.741.589-1.919 1.531a35.607 35.607 0 0 0-4.29 4.039 35.775 35.775 0 0 0-3.551 4.703c-.799 1.287-1.245 2.111-1.312 2.086Z"/><path fill="#00B307" d="M503.235 231.978c-1.38-4.325-.446-9.314 2.406-12.839 2.852-3.525 7.538-5.485 12.056-5.039-1.666 8.177-5.216 15.833-14.462 17.878Z"/><path fill="#1A1A1A" d="M503.235 231.978c-1.38-4.325-.446-9.314 2.406-12.839 2.852-3.525 7.538-5.485 12.056-5.039-1.666 8.177-5.216 15.833-14.462 17.878Z" opacity=".3"/><path fill="#1A1A1A" d="M501.746 235.958c-.051-.017.126-.942.614-2.389.479-1.447 1.312-3.408 2.515-5.41a27.855 27.855 0 0 1 3.601-4.753c1.052-1.111 1.792-1.7 1.826-1.658.05.051-.614.715-1.599 1.868a36.144 36.144 0 0 0-3.457 4.779 36.074 36.074 0 0 0-2.6 5.291c-.547 1.389-.833 2.289-.9 2.272Z"/><path fill="#00B307" d="M4.19 171.816c.985-4.434 4.308-8.27 8.548-9.877 4.24-1.607 9.28-.942 12.948 1.725-5.544 6.217-12.477 11.046-21.496 8.152Z"/><path fill="#1A1A1A" d="M.9 174.501c-.033-.034.581-.749 1.734-1.759 1.144-1.009 2.852-2.28 4.896-3.398a28.691 28.691 0 0 1 5.503-2.297c1.463-.429 2.406-.564 2.414-.513.017.067-.892.311-2.322.807a36.787 36.787 0 0 0-5.393 2.381 36.735 36.735 0 0 0-4.913 3.256c-1.17.942-1.868 1.573-1.918 1.523Z"/><path fill="#fff" d="m388.749 62.024 6.764-12.191a32.297 32.297 0 0 1-4.964-16.936C390.381 14.994 404.75.338 422.662.162c17.903-.169 32.559 14.201 32.736 32.113.168 17.903-14.202 32.559-32.113 32.735-7.48.076-14.378-2.397-19.906-6.596l.008.017-14.638 3.593Z"/><path fill="#1A1A1A" d="M388.749 62.023c.757-.194 5.334-1.355 14.605-3.702l-.059.177-.008-.017-.514-.657.665.497a32.925 32.925 0 0 0 6.68 3.887c2.608 1.11 5.578 2.002 8.851 2.397 1.632.185 3.34.295 5.09.194.875-.059 1.766-.093 2.658-.177.892-.143 1.792-.294 2.709-.446a32.677 32.677 0 0 0 10.761-4.375 32.538 32.538 0 0 0 9.136-8.724c2.524-3.592 4.417-7.841 5.284-12.435.85-4.593.723-9.507-.53-14.243-1.262-4.72-3.567-9.33-6.991-13.1l-1.321-1.43c-.438-.48-.951-.875-1.422-1.312-.488-.412-.934-.884-1.464-1.254l-1.548-1.136c-.505-.395-1.052-.715-1.599-1.034l-1.632-.968c-.572-.27-1.144-.538-1.708-.808-.572-.26-1.127-.563-1.724-.748A32.737 32.737 0 0 0 420.29.53c-4.746.378-9.272 1.783-13.15 4.004a32.58 32.58 0 0 0-9.692 8.405 32.59 32.59 0 0 0-5.401 10.45c-1.086 3.592-1.363 7.159-1.33 10.457.227 6.646 2.474 12.098 4.88 15.943l.034.05-.034.05c-4.358 7.724-6.478 11.485-6.848 12.133.353-.657 2.423-4.443 6.671-12.242v.11a32.253 32.253 0 0 1-4.997-16.044c-.042-3.332.219-6.933 1.304-10.567a33.116 33.116 0 0 1 5.426-10.576 32.808 32.808 0 0 1 9.793-8.522c3.921-2.263 8.514-3.685 13.31-4.072 4.804-.395 9.835.27 14.572 2.095.605.185 1.169.496 1.749.757.573.27 1.153.547 1.734.825l1.657.984c.555.328 1.119.648 1.624 1.052l1.565 1.152c.538.37.984.85 1.48 1.27.48.446 1.001.842 1.439 1.33l1.338 1.447c3.474 3.828 5.813 8.489 7.084 13.284a33.19 33.19 0 0 1 .521 14.437c-.875 4.661-2.801 8.96-5.367 12.586a32.712 32.712 0 0 1-9.263 8.809 33.04 33.04 0 0 1-10.895 4.4c-.926.152-1.835.295-2.735.438-.908.084-1.809.117-2.692.176-1.767.101-3.491-.017-5.14-.21-3.307-.404-6.302-1.32-8.918-2.457a32.821 32.821 0 0 1-6.706-3.962l.152-.152.008.017.101.135-.168.042c-9.288 2.187-13.89 3.28-14.647 3.458Z"/><path fill="#00B307" d="m413.98 27.032 4.215-.043s-.034-3.541 3.643-3.643c1.909-.05 2.911 1.195 3.323 2.146.479 1.11.345 2.38-.269 3.416-.707 1.186-2.263 2.271-5.107 1.8l.092 9.515 4.173-.042-.05-5.57s5.839-1.564 5.771-8.017c-.059-6.167-5.603-7.547-7.975-7.521-1.801.025-7.968.521-7.816 7.959ZM424.144 42.15l-4.231.041.038 3.955 4.231-.041-.038-3.954Z"/></g><defs><clipPath id="a"><path fill="#fff" d="M.9 0h582.714v354.028H.9z"/></clipPath></defs></svg>