<svg width="74" height="60" viewBox="0 0 74 60" fill="none" xmlns="http://www.w3.org/2000/svg">
<path d="M29.7074 17.5406C29.4934 14.3143 32.3965 11.4567 35.6639 11.5614C38.8428 11.6634 41.4377 14.3552 41.3382 17.5647C41.324 18.0233 41.2627 18.5089 41.0932 18.9296C39.8338 22.0563 37.7585 24.6391 35.506 27.3466C34.7629 26.4234 34.0318 25.6547 33.4637 24.7802C32.2903 22.9739 31.1736 21.1284 30.1027 19.2594C29.8363 18.7944 29.8336 18.1782 29.7074 17.5406ZM33.4445 21.5352C33.8433 22.0621 34.2122 22.6167 34.6591 23.099C34.793 23.2435 35.273 23.3018 35.3686 23.1959C35.5387 23.0074 35.6857 22.5746 35.5814 22.3994C35.0595 21.523 34.4874 20.6695 33.8518 19.8727C33.693 19.6736 33.2337 19.7141 32.9125 19.6445C32.8956 19.9099 32.8082 20.1962 32.8787 20.436C32.9795 20.7789 33.1959 21.0878 33.4445 21.5352Z" fill="#A1E4B1"/>
<path d="M28.9355 20.3654C26.4536 19.3694 24.7842 17.507 23.6845 15.1615C22.0675 11.7128 22.2166 8.27771 24.0659 4.92028C24.2005 4.67589 24.1687 4.23702 24.0426 3.96947C23.4801 2.77613 22.8552 1.61219 22.2 0.334545C22.732 0.187708 23.0651 0.0957749 23.4117 0.00012207C23.9813 1.128 24.5316 2.2174 25.0046 3.15385C26.5732 2.39634 27.9808 1.43412 29.5347 1.0185C34.4616 -0.299378 39.6929 1.64364 42.524 6.12526C43.9982 8.45881 45.4178 10.8432 47.091 13.0295C48.4518 14.8075 50.1536 16.3247 51.7759 18.0332C48.7385 19.885 45.2223 20.5663 41.5614 21.1591C41.677 20.3202 41.8649 19.8594 42.7785 19.7143C44.536 19.4351 46.2607 18.9494 47.999 18.5494C47.993 18.4664 47.987 18.3835 47.981 18.3005C46.5047 17.9294 45.0367 17.5188 43.5488 17.2021C42.6708 17.0152 42.3328 16.5439 42.4199 15.6074C44.6002 16.1566 46.7629 16.7014 48.9256 17.2461C48.9625 17.1803 48.9993 17.1144 49.0362 17.0485C48.2129 16.172 47.2883 15.369 46.5878 14.4034C45.1838 12.468 43.8423 10.4807 42.5858 8.44632C41.0922 6.02813 39.4784 3.73616 36.7113 2.68262C33.2246 1.35508 29.8231 1.40551 26.6913 3.7298C26.4261 3.92662 26.1847 4.15553 25.9456 4.35827C26.4714 5.59891 27.5405 5.96159 28.5589 6.09788C29.9575 6.28508 31.3993 6.26589 32.8138 6.18419C34.1041 6.10967 34.2483 6.12688 34.2389 7.39371C32.4004 7.39371 30.5589 7.39371 28.7173 7.39371C28.6668 7.45899 28.6162 7.52428 28.5657 7.58957C29.8489 8.67589 31.1321 9.76221 32.447 10.8754C31.8417 11.4593 31.2756 11.5704 30.578 10.9418C29.7743 10.2174 28.8928 9.57944 28.0053 8.87228C27.9252 10.5809 27.8483 12.2209 27.7715 13.8583C26.4988 13.821 26.4808 13.7276 26.5963 12.6589C26.8252 10.5407 27.061 8.40022 25.803 6.46718C25.6324 6.20504 25.4081 5.97786 25.1445 5.65625C23.8618 7.72017 23.6931 9.84983 23.9965 12.0161C24.3746 14.7164 25.8049 16.806 27.9419 18.4876C28.4293 18.8712 28.6209 19.6308 28.9409 20.2928C28.9332 20.3682 28.9355 20.3654 28.9355 20.3654Z" fill="#A4E5B4"/>
<path d="M33.4037 21.4733C33.1959 21.0879 32.9795 20.7789 32.8787 20.436C32.8082 20.1962 32.8957 19.91 32.9125 19.6445C33.2337 19.7141 33.693 19.6736 33.8518 19.8727C34.4874 20.6695 35.0595 21.523 35.5814 22.3995C35.6857 22.5747 35.5387 23.0074 35.3686 23.1959C35.273 23.3019 34.793 23.2435 34.6591 23.099C34.2122 22.6167 33.8433 22.0621 33.4037 21.4733Z" fill="#FAFEFB"/>
<path d="M11.597 35.7315C11.5093 35.4065 11.3804 35.1203 11.2102 34.8727C11.04 34.62 10.8311 34.4059 10.5835 34.2306C10.336 34.0552 10.0523 33.9237 9.73251 33.836C9.41274 33.7432 9.06202 33.6968 8.68035 33.6968C7.91186 33.6968 7.24652 33.8824 6.68433 34.2538C6.12731 34.6251 5.69664 35.1667 5.39234 35.8784C5.08804 36.585 4.93589 37.4438 4.93589 38.4547C4.93589 39.4708 5.08288 40.3372 5.37687 41.0542C5.67085 41.7711 6.09636 42.3178 6.65339 42.6943C7.21042 43.0708 7.88607 43.2591 8.68035 43.2591C9.38179 43.2591 9.97493 43.1456 10.4597 42.9187C10.9497 42.6866 11.3211 42.3591 11.5738 41.9361C11.8265 41.5132 11.9529 41.0155 11.9529 40.443L12.6646 40.5281H8.81187V37.7352H15.6432V39.8318C15.6432 41.2502 15.3415 42.4648 14.738 43.4757C14.1397 44.4866 13.3145 45.2628 12.2623 45.8044C11.2153 46.3459 10.011 46.6167 8.64941 46.6167C7.13821 46.6167 5.81011 46.2892 4.66511 45.6342C3.52011 44.9791 2.62783 44.0456 1.98828 42.8336C1.34873 41.6164 1.02895 40.1722 1.02895 38.5011C1.02895 37.2014 1.22237 36.0487 1.60919 35.0429C1.99602 34.032 2.53499 33.1758 3.22612 32.4744C3.9224 31.7729 4.727 31.2417 5.63991 30.8807C6.55797 30.5196 7.54566 30.3391 8.60299 30.3391C9.52105 30.3391 10.3746 30.4706 11.1638 30.7337C11.958 30.9967 12.6595 31.3681 13.2681 31.8477C13.8819 32.3274 14.3796 32.8973 14.7612 33.5575C15.1429 34.2177 15.3802 34.9423 15.473 35.7315H11.597ZM17.9003 46.4001V30.5557H24.4454C25.6317 30.5557 26.6555 30.7698 27.5168 31.1979C28.3833 31.6208 29.0512 32.2294 29.5205 33.0237C29.9899 33.8128 30.2246 34.7489 30.2246 35.832C30.2246 36.9306 29.9847 37.8641 29.5051 38.6326C29.0254 39.396 28.3446 39.9788 27.4626 40.3811C26.5807 40.7782 25.5362 40.9768 24.3294 40.9768H20.1903V37.9596H23.6176C24.1953 37.9596 24.6775 37.8848 25.0643 37.7352C25.4563 37.5805 25.7529 37.3484 25.954 37.0389C26.1552 36.7243 26.2557 36.322 26.2557 35.832C26.2557 35.3421 26.1552 34.9372 25.954 34.6174C25.7529 34.2925 25.4563 34.0501 25.0643 33.8902C24.6723 33.7251 24.1901 33.6426 23.6176 33.6426H21.7299V46.4001H17.9003ZM26.8205 39.1587L30.7661 46.4001H26.5884L22.7202 39.1587H26.8205ZM32.325 46.4001V30.5557H43.3727V33.6658H36.1546V36.9151H42.808V40.0329H36.1546V43.29H43.3727V46.4001H32.325ZM45.7711 46.4001V30.5557H56.8188V33.6658H49.6006V36.9151H56.254V40.0329H49.6006V43.29H56.8188V46.4001H45.7711ZM72.7018 30.5557V46.4001H69.4525L63.1472 37.2555H63.0467V46.4001H59.2171V30.5557H62.5128L68.7485 39.6848H68.88V30.5557H72.7018Z" fill="black"/>
<path d="M7.01441 51.0717V53.5881H9.75761V54.3981H7.01441V56.9901H10.0816V57.8001H6.03161V50.2617H10.0816V51.0717H7.01441ZM12.8215 54.0309C12.8215 53.2965 12.9871 52.6377 13.3183 52.0545C13.6495 51.4641 14.0995 51.0033 14.6683 50.6721C15.2443 50.3409 15.8815 50.1753 16.5799 50.1753C17.4007 50.1753 18.1171 50.3733 18.7291 50.7693C19.3411 51.1653 19.7875 51.7269 20.0683 52.4541H18.8911C18.6823 52.0005 18.3799 51.6513 17.9839 51.4065C17.5951 51.1617 17.1271 51.0393 16.5799 51.0393C16.0543 51.0393 15.5827 51.1617 15.1651 51.4065C14.7475 51.6513 14.4199 52.0005 14.1823 52.4541C13.9447 52.9005 13.8259 53.4261 13.8259 54.0309C13.8259 54.6285 13.9447 55.1541 14.1823 55.6077C14.4199 56.0541 14.7475 56.3997 15.1651 56.6445C15.5827 56.8893 16.0543 57.0117 16.5799 57.0117C17.1271 57.0117 17.5951 56.8929 17.9839 56.6553C18.3799 56.4105 18.6823 56.0613 18.8911 55.6077H20.0683C19.7875 56.3277 19.3411 56.8857 18.7291 57.2817C18.1171 57.6705 17.4007 57.8649 16.5799 57.8649C15.8815 57.8649 15.2443 57.7029 14.6683 57.3789C14.0995 57.0477 13.6495 56.5905 13.3183 56.0073C12.9871 55.4241 12.8215 54.7653 12.8215 54.0309ZM26.5641 57.8757C25.8657 57.8757 25.2285 57.7137 24.6525 57.3897C24.0765 57.0585 23.6193 56.6013 23.2809 56.0181C22.9497 55.4277 22.7841 54.7653 22.7841 54.0309C22.7841 53.2965 22.9497 52.6377 23.2809 52.0545C23.6193 51.4641 24.0765 51.0069 24.6525 50.6829C25.2285 50.3517 25.8657 50.1861 26.5641 50.1861C27.2697 50.1861 27.9105 50.3517 28.4865 50.6829C29.0625 51.0069 29.5161 51.4605 29.8473 52.0437C30.1785 52.6269 30.3441 53.2893 30.3441 54.0309C30.3441 54.7725 30.1785 55.4349 29.8473 56.0181C29.5161 56.6013 29.0625 57.0585 28.4865 57.3897C27.9105 57.7137 27.2697 57.8757 26.5641 57.8757ZM26.5641 57.0225C27.0897 57.0225 27.5613 56.9001 27.9789 56.6553C28.4037 56.4105 28.7349 56.0613 28.9725 55.6077C29.2173 55.1541 29.3397 54.6285 29.3397 54.0309C29.3397 53.4261 29.2173 52.9005 28.9725 52.4541C28.7349 52.0005 28.4073 51.6513 27.9897 51.4065C27.5721 51.1617 27.0969 51.0393 26.5641 51.0393C26.0313 51.0393 25.5561 51.1617 25.1385 51.4065C24.7209 51.6513 24.3897 52.0005 24.1449 52.4541C23.9073 52.9005 23.7885 53.4261 23.7885 54.0309C23.7885 54.6285 23.9073 55.1541 24.1449 55.6077C24.3897 56.0613 24.7209 56.4105 25.1385 56.6553C25.5633 56.9001 26.0385 57.0225 26.5641 57.0225ZM39.1799 57.8001H38.1971L34.2443 51.8061V57.8001H33.2615V50.2617H34.2443L38.1971 56.2449V50.2617H39.1799V57.8001ZM45.8881 57.8757C45.1897 57.8757 44.5525 57.7137 43.9765 57.3897C43.4005 57.0585 42.9433 56.6013 42.6049 56.0181C42.2737 55.4277 42.1081 54.7653 42.1081 54.0309C42.1081 53.2965 42.2737 52.6377 42.6049 52.0545C42.9433 51.4641 43.4005 51.0069 43.9765 50.6829C44.5525 50.3517 45.1897 50.1861 45.8881 50.1861C46.5937 50.1861 47.2345 50.3517 47.8105 50.6829C48.3865 51.0069 48.8401 51.4605 49.1713 52.0437C49.5025 52.6269 49.6681 53.2893 49.6681 54.0309C49.6681 54.7725 49.5025 55.4349 49.1713 56.0181C48.8401 56.6013 48.3865 57.0585 47.8105 57.3897C47.2345 57.7137 46.5937 57.8757 45.8881 57.8757ZM45.8881 57.0225C46.4137 57.0225 46.8853 56.9001 47.3029 56.6553C47.7277 56.4105 48.0589 56.0613 48.2965 55.6077C48.5413 55.1541 48.6637 54.6285 48.6637 54.0309C48.6637 53.4261 48.5413 52.9005 48.2965 52.4541C48.0589 52.0005 47.7313 51.6513 47.3137 51.4065C46.8961 51.1617 46.4209 51.0393 45.8881 51.0393C45.3553 51.0393 44.8801 51.1617 44.4625 51.4065C44.0449 51.6513 43.7137 52.0005 43.4689 52.4541C43.2313 52.9005 43.1125 53.4261 43.1125 54.0309C43.1125 54.6285 43.2313 55.1541 43.4689 55.6077C43.7137 56.0613 44.0449 56.4105 44.4625 56.6553C44.8873 56.9001 45.3625 57.0225 45.8881 57.0225ZM60.2211 50.3265V57.8001H59.2383V52.2273L56.7543 57.8001H56.0631L53.5683 52.2165V57.8001H52.5855V50.3265H53.6439L56.4087 56.5041L59.1735 50.3265H60.2211ZM68.7783 50.2725L66.3267 54.9597V57.8001H65.3439V54.9597L62.8815 50.2725H63.9723L65.8299 54.0849L67.6875 50.2725H68.7783Z" fill="#A1E4B1"/>
</svg>
