<svg width="118" height="42" viewBox="0 0 118 42" fill="none" xmlns="http://www.w3.org/2000/svg">
<g clip-path="url(#clip0_221_1182)">
<path opacity="0.3" d="M117.738 39.2357C117.738 40.4117 117.206 41.3662 116.558 41.3586H1.79697C1.14141 41.3586 0.609253 40.4117 0.609253 39.2357V2.50475C0.616965 1.32111 1.15683 0.381836 1.79697 0.381836H116.558C117.206 0.381836 117.738 1.32875 117.738 2.49711V39.2357Z" fill="#FDFEFF" stroke="#E0E1E0" stroke-width="0.771242" stroke-miterlimit="10"/>
<path d="M18.6872 36.3796V8.33887H6.67898V17.3345C6.67898 17.3345 5.78434 29.82 18.6872 36.3796Z" fill="#00950B"/>
<path d="M18.6872 36.3796V8.33887H30.5797V17.3345C30.5797 17.3345 31.459 29.8123 18.6872 36.372V36.3796Z" fill="#339044"/>
<path d="M30.5798 8.33891H6.67126V5.32255C6.67126 5.32255 7.04917 4.07782 8.50682 3.87927H28.7673C28.7673 3.87927 30.1247 4.12364 30.5798 5.49818L30.5721 8.33891H30.5798Z" fill="#DFE0E0"/>
<path d="M9.56341 6.83456C9.9638 6.83456 10.2884 6.51318 10.2884 6.11674C10.2884 5.7203 9.9638 5.39893 9.56341 5.39893C9.16302 5.39893 8.83844 5.7203 8.83844 6.11674C8.83844 6.51318 9.16302 6.83456 9.56341 6.83456Z" fill="white"/>
<path d="M12.1625 6.83456C12.5629 6.83456 12.8874 6.51318 12.8874 6.11674C12.8874 5.7203 12.5629 5.39893 12.1625 5.39893C11.7621 5.39893 11.4375 5.7203 11.4375 6.11674C11.4375 6.51318 11.7621 6.83456 12.1625 6.83456Z" fill="white"/>
<path d="M18.4789 20.8854C20.6896 20.8854 22.4817 19.111 22.4817 16.9221C22.4817 14.7333 20.6896 12.9589 18.4789 12.9589C16.2683 12.9589 14.4762 14.7333 14.4762 16.9221C14.4762 19.111 16.2683 20.8854 18.4789 20.8854Z" fill="white"/>
<path d="M18.664 31.8972L16.2346 29.4612C16.2346 29.4612 18.6255 27.3994 21.0395 29.4612L18.664 31.9048V31.8972ZM15.2706 28.3615L14.4762 27.3535C14.4762 27.3535 18.1782 24.0088 22.7593 27.2008L22.0035 28.2317C22.0035 28.2317 18.5175 25.5513 15.2706 28.3615Z" fill="white"/>
<path d="M23.9471 24.5814L23.4303 25.8185C23.4303 25.8185 18.3478 22.3974 13.8052 25.9942L13.2114 24.7112C13.2114 24.7112 18.1627 20.8702 23.9471 24.5814Z" fill="white"/>
<path d="M44.9326 12.6687V15.2116H51.0716C50.9786 16.4045 50.4875 17.5328 49.6757 18.4189C49.0602 19.0396 48.32 19.5254 47.503 19.8451C46.686 20.1647 45.8103 20.311 44.9326 20.2745C44.0412 20.2736 43.1589 20.0974 42.3368 19.7562C41.5147 19.415 40.7692 18.9156 40.1436 18.2869C39.518 17.6583 39.0247 16.9128 38.6923 16.0939C38.3599 15.275 38.1951 14.3988 38.2073 13.5163C38.1891 12.2067 38.561 10.9207 39.2765 9.81902C39.992 8.71734 41.0194 7.84875 42.2304 7.3217C43.4414 6.79466 44.7824 6.63252 46.086 6.85552C47.3895 7.07852 48.5978 7.67678 49.56 8.57561L51.3647 6.79634C50.5229 5.96007 49.5194 5.30047 48.4142 4.85698C47.309 4.4135 46.1249 4.19524 44.9326 4.21525C39.7652 4.21525 35.4077 8.39234 35.4077 13.5163C35.4077 18.6327 39.7575 22.8098 44.9326 22.8098C47.7322 22.8098 49.8377 21.9011 51.4881 20.2134C53.1771 18.5334 53.7093 16.1662 53.7093 14.2647C53.7093 13.6767 53.6707 13.1345 53.5782 12.6763H44.9403L44.9326 12.6687Z" fill="#547DBF"/>
<path d="M61.3831 10.5991C60.5806 10.5837 59.7832 10.7284 59.0385 11.0246C58.2937 11.3209 57.6169 11.7626 57.0483 12.3235C56.4796 12.8843 56.0309 13.5528 55.7289 14.2891C55.4269 15.0254 55.2777 15.8144 55.2903 16.609C55.2809 17.4023 55.4323 18.1895 55.7356 18.924C56.0388 19.6584 56.4877 20.3251 57.0558 20.8847C57.6239 21.4444 58.2995 21.8855 59.0428 22.182C59.7861 22.4786 60.5819 22.6245 61.3831 22.6111C62.1833 22.6235 62.9779 22.4767 63.7199 22.1797C64.4618 21.8826 65.1361 21.4412 65.7027 20.8816C66.2693 20.3219 66.7168 19.6555 67.0188 18.9216C67.3207 18.1877 67.4709 17.4013 67.4605 16.609C67.473 15.8157 67.3243 15.028 67.0232 14.2927C66.7221 13.5575 66.2748 12.8897 65.7079 12.329C65.1409 11.7684 64.4659 11.3263 63.7229 11.0292C62.98 10.732 62.1843 10.5857 61.3831 10.5991ZM61.3831 20.2439C59.5398 20.2439 57.9588 18.7471 57.9588 16.609C57.9588 14.4479 59.5475 12.9664 61.3831 12.9664C63.2186 12.9664 64.7997 14.4479 64.7997 16.609C64.7997 18.7471 63.2186 20.2439 61.3831 20.2439Z" fill="#E94636"/>
<path d="M91.207 11.9432H91.1068C90.7018 11.507 90.2075 11.1615 89.6569 10.9298C89.1063 10.698 88.512 10.5853 87.9138 10.5992C84.8906 10.5992 82.2529 13.2184 82.2529 16.609C82.2529 19.969 84.8906 22.6112 87.9138 22.6112C89.3638 22.6112 90.5129 21.9697 91.1145 21.2443H91.207V22.0843C91.207 24.3752 89.9576 25.6046 87.9678 25.6046C86.3482 25.6046 85.3302 24.4439 84.9137 23.4664L82.6 24.4134C83.0364 25.4662 83.7805 26.3661 84.7369 26.9974C85.6933 27.6287 86.8184 27.9627 87.9678 27.9566C91.0914 27.9566 93.729 26.1392 93.729 21.7101V10.9123H91.207V11.9432ZM88.1452 20.2439C86.3097 20.2439 84.906 18.6937 84.906 16.609C84.906 14.4861 86.3097 12.9664 88.1452 12.9664C89.9576 12.9664 91.3844 14.5166 91.3844 16.6319C91.3921 18.7243 89.9576 20.2439 88.1452 20.2439Z" fill="#547DBF"/>
<path d="M74.9493 10.5992C71.5944 10.5992 68.8565 13.1192 68.8565 16.6091C68.8471 17.4024 68.9985 18.1896 69.3018 18.924C69.605 19.6585 70.054 20.3252 70.622 20.8848C71.1901 21.4445 71.8658 21.8856 72.609 22.1821C73.3523 22.4786 74.1481 22.6246 74.9493 22.6112C75.7495 22.6236 76.5441 22.4768 77.2861 22.1798C78.028 21.8827 78.7023 21.4413 79.2689 20.8816C79.8355 20.322 80.283 19.6556 80.585 18.9217C80.8869 18.1878 81.0371 17.4014 81.0267 16.6091C81.0392 15.8158 80.8905 15.0281 80.5894 14.2928C80.2883 13.5576 79.841 12.8898 79.2741 12.3291C78.7071 11.7685 78.0321 11.3264 77.2891 11.0292C76.5462 10.7321 75.7505 10.5858 74.9493 10.5992ZM74.9493 20.244C73.106 20.244 71.525 18.7472 71.525 16.6091C71.525 14.448 73.1137 12.9665 74.9493 12.9665C76.7849 12.9665 78.3659 14.448 78.3659 16.6091C78.3659 18.7472 76.7849 20.244 74.9493 20.244Z" fill="#F7BB17"/>
<path d="M95.8191 4.45203H98.4413V22.6037H95.8191V4.45203Z" fill="#34A750"/>
<path d="M106.524 20.2363C105.905 20.2611 105.294 20.1009 104.768 19.7768C104.243 19.4527 103.828 18.9795 103.578 18.4189L111.684 15.1047L111.414 14.4174C110.912 13.0811 109.37 10.5992 106.231 10.5992C103.107 10.5992 100.508 13.0276 100.508 16.6091C100.489 17.3985 100.632 18.1835 100.927 18.9172C101.222 19.6508 101.664 20.3178 102.225 20.8783C102.787 21.4388 103.457 21.8812 104.196 22.179C104.935 22.4768 105.727 22.6238 106.524 22.6112C109.3 22.6112 110.905 20.9236 111.576 19.9538L109.509 18.5869C109.198 19.0949 108.76 19.5145 108.237 19.805C107.714 20.0954 107.124 20.2466 106.524 20.244V20.2363ZM106.331 12.852C107.411 12.852 108.329 13.4018 108.629 14.1807L103.154 16.4182C103.154 13.8982 104.958 12.852 106.331 12.852Z" fill="#E94636"/>
<path d="M35.6476 35.0546V26.641H36.6664V34.1508H40.5774V35.0546H35.6476ZM44.587 35.186C44.0173 35.186 43.5175 35.0505 43.0875 34.7793C42.6603 34.5082 42.3261 34.1289 42.0851 33.6414C41.8469 33.1538 41.7277 32.5842 41.7277 31.9324C41.7277 31.275 41.8469 30.7013 42.0851 30.211C42.3261 29.7208 42.6603 29.3401 43.0875 29.069C43.5175 28.7978 44.0173 28.6622 44.587 28.6622C45.1567 28.6622 45.6551 28.7978 46.0824 29.069C46.5124 29.3401 46.8465 29.7208 47.0848 30.211C47.3258 30.7013 47.4463 31.275 47.4463 31.9324C47.4463 32.5842 47.3258 33.1538 47.0848 33.6414C46.8465 34.1289 46.5124 34.5082 46.0824 34.7793C45.6551 35.0505 45.1567 35.186 44.587 35.186ZM44.587 34.3151C45.0197 34.3151 45.3758 34.2042 45.6551 33.9823C45.9345 33.7605 46.1413 33.4688 46.2755 33.1073C46.4097 32.7458 46.4768 32.3541 46.4768 31.9324C46.4768 31.5106 46.4097 31.1176 46.2755 30.7533C46.1413 30.389 45.9345 30.0946 45.6551 29.87C45.3758 29.6455 45.0197 29.5332 44.587 29.5332C44.1543 29.5332 43.7982 29.6455 43.5189 29.87C43.2395 30.0946 43.0327 30.389 42.8985 30.7533C42.7643 31.1176 42.6972 31.5106 42.6972 31.9324C42.6972 32.3541 42.7643 32.7458 42.8985 33.1073C43.0327 33.4688 43.2395 33.7605 43.5189 33.9823C43.7982 34.2042 44.1543 34.3151 44.587 34.3151ZM48.9263 28.7444H49.8958V35.5147C49.8958 35.9036 49.8287 36.2405 49.6945 36.5253C49.563 36.8101 49.3631 37.0306 49.0947 37.1867C48.829 37.3428 48.4935 37.4209 48.0882 37.4209C48.0553 37.4209 48.0225 37.4209 47.9896 37.4209C47.9567 37.4209 47.9239 37.4209 47.891 37.4209V36.5171C47.9239 36.5171 47.954 36.5171 47.9814 36.5171C48.0088 36.5171 48.0389 36.5171 48.0718 36.5171C48.3676 36.5171 48.5839 36.4294 48.7209 36.2542C48.8578 36.0816 48.9263 35.8351 48.9263 35.5147V28.7444ZM49.4028 27.6927C49.2138 27.6927 49.0509 27.6284 48.9139 27.4996C48.7797 27.3709 48.7126 27.2162 48.7126 27.0354C48.7126 26.8546 48.7797 26.6999 48.9139 26.5712C49.0509 26.4425 49.2138 26.3781 49.4028 26.3781C49.5918 26.3781 49.7534 26.4425 49.8876 26.5712C50.0245 26.6999 50.093 26.8546 50.093 27.0354C50.093 27.2162 50.0245 27.3709 49.8876 27.4996C49.7534 27.6284 49.5918 27.6927 49.4028 27.6927ZM53.5285 35.2025C53.1286 35.2025 52.7657 35.1271 52.4398 34.9765C52.1139 34.8231 51.8551 34.6027 51.6633 34.3151C51.4716 34.0248 51.3758 33.6742 51.3758 33.2634C51.3758 32.9019 51.447 32.6088 51.5894 32.3843C51.7318 32.1569 51.9222 31.9789 52.1604 31.8502C52.3987 31.7215 52.6616 31.6256 52.9492 31.5626C53.2395 31.4969 53.5312 31.4448 53.8242 31.4065C54.2077 31.3572 54.5185 31.3202 54.7568 31.2956C54.9978 31.2682 55.1731 31.223 55.2826 31.16C55.3949 31.097 55.4511 30.9875 55.4511 30.8314V30.7985C55.4511 30.3932 55.3402 30.0782 55.1183 29.8536C54.8992 29.629 54.5665 29.5167 54.12 29.5167C53.6572 29.5167 53.2943 29.6181 53.0314 29.8207C52.7684 30.0234 52.5836 30.2398 52.4768 30.4698L51.5565 30.1412C51.7209 29.7578 51.94 29.4592 52.2138 29.2456C52.4905 29.0292 52.7917 28.8786 53.1176 28.7937C53.4463 28.7061 53.7695 28.6622 54.0872 28.6622C54.2898 28.6622 54.5226 28.6869 54.7856 28.7362C55.0512 28.7827 55.3073 28.88 55.5538 29.0279C55.803 29.1758 56.0098 29.399 56.1741 29.6975C56.3384 29.996 56.4206 30.3959 56.4206 30.8971V35.0546H55.4511V34.2001H55.4018C55.3361 34.337 55.2265 34.4835 55.0731 34.6396C54.9198 34.7958 54.7157 34.9286 54.461 35.0381C54.2063 35.1477 53.8955 35.2025 53.5285 35.2025ZM53.6763 34.3315C54.0598 34.3315 54.383 34.2562 54.6459 34.1056C54.9115 33.9549 55.1115 33.7605 55.2457 33.5222C55.3826 33.2839 55.4511 33.0333 55.4511 32.7704V31.8831C55.41 31.9324 55.3196 31.9775 55.1799 32.0186C55.043 32.057 54.8842 32.0912 54.7034 32.1213C54.5254 32.1487 54.3515 32.1734 54.1817 32.1953C54.0146 32.2144 53.879 32.2309 53.7749 32.2446C53.523 32.2774 53.2874 32.3308 53.0683 32.4048C52.852 32.476 52.6767 32.5842 52.5425 32.7293C52.411 32.8718 52.3453 33.0662 52.3453 33.3127C52.3453 33.6496 52.4699 33.9043 52.7191 34.0768C52.9711 34.2466 53.2902 34.3315 53.6763 34.3315ZM66.1765 28.7444C66.1272 28.3281 65.9273 28.0049 65.5767 27.7749C65.2261 27.5448 64.7962 27.4298 64.2867 27.4298C63.9143 27.4298 63.5884 27.49 63.309 27.6105C63.0324 27.7311 62.816 27.8968 62.6599 28.1076C62.5065 28.3185 62.4298 28.5582 62.4298 28.8266C62.4298 29.0511 62.4833 29.2442 62.5901 29.4058C62.6996 29.5647 62.8393 29.6975 63.0091 29.8043C63.1789 29.9084 63.3569 29.9947 63.5432 30.0631C63.7294 30.1289 63.9006 30.1823 64.0567 30.2233L64.9112 30.4534C65.1303 30.5109 65.374 30.5903 65.6424 30.6917C65.9136 30.793 66.1724 30.9313 66.4189 31.1066C66.6681 31.2792 66.8735 31.501 67.0351 31.7721C67.1967 32.0433 67.2775 32.376 67.2775 32.7704C67.2775 33.2251 67.1584 33.6359 66.9201 34.0029C66.6845 34.3699 66.3395 34.6615 65.8848 34.8779C65.4329 35.0943 64.8838 35.2025 64.2374 35.2025C63.6349 35.2025 63.1132 35.1052 62.6722 34.9108C62.234 34.7163 61.8889 34.4452 61.637 34.0974C61.3877 33.7495 61.2467 33.3456 61.2138 32.8854H62.2655C62.2929 33.2031 62.3997 33.4661 62.586 33.6742C62.7749 33.8796 63.0132 34.033 63.3008 34.1343C63.5911 34.2329 63.9033 34.2822 64.2374 34.2822C64.6264 34.2822 64.9755 34.2192 65.285 34.0933C65.5945 33.9645 65.8396 33.7865 66.0204 33.5592C66.2012 33.3291 66.2915 33.0607 66.2915 32.754C66.2915 32.4746 66.2135 32.2473 66.0574 32.072C65.9013 31.8967 65.6958 31.7543 65.4411 31.6448C65.1864 31.5352 64.9112 31.4394 64.6154 31.3572L63.5801 31.0614C62.9228 30.8724 62.4025 30.6027 62.019 30.2521C61.6356 29.9015 61.4439 29.4428 61.4439 28.8759C61.4439 28.4048 61.5712 27.994 61.8259 27.6434C62.0834 27.2901 62.4285 27.0162 62.8612 26.8218C63.2967 26.6246 63.7828 26.526 64.3196 26.526C64.8619 26.526 65.3439 26.6232 65.7657 26.8177C66.1875 27.0094 66.5216 27.2723 66.7681 27.6064C67.0173 27.9406 67.1488 28.3199 67.1625 28.7444H66.1765ZM71.4668 35.186C70.8588 35.186 70.3343 35.0518 69.8934 34.7834C69.4552 34.5123 69.1169 34.1343 68.8787 33.6496C68.6431 33.1621 68.5254 32.5951 68.5254 31.9488C68.5254 31.3024 68.6431 30.7328 68.8787 30.2398C69.1169 29.7441 69.4483 29.3579 69.8728 29.0813C70.3001 28.8019 70.7985 28.6622 71.3682 28.6622C71.6969 28.6622 72.0214 28.717 72.3419 28.8266C72.6623 28.9361 72.954 29.1141 73.2169 29.3606C73.4798 29.6044 73.6893 29.9276 73.8454 30.3302C74.0016 30.7328 74.0796 31.2285 74.0796 31.8173V32.2281H69.2155V31.3901H73.0936C73.0936 31.034 73.0224 30.7163 72.88 30.437C72.7403 30.1576 72.5404 29.9371 72.2802 29.7756C72.0228 29.614 71.7188 29.5332 71.3682 29.5332C70.982 29.5332 70.6479 29.629 70.3658 29.8207C70.0865 30.0097 69.8715 30.2562 69.7208 30.5602C69.5702 30.8642 69.4949 31.1901 69.4949 31.538V32.0967C69.4949 32.5732 69.577 32.9772 69.7414 33.3086C69.9084 33.6372 70.1399 33.8878 70.4357 34.0604C70.7314 34.2302 71.0752 34.3151 71.4668 34.3151C71.7215 34.3151 71.9516 34.2795 72.157 34.2083C72.3651 34.1343 72.5445 34.0248 72.6952 33.8796C72.8458 33.7317 72.9622 33.5482 73.0443 33.3291L73.981 33.5921C73.8824 33.9098 73.7167 34.1891 73.4839 34.4301C73.2511 34.6684 72.9636 34.8546 72.6212 34.9888C72.2789 35.1203 71.8941 35.186 71.4668 35.186ZM78.1015 37.5523C77.6332 37.5523 77.2306 37.4921 76.8937 37.3716C76.5568 37.2538 76.2761 37.0977 76.0515 36.9032C75.8297 36.7115 75.653 36.5061 75.5216 36.287L76.2939 35.7447C76.3816 35.8598 76.4925 35.9912 76.6267 36.1391C76.7609 36.2898 76.9444 36.4198 77.1772 36.5294C77.4127 36.6417 77.7208 36.6978 78.1015 36.6978C78.6109 36.6978 79.0313 36.5746 79.3627 36.3281C79.6941 36.0816 79.8598 35.6954 79.8598 35.1696V33.8878H79.7777C79.7064 34.0029 79.6051 34.1453 79.4736 34.3151C79.3449 34.4822 79.1587 34.6314 78.9149 34.7629C78.6739 34.8916 78.348 34.956 77.9372 34.956C77.4278 34.956 76.9704 34.8355 76.5651 34.5944C76.1625 34.3534 75.8434 34.0029 75.6079 33.5428C75.3751 33.0826 75.2587 32.5239 75.2587 31.8666C75.2587 31.2203 75.3723 30.6574 75.5996 30.1782C75.827 29.6961 76.1433 29.3237 76.5486 29.0607C76.954 28.7951 77.4223 28.6622 77.9536 28.6622C78.3644 28.6622 78.6904 28.7307 78.9314 28.8677C79.1751 29.0019 79.3614 29.1552 79.4901 29.3278C79.6215 29.4976 79.7229 29.6372 79.7941 29.7468H79.8927V28.7444H80.8293V35.2353C80.8293 35.7776 80.7061 36.2185 80.4596 36.5582C80.2159 36.9005 79.8872 37.1511 79.4736 37.31C79.0628 37.4715 78.6055 37.5523 78.1015 37.5523ZM78.0687 34.085C78.4576 34.085 78.7862 33.996 79.0546 33.818C79.323 33.64 79.5271 33.3839 79.6667 33.0498C79.8064 32.7156 79.8762 32.3158 79.8762 31.8502C79.8762 31.3955 79.8078 30.9943 79.6708 30.6465C79.5339 30.2987 79.3312 30.0262 79.0628 29.829C78.7944 29.6318 78.463 29.5332 78.0687 29.5332C77.6578 29.5332 77.3155 29.6372 77.0416 29.8454C76.7705 30.0535 76.5664 30.3329 76.4295 30.6835C76.2953 31.034 76.2282 31.4229 76.2282 31.8502C76.2282 32.2884 76.2967 32.6759 76.4336 33.0128C76.5733 33.3469 76.7787 33.6099 77.0498 33.8016C77.3237 33.9905 77.6633 34.085 78.0687 34.085ZM86.5808 32.4746V28.7444H87.5503V35.0546H86.5808V33.9864H86.5151C86.3672 34.3069 86.1371 34.5794 85.8249 34.804C85.5127 35.0258 85.1183 35.1367 84.6417 35.1367C84.2474 35.1367 83.8968 35.0505 83.59 34.8779C83.2833 34.7026 83.0423 34.4397 82.867 34.0891C82.6917 33.7358 82.6041 33.2908 82.6041 32.754V28.7444H83.5736V32.6883C83.5736 33.1484 83.7023 33.5154 83.9598 33.7892C84.22 34.0631 84.5514 34.2001 84.954 34.2001C85.195 34.2001 85.4401 34.1384 85.6893 34.0152C85.9413 33.892 86.1522 33.703 86.322 33.4483C86.4945 33.1936 86.5808 32.869 86.5808 32.4746ZM89.3261 35.0546V28.7444H90.2627V29.6975H90.3285C90.4435 29.3853 90.6517 29.1319 90.9529 28.9375C91.2542 28.743 91.5938 28.6458 91.9717 28.6458C92.043 28.6458 92.132 28.6472 92.2388 28.6499C92.3456 28.6527 92.4264 28.6568 92.4812 28.6622V29.6482C92.4483 29.64 92.373 29.6277 92.2552 29.6112C92.1402 29.5921 92.0183 29.5825 91.8896 29.5825C91.5828 29.5825 91.309 29.6468 91.068 29.7756C90.8297 29.9015 90.6407 30.0768 90.501 30.3014C90.3641 30.5232 90.2956 30.7766 90.2956 31.0614V35.0546H89.3261ZM95.4873 35.2025C95.0875 35.2025 94.7246 35.1271 94.3987 34.9765C94.0727 34.8231 93.8139 34.6027 93.6222 34.3151C93.4305 34.0248 93.3346 33.6742 93.3346 33.2634C93.3346 32.9019 93.4058 32.6088 93.5483 32.3843C93.6907 32.1569 93.881 31.9789 94.1193 31.8502C94.3576 31.7215 94.6205 31.6256 94.9081 31.5626C95.1984 31.4969 95.4901 31.4448 95.7831 31.4065C96.1665 31.3572 96.4774 31.3202 96.7157 31.2956C96.9567 31.2682 97.132 31.223 97.2415 31.16C97.3538 31.097 97.41 30.9875 97.41 30.8314V30.7985C97.41 30.3932 97.299 30.0782 97.0772 29.8536C96.8581 29.629 96.5253 29.5167 96.0789 29.5167C95.616 29.5167 95.2532 29.6181 94.9902 29.8207C94.7273 30.0234 94.5424 30.2398 94.4356 30.4698L93.5154 30.1412C93.6797 29.7578 93.8988 29.4592 94.1727 29.2456C94.4493 29.0292 94.7506 28.8786 95.0765 28.7937C95.4052 28.7061 95.7283 28.6622 96.046 28.6622C96.2487 28.6622 96.4815 28.6869 96.7444 28.7362C97.0101 28.7827 97.2662 28.88 97.5127 29.0279C97.7619 29.1758 97.9687 29.399 98.133 29.6975C98.2973 29.996 98.3795 30.3959 98.3795 30.8971V35.0546H97.41V34.2001H97.3607C97.2949 34.337 97.1854 34.4835 97.032 34.6396C96.8786 34.7958 96.6746 34.9286 96.4199 35.0381C96.1652 35.1477 95.8543 35.2025 95.4873 35.2025ZM95.6352 34.3315C96.0186 34.3315 96.3418 34.2562 96.6047 34.1056C96.8704 33.9549 97.0703 33.7605 97.2045 33.5222C97.3415 33.2839 97.41 33.0333 97.41 32.7704V31.8831C97.3689 31.9324 97.2785 31.9775 97.1388 32.0186C97.0019 32.057 96.843 32.0912 96.6623 32.1213C96.4842 32.1487 96.3103 32.1734 96.1405 32.1953C95.9735 32.2144 95.8379 32.2309 95.7338 32.2446C95.4818 32.2774 95.2463 32.3308 95.0272 32.4048C94.8108 32.476 94.6356 32.5842 94.5014 32.7293C94.3699 32.8718 94.3042 33.0662 94.3042 33.3127C94.3042 33.6496 94.4288 33.9043 94.678 34.0768C94.93 34.2466 95.249 34.3315 95.6352 34.3315Z" fill="#5E5D5E"/>
</g>
<defs>
<clipPath id="clip0_221_1182">
<rect width="118" height="42" fill="white"/>
</clipPath>
</defs>
</svg>
