<svg width="80" height="42" viewBox="0 0 80 42" fill="none" xmlns="http://www.w3.org/2000/svg">
<g clip-path="url(#clip0_221_1199)">
<path d="M41.3813 21.2959L43.1622 19.1548C44.2828 20.1953 45.7435 20.7756 47.2643 20.8356C48.5049 20.8356 49.2453 20.3354 49.2453 19.535V19.4949C49.2453 18.7345 48.7851 18.3343 46.4839 17.754C43.7025 17.0537 41.9216 16.2733 41.9216 13.5519V13.5119C41.9216 11.0106 43.9226 9.36974 46.744 9.36974C48.605 9.32972 50.4059 9.95004 51.8467 11.1106L50.2658 13.3918C49.2453 12.5914 47.9847 12.1111 46.684 12.0311C45.5234 12.0311 44.9231 12.5714 44.9231 13.2317V13.2717C44.9231 14.1722 45.5034 14.4724 47.8846 15.0727C50.666 15.793 52.2469 16.7936 52.2469 19.1948V19.2348C52.2469 21.9762 50.1658 23.497 47.2043 23.497C45.0832 23.497 43.0021 22.7166 41.3813 21.2959Z" fill="#00950B"/>
<path d="M53.7676 21.2959L55.5485 19.1548C56.6691 20.1953 58.1298 20.7756 59.6506 20.8356C60.8912 20.8356 61.6316 20.3354 61.6316 19.535V19.4949C61.6316 18.7345 61.1714 18.3343 58.8702 17.754C56.0888 17.0537 54.3079 16.2733 54.3079 13.5519V13.5119C54.3079 11.0106 56.3089 9.36974 59.1303 9.36974C60.9913 9.32972 62.7922 9.95004 64.233 11.1106L62.6521 13.3918C61.6316 12.5914 60.371 12.1111 59.0703 12.0311C57.9097 12.0311 57.3094 12.5714 57.3094 13.2317V13.2717C57.3094 14.1722 57.8897 14.4724 60.2709 15.0727C63.0523 15.793 64.6332 16.7936 64.6332 19.1948V19.2348C64.6332 21.9762 62.5521 23.497 59.5906 23.497C57.4495 23.497 55.3884 22.7166 53.7676 21.2959Z" fill="#00950B"/>
<path d="M67.2945 9.52991H70.316V20.5355H77.1796V23.297H67.2945V9.52991Z" fill="#00950B"/>
<path d="M41.0211 30.2607L41.7014 29.4403C42.1416 29.8405 42.7019 30.0606 43.2822 30.0806C43.7625 30.0806 44.0426 29.9005 44.0426 29.5803V29.5603C44.0426 29.2602 43.8625 29.1201 42.9821 28.88C41.9215 28.5998 41.2212 28.3197 41.2212 27.2591V27.2391C41.2412 26.3187 42.0016 25.5983 42.922 25.6383C42.9621 25.6383 43.0221 25.6383 43.0621 25.6583C43.7825 25.6383 44.4628 25.8784 45.0231 26.3387L44.4228 27.2191C44.0226 26.919 43.5423 26.7189 43.0421 26.6989C42.6019 26.6989 42.3617 26.899 42.3617 27.1591V27.1791C42.3617 27.5193 42.5819 27.6393 43.5023 27.8795C44.5829 28.1596 45.1832 28.5398 45.1832 29.4603V29.4803C45.1832 30.5408 44.3828 31.1211 43.2422 31.1211C42.4418 31.1011 41.6414 30.801 41.0211 30.2607Z" fill="#00950B"/>
<path d="M46.2237 25.7383H50.2057V26.7788H47.3643V27.8594H49.8656V28.8999H47.3643V30.0205H50.2458V31.061H46.2237V25.7383Z" fill="#00950B"/>
<path d="M51.0662 28.3996C51.0462 26.8988 52.2268 25.6782 53.7075 25.6382C53.7475 25.6382 53.7876 25.6382 53.8276 25.6382C54.608 25.5982 55.3684 25.8983 55.9087 26.4586L55.1683 27.3191C54.8081 26.9589 54.3278 26.7388 53.8076 26.7187C52.9471 26.7388 52.2468 27.4591 52.2668 28.3196C52.2668 28.3396 52.2668 28.3596 52.2668 28.3596V28.3796C52.2068 29.24 52.8871 29.9804 53.7475 30.0404C53.7676 30.0404 53.7876 30.0404 53.8076 30.0404C54.3278 30.0404 54.8481 29.8203 55.2083 29.4201L55.9487 30.1605C55.4084 30.8008 54.608 31.141 53.7876 31.101C52.3068 31.121 51.1062 29.9404 51.0662 28.4797C51.0662 28.4596 51.0662 28.4396 51.0662 28.3996Z" fill="#00950B"/>
<path d="M56.7891 28.7598V25.7383H57.9497V28.7198C57.9497 29.5803 58.3899 30.0205 59.0903 30.0205C59.7907 30.0205 60.2309 29.5803 60.2309 28.7598V25.7383H61.3915V28.7198C61.5316 29.8804 60.7111 30.961 59.5505 31.101C59.3905 31.121 59.2304 31.121 59.0703 31.101C57.9097 31.2211 56.8892 30.3807 56.7691 29.2201C56.7691 29.08 56.7691 28.9199 56.7891 28.7598Z" fill="#00950B"/>
<path d="M62.5921 25.7382H65.0133C65.5736 25.6982 66.1339 25.8983 66.5541 26.2785C66.8543 26.5986 67.0344 27.0389 67.0144 27.4791V27.4991C67.0544 28.2395 66.5941 28.9198 65.8738 29.1399L67.1744 31.0209H65.8137L64.6732 29.32H63.7527V31.0209H62.5921V25.7382ZM64.9333 28.3195C65.4936 28.3195 65.8338 28.0194 65.8338 27.5791V27.5591C65.8338 27.0589 65.4936 26.7987 64.9133 26.7987H63.7527V28.3195H64.9333Z" fill="#00950B"/>
<path d="M68.0749 25.7383H72.0569V26.7788H69.2155V27.8594H71.7168V28.8999H69.2155V30.0205H72.097V31.061H68.0749V25.7383Z" fill="#00950B"/>
<path d="M73.1375 25.7382H75.1986C76.6593 25.6382 77.9 26.7388 78 28.1995C78 28.2595 78 28.3196 78 28.3796V28.3996C78 29.8604 76.8194 31.041 75.3586 31.061C75.2986 31.061 75.2386 31.061 75.1986 31.061H73.1375V25.7382ZM75.1986 29.9804C76.039 30.0204 76.7394 29.4001 76.7994 28.5597C76.7994 28.4997 76.7994 28.4596 76.7994 28.3996V28.3796C76.8394 27.5392 76.1991 26.8188 75.3586 26.7788C75.2986 26.7788 75.2586 26.7788 75.1986 26.7788H74.2981V29.9604L75.1986 29.9804Z" fill="#00950B"/>
<path d="M0.0200115 21.5961C0.0200115 33.7023 11.8261 39.8454 16.8887 41.9265L17.0688 42.0065C17.449 42.1866 17.8892 42.1866 18.2494 42.0065L18.4295 41.9265C23.5121 39.8454 35.2981 33.7023 35.2981 21.5961V5.38776C35.2981 4.76744 34.8779 4.22717 34.2776 4.0871L17.9692 0.0450231C17.7491 -0.0150077 17.529 -0.0150077 17.3289 0.0450231L1.02052 4.0871C0.420217 4.22717 0 4.76744 0 5.38776M32.6367 21.5961C32.6367 31.9014 22.3715 37.3842 17.6891 39.3452C12.9867 37.3842 2.74141 31.9014 2.74141 21.5961V6.42829L17.6891 2.7264L32.6367 6.42829V21.5961Z" fill="#00950B"/>
<path d="M17.6291 8.12927C14.6275 8.12927 12.1863 10.5705 12.1863 13.5721V14.9127C11.1257 15.0928 10.3654 15.9933 10.3654 17.0538V26.5787C10.3654 27.7793 11.3459 28.7598 12.5465 28.7598H22.8518C24.0524 28.7598 25.0329 27.7793 25.0329 26.5787V17.0538C25.0329 15.9533 24.1924 15.0328 23.1119 14.8927V13.5521C23.0519 10.5505 20.6306 8.12927 17.6291 8.12927ZM17.6291 10.4905C19.33 10.4905 20.7107 11.8712 20.7107 13.5721V14.8727H14.5675V13.5721C14.5475 11.8712 15.9282 10.4905 17.6291 10.4905ZM22.6316 26.3786H12.7266V17.254H22.6316V26.3786ZM19.5501 18.8548L21.1909 20.4956L18.7096 22.9769L17.0688 24.6177L15.4279 22.9769L14.1673 21.7162L15.8081 20.0754L17.0688 21.336L19.5501 18.8548Z" fill="#00950B"/>
</g>
<defs>
<clipPath id="clip0_221_1199">
<rect width="80" height="42" fill="white"/>
</clipPath>
</defs>
</svg>
